<?xml version="1.0" encoding="utf-8"?>
<!-- Generator: Adobe Illustrator 19.1.0, SVG Export Plug-In . SVG Version: 6.00 Build 0)  -->
<!DOCTYPE svg PUBLIC "-//W3C//DTD SVG 1.1//EN" "http://www.w3.org/Graphics/SVG/1.1/DTD/svg11.dtd">
<svg version="1.1" id="Layer_1" xmlns="http://www.w3.org/2000/svg" xmlns:xlink="http://www.w3.org/1999/xlink" x="0px" y="0px"
	 viewBox="0 0 2000 1500" style="enable-background:new 0 0 2000 1500;" xml:space="preserve">
<style type="text/css">
	.st0{fill:#474646;}
	.st1{fill:#D4DFE8;}
	.st2{fill:#FFFFFF;}
	.st3{fill:#0B7DAF;}
	.st4{fill:#ACC0CC;}
	.st5{fill:#8E8D8D;}
	.st6{fill:#C14727;}
	.st7{fill:#232323;}
	.st8{fill:#9E3520;}
</style>
<path class="st0" d="M1737.8,1012.9H188v-23.2c0-36.9,29.9-66.8,66.8-66.8h1416.3c36.9,0,66.8,29.9,66.8,66.8V1012.9z"/>
<path class="st3" d="M1513.2,582h-149.5c-2.4,0-4.4-2-4.4-4.4v-81c0-4.8,3.9-8.6,8.6-8.6h142.7c4.8,0,8.6,3.9,8.6,8.6v79.4
	C1519.3,579.3,1516.6,582,1513.2,582z"/>
<path class="st4" d="M1520.3,531.4c-1.9,0-3.5,1.6-3.5,3.5v43.6h-152.9v-43.6c0-1.9-1.6-3.5-3.5-3.5s-3.5,1.6-3.5,3.5V582
	c0,1.9,1.6,3.5,3.5,3.5h71.5v337.4h15V585.5h73.5c1.9,0,3.5-1.6,3.5-3.5v-47.1C1523.8,533,1522.2,531.4,1520.3,531.4z"/>
<path class="st2" d="M1485.2,504.5h-91.8c-3.9,0-7.1,3.2-7.1,7.1v36.8c0,3.9,3.2,7.1,7.1,7.1h8.4c0,5.4,4.4,9.7,9.7,9.7
	s9.7-4.4,9.7-9.7h36.1c0,5.4,4.4,9.7,9.7,9.7c5.4,0,9.7-4.4,9.7-9.7h8.4c3.9,0,7.1-3.2,7.1-7.1v-36.8
	C1492.3,507.7,1489.1,504.5,1485.2,504.5z M1411.5,538c0,0.9-0.7,1.6-1.6,1.6h-9.7c-0.9,0-1.6-0.7-1.6-1.6v-21
	c0-0.9,0.7-1.6,1.6-1.6h9.7c0.9,0,1.6,0.7,1.6,1.6V538z M1434.4,538c0,0.9-0.7,1.6-1.6,1.6h-9.7c-0.9,0-1.6-0.7-1.6-1.6v-21
	c0-0.9,0.7-1.6,1.6-1.6h9.7c0.9,0,1.6,0.7,1.6,1.6V538z M1457.2,538c0,0.9-0.7,1.6-1.6,1.6h-9.7c-0.9,0-1.6-0.7-1.6-1.6v-21
	c0-0.9,0.7-1.6,1.6-1.6h9.7c0.9,0,1.6,0.7,1.6,1.6V538z M1480.1,538c0,0.9-0.7,1.6-1.6,1.6h-9.7c-0.9,0-1.6-0.7-1.6-1.6v-21
	c0-0.9,0.7-1.6,1.6-1.6h9.7c0.9,0,1.6,0.7,1.6,1.6V538z"/>
<g>
	<path class="st5" d="M1251,611h-15v-53.7c0-1.8-1.5-3.3-3.3-3.3H1159v-15h73.6c10.2,0,18.4,8.2,18.4,18.4V611z"/>
	<path class="st6" d="M621.7,528H342.8c-23,0-41.8,18.2-41.8,41.3v256.6c0,23,18.8,42.1,41.8,42.1H620V527.7
		C621,527.7,621.1,528,621.7,528z"/>
	<path class="st6" d="M1159.7,528H729v18v3.9v0.9v2.2v285.2v3.5v0.6v8.2v17.1c0,0,0,0.5-0.1,0.5h430.8c23,0,41.3-19.1,41.3-42.1
		V569.3C1201,546.2,1182.8,528,1159.7,528z"/>
	<path class="st5" d="M729,527.6c0,0,0,0-0.4,0c-0.5,0-1,0-1.4,0.1L729,527.6L729,527.6z"/>
	<path class="st5" d="M623.3,527.9c-0.5,0-1.1,0.1-1.6,0.1h3C624.3,528,623.8,527.9,623.3,527.9z"/>
	<path class="st5" d="M729,850.4v-8.2v-0.6v-3.5V552.9v-2.2v-0.9V546v-18h-1.8c-9.4,0-13.2,6.7-15.9,12.4c-2.7-5.7-6.7-12.4-16-12.4
		h-2.9c-9.4,0-13.4,6.5-16.1,12.2c-0.6-1.2-1.2-2.3-1.9-3.5c-2.7-4.4-6.8-8.8-14.1-8.8h-3c-9.4,0-13.5,6.7-16.2,12.4
		c-2.7-5.7-7-12.4-16.4-12.4h-3c-0.6,0-0.7-0.3-1.7-0.3V868h4.1c7.9-2,11.6-7,14.1-12.2c2.5,5.3,6.2,10.2,14.1,12.2h7.3
		c7.9-2,11.6-7.2,14-12.4c0.3,0.6,0.6,1.3,0.9,1.9c2.5,4.7,6.2,8.5,13.2,10.5h7.2c7.9-2,11.5-6.9,14-12.2
		c2.5,5.3,5.6,10.2,13.4,12.2h6.7c0,0,0.1-0.5,0.1-0.5V850.4z"/>
	<path class="st1" d="M1033.8,726.4h-84.4c-10.9,0-19.8-8.9-19.8-19.8V580.7c0-10.9,8.9-19.8,19.8-19.8h84.4
		c10.9,0,19.8,8.9,19.8,19.8v125.8C1053.7,717.5,1044.8,726.4,1033.8,726.4z"/>
	<path class="st1" d="M873.9,726.4h-84.4c-10.9,0-19.8-8.9-19.8-19.8V580.7c0-10.9,8.9-19.8,19.8-19.8h84.4
		c10.9,0,19.8,8.9,19.8,19.8v125.8C893.7,717.5,884.8,726.4,873.9,726.4z"/>
	<path class="st1" d="M1149.6,834.1h-58.7c-2.9,0-5.3-2.4-5.3-5.3V566.2c0-2.9,2.4-5.3,5.3-5.3h59.3c10.3,0,18.7,8.4,18.7,18.7
		v235.1C1168.9,825.4,1160.3,834.1,1149.6,834.1z"/>
	<g>
		<rect x="1226" y="577" class="st1" width="5" height="65"/>
		<path class="st6" d="M1226.1,578l2.7,19.8c1.1,7.9,1.1,15.9,0,23.9l-2.7,19.8c-0.6,4.5,3.4,8.3,7.9,7.3c18-4,31-20,31-39
			c0-19-13-34.9-31-39C1229.5,569.8,1225.4,573.5,1226.1,578z"/>
	</g>
	<circle class="st7" cx="1069.7" cy="867.5" r="60.5"/>
	<path class="st5" d="M620,867.9c0,0,0.4,0.2,0.5,0.2c1.3,0,2.5-0.1,3.6-0.1H620V867.9z"/>
	<path class="st7" d="M867.2,867.5c0-19.6-15.9-35.5-35.5-35.5s-35.5,15.9-35.5,35.5c0,0.2,0,0.5,0,0.5h-25c0.3,33,27.3,60,60.5,60
		s60.2-27,60.5-60h-25C867.2,868,867.2,867.7,867.2,867.5z"/>
	<path class="st8" d="M831.7,806.9c-33.4,0-60.5,27.1-60.5,60.5c0,0.2,0,0.5,0,0.5h25c0,0,0-0.3,0-0.5c0-19.6,15.9-35.5,35.5-35.5
		s35.5,15.9,35.5,35.5c0,0.2,0,0.5,0,0.5h25c0,0,0-0.3,0-0.5C892.2,834,865.1,806.9,831.7,806.9z"/>
	<path class="st7" d="M831.7,831.9c-19.6,0-35.5,15.9-35.5,35.5c0,0.2,0,0.5,0,0.5h71c0,0,0-0.3,0-0.5
		C867.2,847.8,851.3,831.9,831.7,831.9z"/>
	<path class="st1" d="M563.3,829.4h-29.8c-10.9,0-19.8-8.9-19.8-19.8V580.7c0-10.9,8.9-19.8,19.8-19.8h29.8
		c10.9,0,19.8,8.9,19.8,19.8v228.9C583.1,820.6,574.2,829.4,563.3,829.4z"/>
	<path class="st1" d="M457.9,726.4h-84.4c-10.9,0-19.8-8.9-19.8-19.8V580.7c0-10.9,8.9-19.8,19.8-19.8h84.4
		c10.9,0,19.8,8.9,19.8,19.8v125.8C477.7,717.5,468.8,726.4,457.9,726.4z"/>
	<path class="st7" d="M451.5,867.5c0-19.6-15.9-35.5-35.5-35.5s-35.5,15.9-35.5,35.5c0,0.2,0,0.5,0,0.5h-25c0.3,33,27.3,60,60.5,60
		s60.2-27,60.5-60h-25C451.5,868,451.5,867.7,451.5,867.5z"/>
	<path class="st8" d="M415.9,806.9c-33.4,0-60.5,27.1-60.5,60.5c0,0.2,0,0.5,0,0.5h25c0,0,0-0.3,0-0.5c0-19.6,15.9-35.5,35.5-35.5
		s35.5,15.9,35.5,35.5c0,0.2,0,0.5,0,0.5h25c0,0,0-0.3,0-0.5C476.5,834,449.4,806.9,415.9,806.9z"/>
	<path class="st7" d="M415.9,831.9c-19.6,0-35.5,15.9-35.5,35.5c0,0.2,0,0.5,0,0.5h71c0,0,0-0.3,0-0.5
		C451.5,847.8,435.6,831.9,415.9,831.9z"/>
	<path class="st8" d="M1069.7,806.9c-33.4,0-60.5,27.1-60.5,60.5c0,0.2,0,0.5,0,0.5h25c0,0,0-0.3,0-0.5c0-19.6,15.9-35.5,35.5-35.5
		c19.6,0,35.5,15.9,35.5,35.5c0,0.2,0,0.5,0,0.5h25c0,0,0-0.3,0-0.5C1130.2,834,1103.1,806.9,1069.7,806.9z"/>
	<path class="st7" d="M1069.7,831.9c-19.6,0-35.5,15.9-35.5,35.5c0,0.2,0,0.5,0,0.5h71c0,0,0-0.3,0-0.5
		C1105.2,847.8,1089.3,831.9,1069.7,831.9z"/>
	<g>
		<path class="st4" d="M372.1,636.2c-1.2,0-2.3-0.4-3.3-1.2c-2.1-1.8-2.3-5-0.5-7.1l30-34.7c1.8-2.1,5-2.3,7.1-0.5
			c2.1,1.8,2.3,5,0.5,7.1l-30,34.7C374.9,635.6,373.5,636.2,372.1,636.2z"/>
		<path class="st4" d="M374.1,601.2c-1.2,0-2.3-0.4-3.3-1.2c-2.1-1.8-2.3-5-0.5-7.1l15-17.3c1.8-2.1,5-2.3,7.1-0.5
			c2.1,1.8,2.3,5,0.5,7.1l-15,17.3C376.9,600.6,375.5,601.2,374.1,601.2z"/>
	</g>
	<g>
		<path class="st4" d="M1147.1,636.2c-1.4,0-2.8-0.6-3.8-1.7l-30-34.7c-1.8-2.1-1.6-5.2,0.5-7.1c2.1-1.8,5.2-1.6,7.1,0.5l30,34.7
			c1.8,2.1,1.6,5.2-0.5,7.1C1149.5,635.8,1148.3,636.2,1147.1,636.2z"/>
		<path class="st4" d="M1145.1,601.2c-1.4,0-2.8-0.6-3.8-1.7l-15-17.3c-1.8-2.1-1.6-5.2,0.5-7.1c2.1-1.8,5.2-1.6,7.1,0.5l15,17.3
			c1.8,2.1,1.6,5.2-0.5,7.1C1147.5,600.8,1146.3,601.2,1145.1,601.2z"/>
	</g>
	<path class="st1" d="M517.4,528L374,496.2c-9.6-2.1-18.6,5.2-18.6,14.9V528H517.4z"/>
	<circle class="st1" cx="416.2" cy="867.5" r="24"/>
	<circle class="st1" cx="831.5" cy="867.5" r="24"/>
	<circle class="st1" cx="1069.8" cy="867.5" r="24"/>
</g>
</svg>
