<?xml version="1.0" encoding="utf-8"?>
<!-- Generator: Adobe Illustrator 19.1.0, SVG Export Plug-In . SVG Version: 6.00 Build 0)  -->
<!DOCTYPE svg PUBLIC "-//W3C//DTD SVG 1.1//EN" "http://www.w3.org/Graphics/SVG/1.1/DTD/svg11.dtd">
<svg version="1.1" id="Layer_1" xmlns="http://www.w3.org/2000/svg" xmlns:xlink="http://www.w3.org/1999/xlink" x="0px" y="0px"
	 viewBox="0 0 2000 1500" style="enable-background:new 0 0 2000 1500;" xml:space="preserve">
<style type="text/css">
	.st0{fill:#474646;}
	.st1{fill:#D4DFE8;}
	.st2{fill:#FFFFFF;}
	.st3{fill:#0B7DAF;}
	.st4{fill:#ACC0CC;}
	.st5{fill:#8E8D8D;}
	.st6{fill:#C14727;}
	.st7{fill:#232323;}
	.st8{fill:#9E3520;}
</style>
<path class="st0" d="M1737.8,1060.3H188V1037c0-36.9,29.9-66.8,66.8-66.8h1416.3c36.9,0,66.8,29.9,66.8,66.8V1060.3z"/>
<g>
	<path class="st3" d="M1513.2,629.4h-149.5c-2.4,0-4.4-2-4.4-4.4v-81c0-4.8,3.9-8.6,8.6-8.6h142.7c4.8,0,8.6,3.9,8.6,8.6v79.4
		C1519.3,626.7,1516.6,629.4,1513.2,629.4z"/>
	<path class="st4" d="M1520.3,578.8c-1.9,0-3.5,1.6-3.5,3.5v43.6h-152.9v-43.6c0-1.9-1.6-3.5-3.5-3.5s-3.5,1.6-3.5,3.5v47.1
		c0,1.9,1.6,3.5,3.5,3.5h71.5v337.4h15V632.9h73.5c1.9,0,3.5-1.6,3.5-3.5v-47.1C1523.8,580.4,1522.2,578.8,1520.3,578.8z"/>
	<path class="st2" d="M1485.2,552h-91.8c-3.9,0-7.1,3.2-7.1,7.1v36.8c0,3.9,3.2,7.1,7.1,7.1h8.4c0,5.4,4.4,9.7,9.7,9.7
		s9.7-4.4,9.7-9.7h36.1c0,5.4,4.4,9.7,9.7,9.7c5.4,0,9.7-4.4,9.7-9.7h8.4c3.9,0,7.1-3.2,7.1-7.1v-36.8
		C1492.3,555.1,1489.1,552,1485.2,552z M1411.5,585.5c0,0.9-0.7,1.6-1.6,1.6h-9.7c-0.9,0-1.6-0.7-1.6-1.6v-21c0-0.9,0.7-1.6,1.6-1.6
		h9.7c0.9,0,1.6,0.7,1.6,1.6V585.5z M1434.4,585.5c0,0.9-0.7,1.6-1.6,1.6h-9.7c-0.9,0-1.6-0.7-1.6-1.6v-21c0-0.9,0.7-1.6,1.6-1.6
		h9.7c0.9,0,1.6,0.7,1.6,1.6V585.5z M1457.2,585.5c0,0.9-0.7,1.6-1.6,1.6h-9.7c-0.9,0-1.6-0.7-1.6-1.6v-21c0-0.9,0.7-1.6,1.6-1.6
		h9.7c0.9,0,1.6,0.7,1.6,1.6V585.5z M1480.1,585.5c0,0.9-0.7,1.6-1.6,1.6h-9.7c-0.9,0-1.6-0.7-1.6-1.6v-21c0-0.9,0.7-1.6,1.6-1.6
		h9.7c0.9,0,1.6,0.7,1.6,1.6V585.5z"/>
</g>
</svg>
