<?xml version="1.0" encoding="utf-8"?>
<!-- Generator: Adobe Illustrator 19.1.0, SVG Export Plug-In . SVG Version: 6.00 Build 0)  -->
<!DOCTYPE svg PUBLIC "-//W3C//DTD SVG 1.1//EN" "http://www.w3.org/Graphics/SVG/1.1/DTD/svg11.dtd">
<svg version="1.1" id="Layer_1" xmlns="http://www.w3.org/2000/svg" xmlns:xlink="http://www.w3.org/1999/xlink" x="0px" y="0px"
	 viewBox="0 0 2000 1500" style="enable-background:new 0 0 2000 1500;" xml:space="preserve">
<style type="text/css">
	.st0{fill:#474646;}
	.st1{fill:#D4DFE8;}
	.st2{fill:#FFFFFF;}
	.st3{fill:#0B7DAF;}
	.st4{fill:#ACC0CC;}
	.st5{fill:#8E8D8D;}
	.st6{fill:#C14727;}
	.st7{fill:#232323;}
	.st8{fill:#9E3520;}
</style>
<g>
	<path class="st5" d="M1546,611h-15v-53.7c0-1.8-1.5-3.3-3.3-3.3H1454v-15h73.6c10.2,0,18.4,8.2,18.4,18.4V611z"/>
	<path class="st6" d="M916.7,528H637.8c-23,0-41.8,18.2-41.8,41.3v256.6c0,23,18.8,42.1,41.8,42.1H915V527.7
		C916,527.7,916.1,528,916.7,528z"/>
	<path class="st6" d="M1454.7,528H1024v18v3.9v0.9v2.2v285.2v3.5v0.6v8.2v17.1c0,0,0,0.5-0.1,0.5h430.8c23,0,41.3-19.1,41.3-42.1
		V569.3C1496,546.2,1477.8,528,1454.7,528z"/>
	<path class="st5" d="M1024,527.6c0,0,0,0-0.4,0c-0.5,0-1,0-1.4,0.1L1024,527.6L1024,527.6z"/>
	<path class="st5" d="M918.3,527.9c-0.5,0-1.1,0.1-1.6,0.1h3C919.3,528,918.8,527.9,918.3,527.9z"/>
	<path class="st5" d="M1024,850.4v-8.2v-0.6v-3.5V552.9v-2.2v-0.9V546v-18h-1.8c-9.4,0-13.2,6.7-15.9,12.4
		c-2.7-5.7-6.7-12.4-16-12.4h-2.9c-9.4,0-13.4,6.5-16.1,12.2c-0.6-1.2-1.2-2.3-1.9-3.5c-2.7-4.4-6.8-8.8-14.1-8.8h-3
		c-9.4,0-13.5,6.7-16.2,12.4c-2.7-5.7-7-12.4-16.4-12.4h-3c-0.6,0-0.7-0.3-1.7-0.3V868h4.1c7.9-2,11.6-7,14.1-12.2
		c2.5,5.3,6.2,10.2,14.1,12.2h7.3c7.9-2,11.6-7.2,14-12.4c0.3,0.6,0.6,1.3,0.9,1.9c2.5,4.7,6.2,8.5,13.2,10.5h7.2
		c7.9-2,11.5-6.9,14-12.2c2.5,5.3,5.6,10.2,13.4,12.2h6.7c0,0,0.1-0.5,0.1-0.5V850.4z"/>
	<path class="st1" d="M1328.8,726.4h-84.4c-10.9,0-19.8-8.9-19.8-19.8V580.7c0-10.9,8.9-19.8,19.8-19.8h84.4
		c10.9,0,19.8,8.9,19.8,19.8v125.8C1348.7,717.5,1339.8,726.4,1328.8,726.4z"/>
	<path class="st1" d="M1168.9,726.4h-84.4c-10.9,0-19.8-8.9-19.8-19.8V580.7c0-10.9,8.9-19.8,19.8-19.8h84.4
		c10.9,0,19.8,8.9,19.8,19.8v125.8C1188.7,717.5,1179.8,726.4,1168.9,726.4z"/>
	<path class="st1" d="M1444.6,834.1h-58.7c-2.9,0-5.3-2.4-5.3-5.3V566.2c0-2.9,2.4-5.3,5.3-5.3h59.3c10.3,0,18.7,8.4,18.7,18.7
		v235.1C1463.9,825.4,1455.3,834.1,1444.6,834.1z"/>
	<g>
		<rect x="1521" y="577" class="st1" width="5" height="65"/>
		<path class="st6" d="M1521.1,578l2.7,19.8c1.1,7.9,1.1,15.9,0,23.9l-2.7,19.8c-0.6,4.5,3.4,8.3,7.9,7.3c18-4,31-20,31-39
			c0-19-13-34.9-31-39C1524.5,569.8,1520.4,573.5,1521.1,578z"/>
	</g>
	<circle class="st7" cx="1364.7" cy="867.5" r="60.5"/>
	<path class="st5" d="M915,867.9c0,0,0.4,0.2,0.5,0.2c1.3,0,2.5-0.1,3.6-0.1H915V867.9z"/>
	<path class="st7" d="M1162.2,867.5c0-19.6-15.9-35.5-35.5-35.5c-19.6,0-35.5,15.9-35.5,35.5c0,0.2,0,0.5,0,0.5h-25
		c0.3,33,27.3,60,60.5,60s60.2-27,60.5-60h-25C1162.2,868,1162.2,867.7,1162.2,867.5z"/>
	<path class="st8" d="M1126.7,806.9c-33.4,0-60.5,27.1-60.5,60.5c0,0.2,0,0.5,0,0.5h25c0,0,0-0.3,0-0.5c0-19.6,15.9-35.5,35.5-35.5
		c19.6,0,35.5,15.9,35.5,35.5c0,0.2,0,0.5,0,0.5h25c0,0,0-0.3,0-0.5C1187.2,834,1160.1,806.9,1126.7,806.9z"/>
	<path class="st7" d="M1126.7,831.9c-19.6,0-35.5,15.9-35.5,35.5c0,0.2,0,0.5,0,0.5h71c0,0,0-0.3,0-0.5
		C1162.2,847.8,1146.3,831.9,1126.7,831.9z"/>
	<path class="st1" d="M858.3,829.4h-29.8c-10.9,0-19.8-8.9-19.8-19.8V580.7c0-10.9,8.9-19.8,19.8-19.8h29.8
		c10.9,0,19.8,8.9,19.8,19.8v228.9C878.1,820.6,869.2,829.4,858.3,829.4z"/>
	<path class="st1" d="M752.9,726.4h-84.4c-10.9,0-19.8-8.9-19.8-19.8V580.7c0-10.9,8.9-19.8,19.8-19.8h84.4
		c10.9,0,19.8,8.9,19.8,19.8v125.8C772.7,717.5,763.8,726.4,752.9,726.4z"/>
	<path class="st7" d="M746.5,867.5c0-19.6-15.9-35.5-35.5-35.5s-35.5,15.9-35.5,35.5c0,0.2,0,0.5,0,0.5h-25c0.3,33,27.3,60,60.5,60
		s60.2-27,60.5-60h-25C746.5,868,746.5,867.7,746.5,867.5z"/>
	<path class="st8" d="M710.9,806.9c-33.4,0-60.5,27.1-60.5,60.5c0,0.2,0,0.5,0,0.5h25c0,0,0-0.3,0-0.5c0-19.6,15.9-35.5,35.5-35.5
		s35.5,15.9,35.5,35.5c0,0.2,0,0.5,0,0.5h25c0,0,0-0.3,0-0.5C771.5,834,744.4,806.9,710.9,806.9z"/>
	<path class="st7" d="M710.9,831.9c-19.6,0-35.5,15.9-35.5,35.5c0,0.2,0,0.5,0,0.5h71c0,0,0-0.3,0-0.5
		C746.5,847.8,730.6,831.9,710.9,831.9z"/>
	<path class="st8" d="M1364.7,806.9c-33.4,0-60.5,27.1-60.5,60.5c0,0.2,0,0.5,0,0.5h25c0,0,0-0.3,0-0.5c0-19.6,15.9-35.5,35.5-35.5
		c19.6,0,35.5,15.9,35.5,35.5c0,0.2,0,0.5,0,0.5h25c0,0,0-0.3,0-0.5C1425.2,834,1398.1,806.9,1364.7,806.9z"/>
	<path class="st7" d="M1364.7,831.9c-19.6,0-35.5,15.9-35.5,35.5c0,0.2,0,0.5,0,0.5h71c0,0,0-0.3,0-0.5
		C1400.2,847.8,1384.3,831.9,1364.7,831.9z"/>
	<g>
		<path class="st4" d="M667.1,636.2c-1.2,0-2.3-0.4-3.3-1.2c-2.1-1.8-2.3-5-0.5-7.1l30-34.7c1.8-2.1,5-2.3,7.1-0.5
			c2.1,1.8,2.3,5,0.5,7.1l-30,34.7C669.9,635.6,668.5,636.2,667.1,636.2z"/>
		<path class="st4" d="M669.1,601.2c-1.2,0-2.3-0.4-3.3-1.2c-2.1-1.8-2.3-5-0.5-7.1l15-17.3c1.8-2.1,5-2.3,7.1-0.5
			c2.1,1.8,2.3,5,0.5,7.1l-15,17.3C671.9,600.6,670.5,601.2,669.1,601.2z"/>
	</g>
	<g>
		<path class="st4" d="M1442.1,636.2c-1.4,0-2.8-0.6-3.8-1.7l-30-34.7c-1.8-2.1-1.6-5.2,0.5-7.1c2.1-1.8,5.2-1.6,7.1,0.5l30,34.7
			c1.8,2.1,1.6,5.2-0.5,7.1C1444.5,635.8,1443.3,636.2,1442.1,636.2z"/>
		<path class="st4" d="M1440.1,601.2c-1.4,0-2.8-0.6-3.8-1.7l-15-17.3c-1.8-2.1-1.6-5.2,0.5-7.1c2.1-1.8,5.2-1.6,7.1,0.5l15,17.3
			c1.8,2.1,1.6,5.2-0.5,7.1C1442.5,600.8,1441.3,601.2,1440.1,601.2z"/>
	</g>
	<path class="st1" d="M812.4,528L669,496.2c-9.6-2.1-18.6,5.2-18.6,14.9V528H812.4z"/>
	<circle class="st1" cx="711.2" cy="867.5" r="24"/>
	<circle class="st1" cx="1126.5" cy="867.5" r="24"/>
	<circle class="st1" cx="1364.8" cy="867.5" r="24"/>
</g>
</svg>
