<?xml version="1.0" encoding="utf-8"?>
<!-- Generator: Adobe Illustrator 19.1.0, SVG Export Plug-In . SVG Version: 6.00 Build 0)  -->
<!DOCTYPE svg PUBLIC "-//W3C//DTD SVG 1.1//EN" "http://www.w3.org/Graphics/SVG/1.1/DTD/svg11.dtd">
<svg version="1.1" xmlns="http://www.w3.org/2000/svg" xmlns:xlink="http://www.w3.org/1999/xlink" x="0px" y="0px"
	 viewBox="0 0 367 906.3" style="enable-background:new 0 0 367 906.3;" xml:space="preserve">
<style type="text/css">
	.st0{fill:#E88F7E;}
	.st1{fill:#232323;}
	.st2{fill:#FCFC4C;}
	.st3{fill:#C14727;}
	.st4{fill:#494848;}
	.st5{opacity:0.75;fill:#CEC58E;}
	.st6{fill:#474646;}
	.st7{fill:#FFFFFF;}
	.st8{fill:#D4DFE8;}
	.st9{fill:none;stroke:#ACC0CC;stroke-width:10;stroke-linecap:round;stroke-miterlimit:10;}
	.st10{fill:none;stroke:#E88F7E;stroke-width:15;stroke-linecap:round;stroke-miterlimit:10;}
	.st11{fill:#F4D731;}
	.st12{fill:#8E8D8D;}
	.st13{fill:#ACC0CC;}
	.st14{display:none;}
	.st15{display:inline;fill:#D4DFE8;}
	.st16{display:inline;}
	.st17{fill:none;stroke:#E88F7E;stroke-width:10;stroke-linecap:round;stroke-miterlimit:10;}
</style>
<g id="Layer_1">
	<g>
		<path class="st1" d="M354.2,144.4h-1.5c-7,0-12.7-5.7-12.7-12.7V64.4c0-7,5.7-12.7,12.7-12.7h1.5c7,0,12.7,5.7,12.7,12.7v67.3
			C367,138.7,361.3,144.4,354.2,144.4z"/>
		<path class="st1" d="M14.2,144.4h-1.5c-7,0-12.7-5.7-12.7-12.7V64.4c0-7,5.7-12.7,12.7-12.7h1.5c7,0,12.7,5.7,12.7,12.7v67.3
			C27,138.7,21.3,144.4,14.2,144.4z"/>
		<path class="st1" d="M354.2,557h-1.5c-7,0-12.7-5.7-12.7-12.7V477c0-7,5.7-12.7,12.7-12.7h1.5c7,0,12.7,5.7,12.7,12.7v67.3
			C367,551.3,361.3,557,354.2,557z"/>
		<path class="st1" d="M14.2,557h-1.5c-7,0-12.7-5.7-12.7-12.7V477c0-7,5.7-12.7,12.7-12.7h1.5c7,0,12.7,5.7,12.7,12.7v67.3
			C27,551.3,21.3,557,14.2,557z"/>
		<path class="st11" d="M85.6,906.3H47.1c-3,0-5.4-2.4-5.4-5.4v-4.8c0-3,2.4-5.4,5.4-5.4h38.5c3,0,5.4,2.4,5.4,5.4v4.8
			C90.9,903.9,88.5,906.3,85.6,906.3z"/>
		<path class="st11" d="M320.6,906.3h-38.5c-3,0-5.4-2.4-5.4-5.4v-4.8c0-3,2.4-5.4,5.4-5.4h38.5c3,0,5.4,2.4,5.4,5.4v4.8
			C325.9,903.9,323.5,906.3,320.6,906.3z"/>
		<path class="st1" d="M14.2,818.7h-1.5c-7,0-12.7-5.7-12.7-12.7v-67.3c0-7,5.7-12.7,12.7-12.7h1.5c7,0,12.7,5.7,12.7,12.7V806
			C27,813.1,21.3,818.7,14.2,818.7z"/>
		<path class="st1" d="M354.2,818.7h-1.5c-7,0-12.7-5.7-12.7-12.7v-67.3c0-7,5.7-12.7,12.7-12.7h1.5c7,0,12.7,5.7,12.7,12.7V806
			C367,813.1,361.3,818.7,354.2,818.7z"/>
		<path class="st3" d="M13.7,437c-0.1-2,0.3-2.7,0.3-4v422.8c0,22.8,13.7,41.2,30.6,41.2h12.5h253.7h12.5
			c16.9,0,30.7-18.5,30.7-41.2V436.3c0,0.1-0.5,0.7-0.5,0.7H13.7z"/>
		<path class="st3" d="M323.3,0H44.6C27.7,0,14,15.8,14,35.7v295.9c0-0.4-0.5-0.6-0.5-0.6h18.4h3.9h0.9h2.2h284.9h3.5h0.6h8.2h17.1
			c0.2,0,0.9,2,0.9,3.4V35.7C354,15.8,340.3,0,323.3,0z"/>
		<path class="st12" d="M353.5,369.3c0-10.4-6.5-14.8-12.5-17.6c6-2.8,12.5-6.8,12.5-17.2c0-1.4-0.1-3.4-0.3-3.4h-17.1h-8.2h-0.6
			h-3.5H38.9h-2.2h-0.9h-3.9H13.5c0,0,0,0.2,0,0.6C13.5,342,20,346.2,26,349c-6,2.8-12.5,7.1-12.5,17.5c0,10.4,6.5,14.7,12.5,17.6
			c-1.2,0.6-2.4,1.2-3.6,1.9c-4.7,2.9-8.9,7.4-8.9,15.7c0,10.4,6.5,14.8,12.5,17.6c-6,2.8-12.5,7.2-12.5,17.6c0,1.1,0.1,2.1,0.2,3.1
			h339.8c0,0,0-0.1,0-0.2c0-10.4-6.5-14.8-12.5-17.6c6-2.8,12.5-7.2,12.5-17.6c0-10.4-6.5-14.8-12.5-17.6c0.6-0.3,1.2-0.6,1.8-0.9
			C348.2,383.1,353.5,378.6,353.5,369.3z"/>
		<path class="st8" d="M311,845.9c0-5.7-4.6-9.9-10.3-9.9H67.3c-5.7,0-10.3,4.3-10.3,9.9v49.5c0,0.6,0,0.6,0.1,1.6h253.7
			c0.1-1,0.2-1.1,0.2-1.6V845.9z"/>
		<path class="st8" d="M225.7,141.7h-84.4c-10.9,0-19.8-8.9-19.8-19.8V74.2c0-10.9,8.9-19.8,19.8-19.8h84.4
			c10.9,0,19.8,8.9,19.8,19.8v47.7C245.5,132.9,236.6,141.7,225.7,141.7z"/>
		<path class="st13" d="M141.6,113.6c-1.7,0-3.4-0.9-4.3-2.4c-1.4-2.4-0.6-5.4,1.7-6.9l63.3-37.7c2.4-1.4,5.4-0.6,6.9,1.7
			c1.4,2.4,0.6,5.4-1.7,6.9l-63.3,37.7C143.3,113.4,142.4,113.6,141.6,113.6z"/>
		<path class="st13" d="M159.6,131.6c-1.7,0-3.4-0.9-4.3-2.4c-1.4-2.4-0.6-5.4,1.7-6.9l63.3-37.7c2.4-1.4,5.4-0.6,6.9,1.7
			c1.4,2.4,0.6,5.4-1.7,6.9l-63.3,37.7C161.3,131.4,160.4,131.6,159.6,131.6z"/>
		<path class="st0" d="M121.5,759.5c-4.1,0-7.5-3.4-7.5-7.5V501c0-4.1,3.4-7.5,7.5-7.5s7.5,3.4,7.5,7.5v251
			C129,756.1,125.6,759.5,121.5,759.5z"/>
		<path class="st0" d="M245.5,759.5c-4.1,0-7.5-3.4-7.5-7.5V501c0-4.1,3.4-7.5,7.5-7.5s7.5,3.4,7.5,7.5v251
			C253,756.1,249.6,759.5,245.5,759.5z"/>
		<path class="st0" d="M121.5,284.5c-4.1,0-7.5-3.4-7.5-7.5v-78c0-4.1,3.4-7.5,7.5-7.5s7.5,3.4,7.5,7.5v78
			C129,281.1,125.6,284.5,121.5,284.5z"/>
		<path class="st0" d="M245.5,284.5c-4.1,0-7.5-3.4-7.5-7.5v-78c0-4.1,3.4-7.5,7.5-7.5s7.5,3.4,7.5,7.5v78
			C253,281.1,249.6,284.5,245.5,284.5z"/>
	</g>
</g>
<g id="Layer_3" class="st14">
</g>
<g id="Layer_2" class="st14">
</g>
</svg>
