<?xml version="1.0" encoding="utf-8"?>
<!-- Generator: Adobe Illustrator 19.1.0, SVG Export Plug-In . SVG Version: 6.00 Build 0)  -->
<!DOCTYPE svg PUBLIC "-//W3C//DTD SVG 1.1//EN" "http://www.w3.org/Graphics/SVG/1.1/DTD/svg11.dtd">
<svg version="1.1" id="Layer_1" xmlns="http://www.w3.org/2000/svg" xmlns:xlink="http://www.w3.org/1999/xlink" x="0px" y="0px"
	 viewBox="0 0 963.9 432.1" style="enable-background:new 0 0 963.9 432.1;" xml:space="preserve">
<style type="text/css">
	.st0{fill:#0B7DAF;}
	.st1{fill:#FFFFFF;}
	.st2{fill:#474646;}
	.st3{fill:#D4DFE8;}
	.st4{fill:#ACC0CC;}
	.st5{fill:#8E8D8D;}
	.st6{fill:#C14727;}
	.st7{fill:#232323;}
	.st8{fill:#9E3520;}
</style>
<g>
	<path class="st5" d="M950,115.2h-15V61.5c0-1.8-1.5-3.3-3.3-3.3H858v-15h73.6c10.2,0,18.4,8.2,18.4,18.4V115.2z"/>
	<path class="st6" d="M320.7,32.1H41.8C18.8,32.1,0,50.4,0,73.4V330c0,23,18.8,42.1,41.8,42.1H319V31.9
		C320,31.8,320.1,32.1,320.7,32.1z"/>
	<path class="st6" d="M858.7,32.1H428v18V54v0.9v2.2v285.2v3.5v0.6v8.2v17.1c0,0,0,0.5-0.1,0.5h430.8c23,0,41.3-19.1,41.3-42.1V73.4
		C900,50.4,881.8,32.1,858.7,32.1z"/>
	<path class="st5" d="M428,31.7c0,0,0,0-0.4,0c-0.5,0-1,0-1.4,0.1L428,31.7L428,31.7z"/>
	<path class="st5" d="M322.3,32.1c-0.5,0-1.1,0.1-1.6,0.1h3C323.3,32.1,322.8,32.1,322.3,32.1z"/>
	<path class="st5" d="M428,354.6v-8.2v-0.6v-3.5V57.1v-2.2V54v-3.9v-18h-1.8c-9.4,0-13.2,6.7-15.9,12.4c-2.7-5.7-6.7-12.4-16-12.4
		h-2.9c-9.4,0-13.4,6.5-16.1,12.2c-0.6-1.2-1.2-2.3-1.9-3.5c-2.7-4.4-6.8-8.8-14.1-8.8h-3c-9.4,0-13.5,6.7-16.2,12.4
		c-2.7-5.7-7-12.4-16.4-12.4h-3c-0.6,0-0.7-0.3-1.7-0.3v340.3h4.1c7.9-2,11.6-7,14.1-12.2c2.5,5.3,6.2,10.2,14.1,12.2h7.3
		c7.9-2,11.6-7.2,14-12.4c0.3,0.6,0.6,1.3,0.9,1.9c2.5,4.7,6.2,8.5,13.2,10.5h7.2c7.9-2,11.5-6.9,14-12.2
		c2.5,5.3,5.6,10.2,13.4,12.2h6.7c0,0,0.1-0.5,0.1-0.5V354.6z"/>
	<path class="st3" d="M732.8,230.5h-84.4c-10.9,0-19.8-8.9-19.8-19.8V84.8c0-10.9,8.9-19.8,19.8-19.8h84.4
		c10.9,0,19.8,8.9,19.8,19.8v125.8C752.7,221.6,743.8,230.5,732.8,230.5z"/>
	<path class="st3" d="M572.9,230.5h-84.4c-10.9,0-19.8-8.9-19.8-19.8V84.8c0-10.9,8.9-19.8,19.8-19.8h84.4
		c10.9,0,19.8,8.9,19.8,19.8v125.8C592.7,221.6,583.8,230.5,572.9,230.5z"/>
	<path class="st3" d="M848.6,338.2h-58.7c-2.9,0-5.3-2.4-5.3-5.3V70.4c0-2.9,2.4-5.3,5.3-5.3h59.3c10.3,0,18.7,8.4,18.7,18.7v235.1
		C867.9,329.6,859.3,338.2,848.6,338.2z"/>
	<g>
		<rect x="925" y="81.1" class="st3" width="5" height="65"/>
		<path class="st6" d="M925.1,82.2l2.7,19.8c1.1,7.9,1.1,15.9,0,23.9l-2.7,19.8c-0.6,4.5,3.4,8.3,7.9,7.3c18-4,31-20,31-39
			s-13-34.9-31-39C928.5,73.9,924.4,77.7,925.1,82.2z"/>
	</g>
	<circle class="st7" cx="768.7" cy="371.6" r="60.5"/>
	<path class="st5" d="M319,372c0,0,0.4,0.2,0.5,0.2c1.3,0,2.5-0.1,3.6-0.1H319V372z"/>
	<path class="st7" d="M566.2,371.6c0-19.6-15.9-35.5-35.5-35.5s-35.5,15.9-35.5,35.5c0,0.2,0,0.5,0,0.5h-25c0.3,33,27.3,60,60.5,60
		s60.2-27,60.5-60h-25C566.2,372.1,566.2,371.8,566.2,371.6z"/>
	<path class="st8" d="M530.7,311.1c-33.4,0-60.5,27.1-60.5,60.5c0,0.2,0,0.5,0,0.5h25c0,0,0-0.3,0-0.5c0-19.6,15.9-35.5,35.5-35.5
		s35.5,15.9,35.5,35.5c0,0.2,0,0.5,0,0.5h25c0,0,0-0.3,0-0.5C591.2,338.2,564.1,311.1,530.7,311.1z"/>
	<path class="st7" d="M530.7,336.1c-19.6,0-35.5,15.9-35.5,35.5c0,0.2,0,0.5,0,0.5h71c0,0,0-0.3,0-0.5
		C566.2,352,550.3,336.1,530.7,336.1z"/>
	<path class="st3" d="M262.3,333.6h-29.8c-10.9,0-19.8-8.9-19.8-19.8V84.8c0-10.9,8.9-19.8,19.8-19.8h29.8
		c10.9,0,19.8,8.9,19.8,19.8v228.9C282.1,324.7,273.2,333.6,262.3,333.6z"/>
	<path class="st3" d="M156.9,230.5H72.5c-10.9,0-19.8-8.9-19.8-19.8V84.8c0-10.9,8.9-19.8,19.8-19.8h84.4c10.9,0,19.8,8.9,19.8,19.8
		v125.8C176.7,221.6,167.8,230.5,156.9,230.5z"/>
	<path class="st7" d="M150.5,371.6c0-19.6-15.9-35.5-35.5-35.5S79.4,352,79.4,371.6c0,0.2,0,0.5,0,0.5h-25c0.3,33,27.3,60,60.5,60
		s60.2-27,60.5-60h-25C150.5,372.1,150.5,371.8,150.5,371.6z"/>
	<path class="st8" d="M114.9,311.1c-33.4,0-60.5,27.1-60.5,60.5c0,0.2,0,0.5,0,0.5h25c0,0,0-0.3,0-0.5c0-19.6,15.9-35.5,35.5-35.5
		s35.5,15.9,35.5,35.5c0,0.2,0,0.5,0,0.5h25c0,0,0-0.3,0-0.5C175.5,338.2,148.4,311.1,114.9,311.1z"/>
	<path class="st7" d="M114.9,336.1c-19.6,0-35.5,15.9-35.5,35.5c0,0.2,0,0.5,0,0.5h71c0,0,0-0.3,0-0.5
		C150.5,352,134.6,336.1,114.9,336.1z"/>
	<path class="st8" d="M768.7,311.1c-33.4,0-60.5,27.1-60.5,60.5c0,0.2,0,0.5,0,0.5h25c0,0,0-0.3,0-0.5c0-19.6,15.9-35.5,35.5-35.5
		s35.5,15.9,35.5,35.5c0,0.2,0,0.5,0,0.5h25c0,0,0-0.3,0-0.5C829.2,338.2,802.1,311.1,768.7,311.1z"/>
	<path class="st7" d="M768.7,336.1c-19.6,0-35.5,15.9-35.5,35.5c0,0.2,0,0.5,0,0.5h71c0,0,0-0.3,0-0.5
		C804.2,352,788.3,336.1,768.7,336.1z"/>
	<g>
		<path class="st4" d="M71.1,140.3c-1.2,0-2.3-0.4-3.3-1.2c-2.1-1.8-2.3-5-0.5-7.1l30-34.7c1.8-2.1,5-2.3,7.1-0.5
			c2.1,1.8,2.3,5,0.5,7.1l-30,34.7C73.9,139.8,72.5,140.3,71.1,140.3z"/>
		<path class="st4" d="M73.1,105.3c-1.2,0-2.3-0.4-3.3-1.2c-2.1-1.8-2.3-5-0.5-7.1l15-17.3c1.8-2.1,5-2.3,7.1-0.5
			c2.1,1.8,2.3,5,0.5,7.1l-15,17.3C75.9,104.8,74.5,105.3,73.1,105.3z"/>
	</g>
	<g>
		<path class="st4" d="M846.1,140.3c-1.4,0-2.8-0.6-3.8-1.7l-30-34.7c-1.8-2.1-1.6-5.2,0.5-7.1c2.1-1.8,5.2-1.6,7.1,0.5l30,34.7
			c1.8,2.1,1.6,5.2-0.5,7.1C848.5,139.9,847.3,140.3,846.1,140.3z"/>
		<path class="st4" d="M844.1,105.3c-1.4,0-2.8-0.6-3.8-1.7l-15-17.3c-1.8-2.1-1.6-5.2,0.5-7.1c2.1-1.8,5.2-1.6,7.1,0.5l15,17.3
			c1.8,2.1,1.6,5.2-0.5,7.1C846.5,104.9,845.3,105.3,844.1,105.3z"/>
	</g>
	<path class="st3" d="M216.4,32.2L73,0.4c-9.6-2.1-18.6,5.2-18.6,14.9v16.8H216.4z"/>
	<circle class="st3" cx="115.2" cy="371.6" r="24"/>
	<circle class="st3" cx="530.5" cy="371.6" r="24"/>
	<circle class="st3" cx="768.8" cy="371.6" r="24"/>
</g>
</svg>
