<?xml version="1.0" encoding="utf-8"?>
<!-- Generator: Adobe Illustrator 19.1.0, SVG Export Plug-In . SVG Version: 6.00 Build 0)  -->
<!DOCTYPE svg PUBLIC "-//W3C//DTD SVG 1.1//EN" "http://www.w3.org/Graphics/SVG/1.1/DTD/svg11.dtd">
<svg version="1.1" id="Layer_1" xmlns="http://www.w3.org/2000/svg" xmlns:xlink="http://www.w3.org/1999/xlink" x="0px" y="0px"
	 viewBox="0 0 1549.9 525" style="enable-background:new 0 0 1549.9 525;" xml:space="preserve">
<style type="text/css">
	.st0{fill:#0B7DAF;}
	.st1{fill:#FFFFFF;}
	.st2{fill:#474646;}
	.st3{fill:#D4DFE8;}
	.st4{fill:#ACC0CC;}
	.st5{fill:#8E8D8D;}
	.st6{fill:#C14727;}
	.st7{fill:#232323;}
	.st8{fill:#9E3520;}
</style>
<g>
	<path class="st0" d="M1325.8,94.1h-149.5c-2.4,0-4.4-2-4.4-4.4v-81c0-4.8,3.9-8.6,8.6-8.6h142.7c4.8,0,8.6,3.9,8.6,8.6v79.4
		C1331.8,91.4,1329.1,94.1,1325.8,94.1z"/>
	<path class="st1" d="M1297.7,16.7H1206c-3.9,0-7.1,3.2-7.1,7.1v36.8c0,3.9,3.2,7.1,7.1,7.1h8.4c0,5.4,4.4,9.7,9.7,9.7
		s9.7-4.4,9.7-9.7h36.1c0,5.4,4.4,9.7,9.7,9.7c5.4,0,9.7-4.4,9.7-9.7h8.4c3.9,0,7.1-3.2,7.1-7.1V23.8
		C1304.8,19.9,1301.7,16.7,1297.7,16.7z M1224.1,50.2c0,0.9-0.7,1.6-1.6,1.6h-9.7c-0.9,0-1.6-0.7-1.6-1.6v-21c0-0.9,0.7-1.6,1.6-1.6
		h9.7c0.9,0,1.6,0.7,1.6,1.6V50.2z M1246.9,50.2c0,0.9-0.7,1.6-1.6,1.6h-9.7c-0.9,0-1.6-0.7-1.6-1.6v-21c0-0.9,0.7-1.6,1.6-1.6h9.7
		c0.9,0,1.6,0.7,1.6,1.6V50.2z M1269.8,50.2c0,0.9-0.7,1.6-1.6,1.6h-9.7c-0.9,0-1.6-0.7-1.6-1.6v-21c0-0.9,0.7-1.6,1.6-1.6h9.7
		c0.9,0,1.6,0.7,1.6,1.6V50.2z M1292.6,50.2c0,0.9-0.7,1.6-1.6,1.6h-9.7c-0.9,0-1.6-0.7-1.6-1.6v-21c0-0.9,0.7-1.6,1.6-1.6h9.7
		c0.9,0,1.6,0.7,1.6,1.6V50.2z"/>
</g>
<path class="st2" d="M1549.9,525H0v-23.2C0,464.9,29.9,435,66.8,435h1416.3c36.9,0,66.8,29.9,66.8,66.8V525z"/>
<path class="st4" d="M1331.8,43.6c-1.9,0-3.5,1.6-3.5,3.5v43.6h-152.9V47.1c0-1.9-1.6-3.5-3.5-3.5s-3.5,1.6-3.5,3.5v47.1
	c0,1.9,1.6,3.5,3.5,3.5h71.5V435h15V97.6h73.5c1.9,0,3.5-1.6,3.5-3.5V47.1C1335.3,45.1,1333.8,43.6,1331.8,43.6z"/>
</svg>
