<?xml version="1.0" encoding="utf-8"?>
<!-- Generator: Adobe Illustrator 19.1.0, SVG Export Plug-In . SVG Version: 6.00 Build 0)  -->
<!DOCTYPE svg PUBLIC "-//W3C//DTD SVG 1.1//EN" "http://www.w3.org/Graphics/SVG/1.1/DTD/svg11.dtd">
<svg version="1.1" id="Layer_1" xmlns="http://www.w3.org/2000/svg" xmlns:xlink="http://www.w3.org/1999/xlink" x="0px" y="0px"
	 viewBox="0 0 166.9 435" style="enable-background:new 0 0 166.9 435;" xml:space="preserve">
<style type="text/css">
	.st0{fill:#0B7DAF;}
	.st1{fill:#FFFFFF;}
	.st2{fill:#474646;}
	.st3{fill:#D4DFE8;}
	.st4{fill:#ACC0CC;}
	.st5{fill:#8E8D8D;}
	.st6{fill:#C14727;}
	.st7{fill:#232323;}
	.st8{fill:#9E3520;}
</style>
<g>
	<path class="st0" d="M157.4,94.1H7.9c-2.4,0-4.4-2-4.4-4.4v-81C3.5,3.9,7.4,0,12.1,0h142.7c4.8,0,8.6,3.9,8.6,8.6v79.4
		C163.4,91.4,160.7,94.1,157.4,94.1z"/>
	<path class="st1" d="M129.4,16.7H37.6c-3.9,0-7.1,3.2-7.1,7.1v36.8c0,3.9,3.2,7.1,7.1,7.1h8.4c0,5.4,4.4,9.7,9.7,9.7
		s9.7-4.4,9.7-9.7h36.1c0,5.4,4.4,9.7,9.7,9.7c5.4,0,9.7-4.4,9.7-9.7h8.4c3.9,0,7.1-3.2,7.1-7.1V23.8
		C136.5,19.9,133.3,16.7,129.4,16.7z M55.7,50.2c0,0.9-0.7,1.6-1.6,1.6h-9.7c-0.9,0-1.6-0.7-1.6-1.6v-21c0-0.9,0.7-1.6,1.6-1.6H54
		c0.9,0,1.6,0.7,1.6,1.6V50.2z M78.5,50.2c0,0.9-0.7,1.6-1.6,1.6h-9.7c-0.9,0-1.6-0.7-1.6-1.6v-21c0-0.9,0.7-1.6,1.6-1.6h9.7
		c0.9,0,1.6,0.7,1.6,1.6V50.2z M101.4,50.2c0,0.9-0.7,1.6-1.6,1.6H90c-0.9,0-1.6-0.7-1.6-1.6v-21c0-0.9,0.7-1.6,1.6-1.6h9.7
		c0.9,0,1.6,0.7,1.6,1.6V50.2z M124.3,50.2c0,0.9-0.7,1.6-1.6,1.6h-9.7c-0.9,0-1.6-0.7-1.6-1.6v-21c0-0.9,0.7-1.6,1.6-1.6h9.7
		c0.9,0,1.6,0.7,1.6,1.6V50.2z"/>
</g>
<path class="st4" d="M163.4,43.6c-1.9,0-3.5,1.6-3.5,3.5v43.6H7V47.1c0-1.9-1.6-3.5-3.5-3.5S0,45.1,0,47.1v47.1
	c0,1.9,1.6,3.5,3.5,3.5H75V435h15V97.6h73.5c1.9,0,3.5-1.6,3.5-3.5V47.1C166.9,45.1,165.4,43.6,163.4,43.6z"/>
</svg>
