<?xml version="1.0" encoding="utf-8"?>
<!-- Generator: Adobe Illustrator 19.1.0, SVG Export Plug-In . SVG Version: 6.00 Build 0)  -->
<!DOCTYPE svg PUBLIC "-//W3C//DTD SVG 1.1//EN" "http://www.w3.org/Graphics/SVG/1.1/DTD/svg11.dtd">
<svg version="1.1" id="Layer_1" xmlns="http://www.w3.org/2000/svg" xmlns:xlink="http://www.w3.org/1999/xlink" x="0px" y="0px"
	 viewBox="0 0 1549.9 525" style="enable-background:new 0 0 1549.9 525;" xml:space="preserve">
<style type="text/css">
	.st0{fill:#0B7DAF;}
	.st1{fill:#FFFFFF;}
	.st2{fill:#474646;}
	.st3{fill:#D4DFE8;}
	.st4{fill:#ACC0CC;}
	.st5{fill:#8E8D8D;}
	.st6{fill:#C14727;}
	.st7{fill:#232323;}
	.st8{fill:#9E3520;}
</style>
<g>
	<path class="st0" d="M1325.8,94.1h-149.5c-2.4,0-4.4-2-4.4-4.4v-81c0-4.8,3.9-8.6,8.6-8.6h142.7c4.8,0,8.6,3.9,8.6,8.6v79.4
		C1331.8,91.4,1329.1,94.1,1325.8,94.1z"/>
	<path class="st1" d="M1297.7,16.7H1206c-3.9,0-7.1,3.2-7.1,7.1v36.8c0,3.9,3.2,7.1,7.1,7.1h8.4c0,5.4,4.4,9.7,9.7,9.7
		s9.7-4.4,9.7-9.7h36.1c0,5.4,4.4,9.7,9.7,9.7c5.4,0,9.7-4.4,9.7-9.7h8.4c3.9,0,7.1-3.2,7.1-7.1V23.8
		C1304.8,19.9,1301.7,16.7,1297.7,16.7z M1224.1,50.2c0,0.9-0.7,1.6-1.6,1.6h-9.7c-0.9,0-1.6-0.7-1.6-1.6v-21c0-0.9,0.7-1.6,1.6-1.6
		h9.7c0.9,0,1.6,0.7,1.6,1.6V50.2z M1246.9,50.2c0,0.9-0.7,1.6-1.6,1.6h-9.7c-0.9,0-1.6-0.7-1.6-1.6v-21c0-0.9,0.7-1.6,1.6-1.6h9.7
		c0.9,0,1.6,0.7,1.6,1.6V50.2z M1269.8,50.2c0,0.9-0.7,1.6-1.6,1.6h-9.7c-0.9,0-1.6-0.7-1.6-1.6v-21c0-0.9,0.7-1.6,1.6-1.6h9.7
		c0.9,0,1.6,0.7,1.6,1.6V50.2z M1292.6,50.2c0,0.9-0.7,1.6-1.6,1.6h-9.7c-0.9,0-1.6-0.7-1.6-1.6v-21c0-0.9,0.7-1.6,1.6-1.6h9.7
		c0.9,0,1.6,0.7,1.6,1.6V50.2z"/>
</g>
<path class="st2" d="M1549.9,525H0v-23.2C0,464.9,29.9,435,66.8,435h1416.3c36.9,0,66.8,29.9,66.8,66.8V525z"/>
<path class="st4" d="M1331.8,43.6c-1.9,0-3.5,1.6-3.5,3.5v43.6h-152.9V47.1c0-1.9-1.6-3.5-3.5-3.5s-3.5,1.6-3.5,3.5v47.1
	c0,1.9,1.6,3.5,3.5,3.5h71.5V435h15V97.6h73.5c1.9,0,3.5-1.6,3.5-3.5V47.1C1335.3,45.1,1333.8,43.6,1331.8,43.6z"/>
<g>
	<path class="st5" d="M1063,123.2h-15V69.5c0-1.8-1.5-3.3-3.3-3.3H971v-15h73.6c10.2,0,18.4,8.2,18.4,18.4V123.2z"/>
	<path class="st6" d="M433.7,40.1H154.8c-23,0-41.8,18.2-41.8,41.3V338c0,23,18.8,42.1,41.8,42.1H432V39.9
		C433,39.8,433.1,40.1,433.7,40.1z"/>
	<path class="st6" d="M971.8,40.1H541v18V62v0.9v2.2v285.2v3.5v0.6v8.2v17.1c0,0,0,0.5-0.1,0.5h430.8c23,0,41.3-19.1,41.3-42.1V81.4
		C1013,58.4,994.8,40.1,971.8,40.1z"/>
	<path class="st5" d="M541,39.7c0,0,0,0-0.4,0c-0.5,0-1,0-1.4,0.1L541,39.7L541,39.7z"/>
	<path class="st5" d="M435.3,40.1c-0.5,0-1.1,0.1-1.6,0.1h3C436.3,40.1,435.8,40.1,435.3,40.1z"/>
	<path class="st5" d="M541,362.6v-8.2v-0.6v-3.5V65.1v-2.2V62v-3.9v-18h-1.8c-9.4,0-13.2,6.7-15.9,12.4c-2.7-5.7-6.7-12.4-16-12.4
		h-2.9c-9.4,0-13.4,6.5-16.1,12.2c-0.6-1.2-1.2-2.3-1.9-3.5c-2.7-4.4-6.8-8.8-14.1-8.8h-3c-9.4,0-13.5,6.7-16.2,12.4
		c-2.7-5.7-7-12.4-16.4-12.4h-3c-0.6,0-0.7-0.3-1.7-0.3v340.3h4.1c7.9-2,11.6-7,14.1-12.2c2.5,5.3,6.2,10.2,14.1,12.2h7.3
		c7.9-2,11.6-7.2,14-12.4c0.3,0.6,0.6,1.3,0.9,1.9c2.5,4.7,6.2,8.5,13.2,10.5h7.2c7.9-2,11.5-6.9,14-12.2
		c2.5,5.3,5.6,10.2,13.4,12.2h6.7c0,0,0.1-0.5,0.1-0.5V362.6z"/>
	<path class="st3" d="M845.9,238.5h-84.4c-10.9,0-19.8-8.9-19.8-19.8V92.8c0-10.9,8.9-19.8,19.8-19.8h84.4
		c10.9,0,19.8,8.9,19.8,19.8v125.8C865.7,229.6,856.8,238.5,845.9,238.5z"/>
	<path class="st3" d="M685.9,238.5h-84.4c-10.9,0-19.8-8.9-19.8-19.8V92.8c0-10.9,8.9-19.8,19.8-19.8h84.4
		c10.9,0,19.8,8.9,19.8,19.8v125.8C705.7,229.6,696.8,238.5,685.9,238.5z"/>
	<path class="st3" d="M961.7,346.2h-58.7c-2.9,0-5.3-2.4-5.3-5.3V78.4c0-2.9,2.4-5.3,5.3-5.3h59.3c10.3,0,18.7,8.4,18.7,18.7v235.1
		C981,337.6,972.3,346.2,961.7,346.2z"/>
	<g>
		<rect x="1038" y="89.1" class="st3" width="5" height="65"/>
		<path class="st6" d="M1038.1,90.2l2.7,19.8c1.1,7.9,1.1,15.9,0,23.9l-2.7,19.8c-0.6,4.5,3.4,8.3,7.9,7.3c18-4,31-20,31-39
			s-13-34.9-31-39C1041.5,81.9,1037.5,85.7,1038.1,90.2z"/>
	</g>
	<circle class="st7" cx="881.7" cy="379.6" r="60.5"/>
	<path class="st5" d="M432,380c0,0,0.4,0.2,0.5,0.2c1.3,0,2.5-0.1,3.6-0.1H432V380z"/>
	<path class="st7" d="M679.2,379.6c0-19.6-15.9-35.5-35.5-35.5s-35.5,15.9-35.5,35.5c0,0.2,0,0.5,0,0.5h-25c0.3,33,27.3,60,60.5,60
		s60.2-27,60.5-60h-25C679.2,380.1,679.2,379.8,679.2,379.6z"/>
	<path class="st8" d="M643.7,319.1c-33.4,0-60.5,27.1-60.5,60.5c0,0.2,0,0.5,0,0.5h25c0,0,0-0.3,0-0.5c0-19.6,15.9-35.5,35.5-35.5
		s35.5,15.9,35.5,35.5c0,0.2,0,0.5,0,0.5h25c0,0,0-0.3,0-0.5C704.2,346.2,677.1,319.1,643.7,319.1z"/>
	<path class="st7" d="M643.7,344.1c-19.6,0-35.5,15.9-35.5,35.5c0,0.2,0,0.5,0,0.5h71c0,0,0-0.3,0-0.5
		C679.2,360,663.3,344.1,643.7,344.1z"/>
	<path class="st3" d="M375.3,341.6h-29.8c-10.9,0-19.8-8.9-19.8-19.8V92.8c0-10.9,8.9-19.8,19.8-19.8h29.8
		c10.9,0,19.8,8.9,19.8,19.8v228.9C395.1,332.7,386.2,341.6,375.3,341.6z"/>
	<path class="st3" d="M269.9,238.5h-84.4c-10.9,0-19.8-8.9-19.8-19.8V92.8c0-10.9,8.9-19.8,19.8-19.8h84.4
		c10.9,0,19.8,8.9,19.8,19.8v125.8C289.7,229.6,280.8,238.5,269.9,238.5z"/>
	<path class="st7" d="M263.5,379.6c0-19.6-15.9-35.5-35.5-35.5s-35.5,15.9-35.5,35.5c0,0.2,0,0.5,0,0.5h-25c0.3,33,27.3,60,60.5,60
		s60.2-27,60.5-60h-25C263.5,380.1,263.5,379.8,263.5,379.6z"/>
	<path class="st8" d="M228,319.1c-33.4,0-60.5,27.1-60.5,60.5c0,0.2,0,0.5,0,0.5h25c0,0,0-0.3,0-0.5c0-19.6,15.9-35.5,35.5-35.5
		s35.5,15.9,35.5,35.5c0,0.2,0,0.5,0,0.5h25c0,0,0-0.3,0-0.5C288.5,346.2,261.4,319.1,228,319.1z"/>
	<path class="st7" d="M228,344.1c-19.6,0-35.5,15.9-35.5,35.5c0,0.2,0,0.5,0,0.5h71c0,0,0-0.3,0-0.5
		C263.5,360,247.6,344.1,228,344.1z"/>
	<path class="st8" d="M881.7,319.1c-33.4,0-60.5,27.1-60.5,60.5c0,0.2,0,0.5,0,0.5h25c0,0,0-0.3,0-0.5c0-19.6,15.9-35.5,35.5-35.5
		s35.5,15.9,35.5,35.5c0,0.2,0,0.5,0,0.5h25c0,0,0-0.3,0-0.5C942.2,346.2,915.1,319.1,881.7,319.1z"/>
	<path class="st7" d="M881.7,344.1c-19.6,0-35.5,15.9-35.5,35.5c0,0.2,0,0.5,0,0.5h71c0,0,0-0.3,0-0.5
		C917.2,360,901.3,344.1,881.7,344.1z"/>
	<g>
		<path class="st4" d="M184.2,148.3c-1.2,0-2.3-0.4-3.3-1.2c-2.1-1.8-2.3-5-0.5-7.1l30-34.7c1.8-2.1,5-2.3,7.1-0.5
			c2.1,1.8,2.3,5,0.5,7.1l-30,34.7C187,147.8,185.6,148.3,184.2,148.3z"/>
		<path class="st4" d="M186.2,113.3c-1.2,0-2.3-0.4-3.3-1.2c-2.1-1.8-2.3-5-0.5-7.1l15-17.3c1.8-2.1,5-2.3,7.1-0.5
			c2.1,1.8,2.3,5,0.5,7.1l-15,17.3C189,112.8,187.6,113.3,186.2,113.3z"/>
	</g>
	<g>
		<path class="st4" d="M959.2,148.3c-1.4,0-2.8-0.6-3.8-1.7l-30-34.7c-1.8-2.1-1.6-5.2,0.5-7.1c2.1-1.8,5.2-1.6,7.1,0.5l30,34.7
			c1.8,2.1,1.6,5.2-0.5,7.1C961.5,147.9,960.3,148.3,959.2,148.3z"/>
		<path class="st4" d="M957.2,113.3c-1.4,0-2.8-0.6-3.8-1.7l-15-17.3c-1.8-2.1-1.6-5.2,0.5-7.1c2.1-1.8,5.2-1.6,7.1,0.5l15,17.3
			c1.8,2.1,1.6,5.2-0.5,7.1C959.5,112.9,958.3,113.3,957.2,113.3z"/>
	</g>
	<path class="st3" d="M329.4,40.2L186.1,8.4c-9.6-2.1-18.6,5.2-18.6,14.9v16.8H329.4z"/>
	<circle class="st3" cx="228.2" cy="379.6" r="24"/>
	<circle class="st3" cx="643.6" cy="379.6" r="24"/>
	<circle class="st3" cx="881.8" cy="379.6" r="24"/>
</g>
</svg>
