<?xml version="1.0" encoding="utf-8"?>
<!-- Generator: Adobe Illustrator 19.1.0, SVG Export Plug-In . SVG Version: 6.00 Build 0)  -->
<!DOCTYPE svg PUBLIC "-//W3C//DTD SVG 1.1//EN" "http://www.w3.org/Graphics/SVG/1.1/DTD/svg11.dtd">
<svg version="1.1" id="Layer_1" xmlns="http://www.w3.org/2000/svg" xmlns:xlink="http://www.w3.org/1999/xlink" x="0px" y="0px"
	 viewBox="0 -750 2000 3000" style="enable-background:new 0 -750 2000 3000;" xml:space="preserve">
<style type="text/css">
	.st0{opacity:0.75;fill:#CEC58E;enable-background:new    ;}
	.st1{fill:#474646;}
	.st2{fill:#FFFFFF;}
	.st3{fill:#A3A3A3;}
	.st4{fill:#E88F7E;}
	.st5{fill:#6D6C6C;}
	.st6{fill:#1A1A1A;}
	.st7{fill:#A86309;}
	.st8{fill:#DE8400;}
	.st9{fill:#E6E6E6;}
	.st10{fill:#9B9334;}
	.st11{fill:#725225;}
	.st12{fill:#AD1414;}
	.st13{fill:none;}
	.st14{font-family:'AkagiPro-Book';}
	.st15{font-size:14px;}
</style>
<rect y="-749.9" class="st0" width="2000" height="3000"/>
<polygon class="st1" points="798.1,-751.1 798.1,748.9 798.1,751.1 798.1,2251.1 1201.9,2251.1 1201.9,751.1 1201.9,748.9 
	1201.9,-751.1 "/>
<g>
	<rect x="994.3" y="-749.9" class="st2" width="12" height="30"/>
	<rect x="994.3" y="347.1" class="st2" width="12" height="58"/>
	<rect x="994.3" y="222.1" class="st2" width="12" height="58"/>
	<rect x="994.3" y="472.1" class="st2" width="12" height="58"/>
	<rect x="994.3" y="97.1" class="st2" width="12" height="58"/>
	<rect x="994.3" y="597.1" class="st2" width="12" height="58"/>
	<rect x="994.3" y="-652.9" class="st2" width="12" height="58"/>
	<rect x="994.3" y="-27.9" class="st2" width="12" height="58"/>
	<rect x="994.3" y="-527.9" class="st2" width="12" height="58"/>
	<rect x="994.3" y="-402.9" class="st2" width="12" height="58"/>
	<rect x="994.3" y="-152.9" class="st2" width="12" height="58"/>
	<rect x="994.3" y="-277.9" class="st2" width="12" height="58"/>
	<polygon class="st2" points="994.3,750.1 994.3,750.1 994.3,780.1 1006.3,780.1 1006.3,750.1 1006.3,750.1 1006.3,720.1 
		994.3,720.1 	"/>
	<rect x="994.3" y="1597.1" class="st2" width="12" height="58"/>
	<rect x="994.3" y="1722.1" class="st2" width="12" height="58"/>
	<rect x="994.3" y="2097.1" class="st2" width="12" height="58"/>
	<rect x="994.3" y="1847.1" class="st2" width="12" height="58"/>
	<rect x="994.3" y="1972.1" class="st2" width="12" height="58"/>
	<rect x="994.3" y="1222.1" class="st2" width="12" height="58"/>
	<rect x="994.3" y="972.1" class="st2" width="12" height="58"/>
	<rect x="994.3" y="1472.1" class="st2" width="12" height="58"/>
	<rect x="994.3" y="847.1" class="st2" width="12" height="58"/>
	<rect x="994.3" y="1097.1" class="st2" width="12" height="58"/>
	<rect x="994.3" y="1347.1" class="st2" width="12" height="58"/>
	<rect x="994.3" y="2220.1" class="st2" width="12" height="30"/>
</g>
<g>
	<polygon class="st2" points="820.3,750.1 820.3,750.1 820.3,2250.1 832.3,2250.1 832.3,750.1 832.3,750.1 832.3,-749.9 
		820.3,-749.9 	"/>
	<polygon class="st2" points="1168.3,-749.9 1168.3,750.1 1168.3,750.1 1168.3,2250.1 1180.3,2250.1 1180.3,750.1 1180.3,750.1 
		1180.3,-749.9 	"/>
</g>
<g>
	<polygon class="st3" points="739.5,285.9 563.9,285.9 563.9,257.6 651.7,230.3 739.5,257.6 	"/>
	<polygon class="st4" points="739.5,183.2 563.9,183.2 563.9,154.9 651.7,127.6 739.5,154.9 	"/>
	<polygon class="st1" points="651.7,127.6 563.9,154.4 563.9,258.4 651.7,230.3 	"/>
	<polygon class="st5" points="739.5,154.4 651.7,127.6 651.7,230.3 739.5,258.4 	"/>
	<polygon class="st1" points="693.2,166.9 678,156.9 685.6,174.6 665.9,188.8 686.5,194.6 706.3,213.1 706.3,193.1 726.2,193.1 
		714.9,184.9 726.3,167.1 709.9,173.2 696.1,153.3 	"/>
	<polygon class="st6" points="693.9,171.1 682.7,163.6 688.3,176.8 673.7,187.4 688.8,191.6 703.3,205.3 703.3,190.6 718.3,190.6 
		710,184.6 718.5,171.1 706.4,175.8 696.1,161.1 	"/>
	<rect x="639" y="251.9" class="st1" width="25.4" height="33.9"/>
</g>
<g>
	<polygon class="st3" points="1467.3,-227.1 1303.7,-227.1 1303.7,-244.4 1386.5,-278.7 1467.3,-244.4 	"/>
	<polygon class="st1" points="1386.5,-339.4 1303.7,-305.6 1303.7,-243.6 1386.5,-278.7 	"/>
	<polygon class="st5" points="1467.3,-305.6 1386.5,-339.4 1386.5,-278.7 1467.3,-243.6 	"/>
	<polygon class="st5" points="1356.5,-240.1 1349.3,-235.2 1352.9,-243.8 1343.6,-250.4 1353.6,-253.2 1363.3,-261.9 1363.3,-252.4 
		1372.5,-252.4 1367,-248.7 1372.3,-240.1 1364.5,-243.1 1357.9,-233.7 	"/>
	<polygon class="st6" points="1356.9,-242.6 1351.5,-238.9 1354.2,-245.2 1347.2,-250.2 1354.4,-252.2 1361.3,-258.8 1361.3,-251.8 
		1368.4,-251.8 1364.5,-248.9 1368.5,-242.6 1362.8,-244.8 1357.9,-237.8 	"/>
	<rect x="1387.7" y="-261.1" class="st1" width="25.4" height="33.9"/>
</g>
<g>
	<polygon class="st3" points="505.3,-229.1 341.7,-229.1 341.7,-246.4 424.5,-280.7 505.3,-246.4 	"/>
	<polygon class="st4" points="505.3,-305.8 341.7,-305.8 341.7,-307.1 424.5,-341.4 505.3,-307.1 	"/>
	<polygon class="st1" points="424.5,-341.4 341.7,-307.6 341.7,-245.6 424.5,-280.7 	"/>
	<polygon class="st5" points="505.3,-307.6 424.5,-341.4 424.5,-280.7 505.3,-245.6 	"/>
	<rect x="397.6" y="-263.1" class="st1" width="25.4" height="33.9"/>
	<rect x="431" y="-263.1" class="st1" width="14.8" height="14"/>
	<polygon class="st3" points="469.4,-299.9 476,-304.4 472.7,-296.6 481.4,-290.2 472.7,-287.8 464.3,-279.7 464.3,-288.4 
		455.2,-288.4 460,-292.1 454.8,-299.9 462,-297.2 468.1,-305.9 	"/>
	<polygon class="st6" points="469,-298.1 474,-301.4 471.5,-295.6 478,-290.9 471.5,-289.1 465.3,-282.9 465.3,-289.6 458.5,-289.6 
		462.1,-292.2 458.2,-298.1 463.6,-296.1 468.1,-302.6 	"/>
</g>
<polygon class="st3" points="1630.3,450.9 1466.7,450.9 1466.7,433.6 1549.5,399.3 1630.3,433.6 "/>
<polygon class="st4" points="1630.3,374.2 1466.7,374.2 1466.7,372.9 1549.5,338.6 1630.3,372.9 "/>
<polygon class="st7" points="1549.5,338.6 1466.7,372.4 1466.7,434.4 1549.5,399.3 "/>
<polygon class="st8" points="1630.3,372.4 1549.5,338.6 1549.5,399.3 1630.3,434.4 "/>
<polygon class="st8" points="1513.9,377.9 1508.5,381.6 1511.2,375.2 1504.3,370.2 1511.4,368.2 1518.3,361.6 1518.3,368.8 
	1525.4,368.8 1521.5,371.6 1525.5,377.9 1519.8,375.8 1514.9,382.8 "/>
<polygon class="st6" points="1514.1,376.1 1510.2,378.8 1512.1,374.1 1507,370.3 1512.2,368.8 1517.3,364.1 1517.3,369.2 
	1522.7,369.2 1519.8,371.4 1522.8,376.1 1518.5,374.4 1514.9,379.6 "/>
<rect x="1522.6" y="416.9" class="st6" width="25.4" height="33.9"/>
<rect x="1556" y="416.9" class="st6" width="14.8" height="14"/>
<polygon class="st7" points="1581.6,370.3 1568.6,361.6 1575.1,376.8 1558.2,389.1 1576.1,393.9 1593.3,409.8 1593.3,392.6 
	1610.1,392.8 1600.3,385.8 1610,370.3 1596,375.6 1584.1,358.6 "/>
<polygon class="st6" points="1582.2,373.8 1572.6,367.4 1577.4,378.8 1564.9,387.8 1577.8,391.4 1590.3,403.2 1590.3,390.4 
	1603.1,390.6 1596,385.3 1603.3,373.9 1592.9,377.8 1584.1,365.1 "/>
<path class="st9" d="M1585.5,369.3c-5.1,0-9.3-4.2-9.3-9.3c0-3.8,2.3-7,5.5-8.5c-0.2-0.6-0.4-1.3-0.4-2c0-0.6,0.1-1.2,0.3-1.8
	c-1.9-0.5-3.3-2.1-3.3-4.2c0-2,1.4-3.7,3.3-4.2c-0.1-0.4-0.2-0.8-0.2-1.3c0-2.2,1.8-4,4-4s4,1.8,4,4c0,1.8-1.2,3.3-2.8,3.8
	c0.2,0.5,0.3,1,0.3,1.6c0,0.1,0,0.2,0,0.3l0,0c3.1,0,5.6,2.5,5.6,5.6c0,1.3-0.4,2.5-1.2,3.4c2,1.7,3.3,4.3,3.3,7.1
	c0,0.3,0,0.7-0.1,1c0,0,0,0,0.1,0c4.5,0,8.1,3.6,8.1,8.1c0,4-2.9,7.3-6.6,8c0,0.2,0,0.4,0,0.6c0,3.5-2.8,6.3-6.3,6.3
	s-6.3-2.8-6.3-6.3c0-2.5,1.4-4.6,3.5-5.6c-0.3-0.9-0.5-1.8-0.5-2.8C1586.3,369.3,1585.9,369.3,1585.5,369.3z"/>
<g>
	<polygon class="st3" points="624.5,552.9 448.9,552.9 448.9,481.6 536.7,454.3 624.5,481.6 	"/>
	<polygon class="st4" points="624.5,450.2 448.9,450.2 448.9,430.8 536.7,403.4 624.5,430.8 	"/>
	<polygon class="st1" points="536.7,403.4 448.9,430.1 448.9,482.4 536.7,454.3 	"/>
	<polygon class="st5" points="624.5,430.1 536.7,403.4 536.7,454.3 624.5,482.4 	"/>
	<rect x="487.8" y="518.9" class="st1" width="25.4" height="33.9"/>
	<rect x="525" y="520.1" class="st1" width="14.8" height="14"/>
	<path class="st9" d="M576.6,384.3c5.1,0,9.3-4.2,9.3-9.3c0-3.8-2.3-7-5.5-8.5c0.2-0.6,0.4-1.3,0.4-2c0-0.6-0.1-1.2-0.3-1.8
		c1.9-0.5,3.3-2.1,3.3-4.2c0-2-1.4-3.7-3.3-4.2c0.1-0.4,0.2-0.8,0.2-1.3c0-2.2-1.8-4-4-4s-4,1.8-4,4c0,1.8,1.2,3.3,2.8,3.8
		c-0.2,0.5-0.3,1-0.3,1.6c0,0.1,0,0.2,0,0.3l0,0c-3.1,0-5.6,2.5-5.6,5.6c0,1.3,0.4,2.5,1.2,3.4c-2,1.7-3.3,4.3-3.3,7.1
		c0,0.3,0,0.7,0.1,1c0,0,0,0-0.1,0c-4.5,0-8.1,3.6-8.1,8.1c0,4,2.9,7.3,6.6,8c0,0.2,0,0.4,0,0.6c0,3.5,2.8,6.3,6.3,6.3
		s6.3-2.8,6.3-6.3c0-2.5-1.4-4.6-3.5-5.6c0.3-0.9,0.5-1.8,0.5-2.8C575.8,384.3,576.2,384.3,576.6,384.3z"/>
	<rect x="559" y="395.1" class="st1" width="25.4" height="48.7"/>
</g>
<g>
	<g>
		<polygon class="st3" points="689.3,-468.1 525.7,-468.1 525.7,-485.4 608.5,-519.7 689.3,-485.4 		"/>
		<polygon class="st4" points="689.3,-544.8 525.7,-544.8 525.7,-546.1 608.5,-580.4 689.3,-546.1 		"/>
		<polygon class="st1" points="608.5,-580.4 525.7,-546.6 525.7,-484.6 608.5,-519.7 		"/>
		<polygon class="st5" points="689.3,-546.6 608.5,-580.4 608.5,-519.7 689.3,-484.6 		"/>
		<polygon class="st5" points="560.1,-523.1 551.1,-517.1 555.6,-527.7 543.8,-536.2 556.3,-539.6 568.3,-550.7 568.3,-538.7 
			580.1,-538.8 573.2,-533.9 580,-523.1 570.2,-526.9 561.9,-514.9 		"/>
		<polygon class="st6" points="560.6,-526.2 553.8,-521.7 557.2,-529.6 548.5,-535.9 557.5,-538.4 566.3,-546.7 566.3,-537.8 
			575.2,-537.9 570.2,-534.2 575.3,-526.2 568,-528.9 561.9,-520.1 		"/>
		<path class="st9" d="M644.4-581.1c3.6,0,6.5-2.9,6.5-6.5c0-2.7-1.6-4.9-3.9-6c0.2-0.4,0.3-0.9,0.3-1.4c0-0.4-0.1-0.9-0.2-1.2
			c1.3-0.3,2.3-1.5,2.3-2.9s-1-2.6-2.3-2.9c0.1-0.3,0.2-0.6,0.2-0.9c0-1.6-1.3-2.8-2.8-2.8c-1.6,0-2.8,1.3-2.8,2.8
			c0,1.3,0.8,2.3,2,2.7c-0.1,0.3-0.2,0.7-0.2,1.1c0,0.1,0,0.1,0,0.2l0,0c-2.2,0-4,1.8-4,4c0,0.9,0.3,1.7,0.8,2.4
			c-1.4,1.2-2.3,3-2.3,5c0,0.2,0,0.5,0,0.7l0,0c-3.1,0-5.7,2.6-5.7,5.7c0,2.8,2,5.1,4.7,5.6c0,0.1,0,0.3,0,0.4c0,2.4,2,4.4,4.4,4.4
			s4.4-2,4.4-4.4c0-1.7-1-3.3-2.5-4c0.2-0.6,0.4-1.3,0.4-2C643.8-581.1,644.1-581.1,644.4-581.1z"/>
		<rect x="632" y="-573.6" class="st1" width="17.9" height="34.3"/>
	</g>
	<rect x="581.6" y="-493.9" class="st1" width="25.4" height="25.8"/>
</g>
<g>
	<polygon class="st10" points="341.7,318.1 404.7,208.9 467.6,318.1 	"/>
	<rect x="394.3" y="307.8" class="st11" width="20.7" height="32.3"/>
</g>
<g>
	<polygon class="st10" points="340.9,-609.4 403.9,-718.4 466.8,-609.4 	"/>
	<rect x="393.5" y="-619.7" class="st11" width="20.7" height="32.3"/>
</g>
<g>
	<polygon class="st10" points="588.2,-136.9 636.7,-220.9 685.1,-136.9 	"/>
	<rect x="628.7" y="-144.9" class="st11" width="15.9" height="24.9"/>
</g>
<g>
	<polygon class="st10" points="655.2,44.1 690.8,-17.6 726.3,44.1 	"/>
	<rect x="684.9" y="37.8" class="st11" width="11.7" height="18.2"/>
</g>
<g>
	<polygon class="st10" points="1356.2,-62.9 1391.8,-124.6 1427.3,-62.9 	"/>
	<rect x="1385.9" y="-69.2" class="st11" width="11.7" height="18.2"/>
</g>
<g>
	<polygon class="st10" points="1260.2,-476.9 1295.8,-538.6 1331.3,-476.9 	"/>
	<rect x="1289.9" y="-483.2" class="st11" width="11.7" height="18.2"/>
</g>
<g>
	<polygon class="st10" points="559.2,-348.9 594.8,-410.6 630.3,-348.9 	"/>
	<rect x="588.9" y="-355.2" class="st11" width="11.7" height="18.2"/>
</g>
<g>
	<polygon class="st10" points="449.2,-46.9 484.8,-108.6 520.3,-46.9 	"/>
	<rect x="478.9" y="-53.2" class="st11" width="11.7" height="18.2"/>
</g>
<g>
	<polygon class="st10" points="1456.1,161.1 1508.5,70.3 1560.8,161.1 	"/>
	<rect x="1499.9" y="152.1" class="st11" width="17.2" height="26.9"/>
</g>
<g>
	<polygon class="st10" points="1281.7,295.1 1344.7,185.9 1407.6,295.1 	"/>
	<rect x="1334.3" y="284.8" class="st11" width="20.7" height="32.3"/>
</g>
<g>
	<polygon class="st10" points="1451.7,-435.9 1514.7,-545.1 1577.6,-435.9 	"/>
	<rect x="1504.3" y="-446.2" class="st11" width="20.7" height="32.3"/>
</g>
<g>
	<polygon class="st3" points="705.5,1859.2 529.9,1859.2 529.9,1830.9 617.7,1803.6 705.5,1830.9 	"/>
	<polygon class="st4" points="705.5,1756.6 529.9,1756.6 529.9,1728.2 617.7,1700.9 705.5,1728.2 	"/>
	<polygon class="st1" points="617.7,1700.9 529.9,1727.7 529.9,1831.7 617.7,1803.6 	"/>
	<polygon class="st5" points="705.5,1727.7 617.7,1700.9 617.7,1803.6 705.5,1831.7 	"/>
	<polygon class="st3" points="659.2,1740.2 644,1730.2 651.6,1747.9 631.9,1762.1 652.5,1767.8 672.3,1786.3 672.3,1766.3 
		692.2,1766.4 680.9,1758.2 692.3,1740.3 675.9,1746.6 662.1,1726.6 	"/>
	<polygon class="st6" points="659.9,1744.4 648.7,1736.9 654.3,1750.1 639.7,1760.7 654.8,1764.9 669.3,1778.6 669.3,1763.8 
		684.3,1763.9 676,1757.8 684.5,1744.4 672.4,1749.1 662.1,1734.3 	"/>
	<rect x="605" y="1825.2" class="st1" width="25.4" height="33.9"/>
</g>
<g>
	<polygon class="st3" points="589.7,1119.1 426.1,1119.1 426.1,1101.8 508.9,1067.4 589.7,1101.8 	"/>
	<polygon class="st1" points="508.9,1006.8 426.1,1040.6 426.1,1102.6 508.9,1067.4 	"/>
	<polygon class="st5" points="589.7,1040.6 508.9,1006.8 508.9,1067.4 589.7,1102.6 	"/>
	<polygon class="st5" points="478.9,1106.1 471.7,1110.9 475.3,1102.4 466,1095.7 476,1092.9 485.7,1084.2 485.7,1093.7 
		494.9,1093.7 489.4,1097.4 494.7,1106.1 486.9,1103.1 480.3,1112.4 	"/>
	<polygon class="st6" points="479.3,1103.6 473.9,1107.2 476.6,1100.9 469.6,1095.9 476.8,1093.9 483.7,1087.4 483.7,1094.4 
		490.8,1094.4 486.9,1097.3 490.9,1103.6 485.2,1101.4 480.3,1108.4 	"/>
	<rect x="510.1" y="1085.1" class="st1" width="25.4" height="33.9"/>
</g>
<g>
	<polygon class="st3" points="1476.3,1356.4 1312.7,1356.4 1312.7,1339.1 1395.5,1304.8 1476.3,1339.1 	"/>
	<polygon class="st1" points="1395.5,1244.1 1312.7,1277.9 1312.7,1339.9 1395.5,1304.8 	"/>
	<polygon class="st5" points="1476.3,1277.9 1395.5,1244.1 1395.5,1304.8 1476.3,1339.9 	"/>
	<polygon class="st5" points="1365.5,1343.4 1358.3,1348.2 1361.9,1339.7 1352.6,1332.9 1362.6,1330.3 1372.3,1321.4 1372.3,1330.9 
		1381.5,1330.9 1376,1334.8 1381.3,1343.4 1373.5,1340.4 1366.9,1349.8 	"/>
	<polygon class="st6" points="1365.9,1340.9 1360.5,1344.4 1363.2,1338.2 1356.2,1333.2 1363.4,1331.2 1370.3,1324.7 1370.3,1331.7 
		1377.4,1331.7 1373.5,1334.6 1377.5,1340.9 1371.8,1338.7 1366.9,1345.7 	"/>
	<rect x="1396.7" y="1322.4" class="st1" width="25.4" height="33.9"/>
</g>
<g>
	<polygon class="st3" points="672.3,912.7 508.7,912.7 508.7,895.4 591.5,861.2 672.3,895.4 	"/>
	<polygon class="st4" points="672.3,836.1 508.7,836.1 508.7,834.7 591.5,800.4 672.3,834.7 	"/>
	<polygon class="st1" points="591.5,800.4 508.7,834.2 508.7,896.2 591.5,861.2 	"/>
	<polygon class="st5" points="672.3,834.2 591.5,800.4 591.5,861.2 672.3,896.2 	"/>
	<rect x="564.6" y="878.7" class="st1" width="25.4" height="33.9"/>
	<rect x="598" y="878.7" class="st1" width="14.8" height="14"/>
	<polygon class="st3" points="636.4,841.8 643,837.4 639.7,845.2 648.4,851.6 639.7,854.1 631.3,862.2 631.3,853.3 622.2,853.4 
		627,849.7 621.8,841.8 629,844.7 635.1,835.8 	"/>
	<polygon class="st6" points="636,843.7 641,840.3 638.5,846.2 645,850.8 638.5,852.7 632.3,858.8 632.3,852.2 625.5,852.2 
		629.1,849.7 625.2,843.7 630.6,845.7 635.1,839.2 	"/>
</g>
<g>
	<polygon class="st3" points="653.5,2129.3 489.9,2129.3 489.9,2112.1 572.7,2077.7 653.5,2112.1 	"/>
	<polygon class="st4" points="653.5,2052.7 489.9,2052.7 489.9,2051.3 572.7,2017.1 653.5,2051.3 	"/>
	<polygon class="st1" points="572.7,2017.1 489.9,2050.8 489.9,2112.8 572.7,2077.7 	"/>
	<polygon class="st5" points="653.5,2050.8 572.7,2017.1 572.7,2077.7 653.5,2112.8 	"/>
	<polygon class="st3" points="537.1,2056.3 531.7,2059.9 534.4,2053.7 527.5,2048.7 534.6,2046.7 541.5,2040.1 541.5,2047.2 
		548.6,2047.2 544.7,2050.1 548.7,2056.3 543,2054.2 538.1,2061.2 	"/>
	<polygon class="st6" points="537.3,2054.6 533.4,2057.2 535.3,2052.6 530.2,2048.7 535.4,2047.2 540.5,2042.4 540.5,2047.7 
		545.9,2047.7 543,2049.8 546,2054.6 541.7,2052.8 538.1,2058.1 	"/>
	<rect x="545.8" y="2095.3" class="st1" width="25.4" height="33.9"/>
	<rect x="579.2" y="2095.3" class="st1" width="14.8" height="14"/>
	<polygon class="st3" points="604.8,2048.7 591.8,2040.1 598.3,2055.2 581.4,2067.4 599.3,2072.3 616.5,2088.2 616.5,2071.1 
		633.3,2071.2 623.5,2064.2 633.2,2048.7 619.2,2054.1 607.3,2037.1 	"/>
	<polygon class="st6" points="605.4,2052.2 595.8,2045.8 600.6,2057.2 588.1,2066.2 601,2069.8 613.5,2081.7 613.5,2068.8 
		626.3,2068.9 619.2,2063.7 626.5,2052.3 616.1,2056.2 607.3,2043.6 	"/>
	<path class="st9" d="M608.7,2047.7c-5.1,0-9.3-4.2-9.3-9.3c0-3.8,2.3-7,5.5-8.5c-0.2-0.6-0.4-1.3-0.4-2c0-0.6,0.1-1.2,0.3-1.8
		c-1.9-0.5-3.3-2.1-3.3-4.2c0-2,1.4-3.7,3.3-4.2c-0.1-0.4-0.2-0.8-0.2-1.3c0-2.2,1.8-4,4-4s4,1.8,4,4c0,1.8-1.2,3.3-2.8,3.8
		c0.2,0.5,0.3,1,0.3,1.6c0,0.1,0,0.2,0,0.3l0,0c3.1,0,5.6,2.5,5.6,5.6c0,1.3-0.4,2.5-1.2,3.4c2,1.7,3.3,4.3,3.3,7.1
		c0,0.3,0,0.7-0.1,1c0,0,0,0,0.1,0c4.5,0,8.1,3.6,8.1,8.1c0,4-2.9,7.3-6.6,8c0,0.2,0,0.4,0,0.6c0,3.5-2.8,6.3-6.3,6.3
		s-6.3-2.8-6.3-6.3c0-2.5,1.4-4.6,3.5-5.6c-0.3-0.9-0.5-1.8-0.5-2.8C609.5,2047.7,609.1,2047.7,608.7,2047.7z"/>
</g>
<g>
	<polygon class="st3" points="1740.5,1175.1 1576.9,1175.1 1576.9,1157.8 1659.7,1123.4 1740.5,1157.8 	"/>
	<polygon class="st4" points="1740.5,1098.4 1576.9,1098.4 1576.9,1097.1 1659.7,1062.8 1740.5,1097.1 	"/>
	<polygon class="st1" points="1659.7,1062.8 1576.9,1096.6 1576.9,1158.6 1659.7,1123.4 	"/>
	<polygon class="st5" points="1740.5,1096.6 1659.7,1062.8 1659.7,1123.4 1740.5,1158.6 	"/>
	<polygon class="st3" points="1624.1,1102.1 1618.7,1105.7 1621.4,1099.4 1614.5,1094.4 1621.6,1092.4 1628.5,1085.8 1628.5,1092.9 
		1635.6,1092.9 1631.7,1095.8 1635.7,1102.1 1630,1099.9 1625.1,1106.9 	"/>
	<polygon class="st6" points="1624.3,1100.3 1620.4,1102.9 1622.3,1098.3 1617.2,1094.4 1622.4,1092.9 1627.5,1088.2 1627.5,1093.4 
		1632.9,1093.4 1630,1095.6 1633,1100.3 1628.7,1098.6 1625.1,1103.8 	"/>
	<rect x="1632.8" y="1141.1" class="st1" width="25.4" height="33.9"/>
	<rect x="1666.2" y="1141.1" class="st1" width="14.8" height="14"/>
	<polygon class="st3" points="1691.8,1094.4 1678.8,1085.8 1685.3,1100.9 1668.4,1113.2 1686.3,1118.1 1703.5,1133.9 1703.5,1116.8 
		1720.3,1116.9 1710.5,1109.9 1720.2,1094.4 1706.2,1099.8 1694.3,1082.8 	"/>
	<polygon class="st6" points="1692.4,1097.9 1682.8,1091.6 1687.6,1102.9 1675.1,1111.9 1688,1115.6 1700.5,1127.4 1700.5,1114.6 
		1713.3,1114.7 1706.2,1109.4 1713.5,1098.1 1703.1,1101.9 1694.3,1089.3 	"/>
	<path class="st9" d="M1695.7,1093.4c-5.1,0-9.3-4.2-9.3-9.3c0-3.8,2.3-7,5.5-8.5c-0.2-0.6-0.4-1.3-0.4-2c0-0.6,0.1-1.2,0.3-1.8
		c-1.9-0.5-3.3-2.1-3.3-4.2c0-2,1.4-3.7,3.3-4.2c-0.1-0.4-0.2-0.8-0.2-1.3c0-2.2,1.8-4,4-4s4,1.8,4,4c0,1.8-1.2,3.3-2.8,3.8
		c0.2,0.5,0.3,1,0.3,1.6c0,0.1,0,0.2,0,0.3l0,0c3.1,0,5.6,2.5,5.6,5.6c0,1.3-0.4,2.5-1.2,3.4c2,1.7,3.3,4.3,3.3,7.1
		c0,0.3,0,0.7-0.1,1c0,0,0,0,0.1,0c4.5,0,8.1,3.6,8.1,8.1c0,4-2.9,7.3-6.6,8c0,0.2,0,0.4,0,0.6c0,3.5-2.8,6.3-6.3,6.3
		s-6.3-2.8-6.3-6.3c0-2.5,1.4-4.6,3.5-5.6c-0.3-0.9-0.5-1.8-0.5-2.8C1696.5,1093.4,1696.1,1093.4,1695.7,1093.4z"/>
</g>
<g>
	<polygon class="st3" points="1739.6,2046.4 1564,2046.4 1564,2018.2 1651.8,1990.8 1739.6,2018.2 	"/>
	<polygon class="st4" points="1739.6,1943.7 1564,1943.7 1564,1915.4 1651.8,1888.2 1739.6,1915.4 	"/>
	<polygon class="st1" points="1651.8,1888.2 1564,1914.9 1564,2018.9 1651.8,1990.8 	"/>
	<polygon class="st5" points="1739.6,1914.9 1651.8,1888.2 1651.8,1990.8 1739.6,2018.9 	"/>
	<polygon class="st3" points="1693.3,1927.4 1678.1,1917.4 1685.7,1935.2 1666,1949.3 1686.6,1955.1 1706.4,1973.6 1706.4,1953.6 
		1726.3,1953.7 1715,1945.4 1726.4,1927.6 1710,1933.7 1696.2,1913.8 	"/>
	<polygon class="st6" points="1694,1931.7 1682.8,1924.2 1688.4,1937.3 1673.8,1947.9 1688.9,1952.2 1703.4,1965.8 1703.4,1951.1 
		1718.4,1951.2 1710.1,1945.1 1718.6,1931.7 1706.5,1936.3 1696.2,1921.6 	"/>
	<polygon class="st3" points="1678.5,1966.6 1685.1,1962.2 1681.8,1969.9 1690.5,1976.2 1681.8,1978.7 1673.4,1986.8 1673.4,1978.1 
		1664.3,1978.2 1669.1,1974.4 1663.9,1966.6 1671.1,1969.3 1677.2,1960.6 	"/>
	<polygon class="st6" points="1678.1,1968.4 1683.1,1965.1 1680.6,1970.9 1687.1,1975.6 1680.6,1977.4 1674.4,1983.6 1674.4,1976.9 
		1667.6,1976.9 1671.2,1974.3 1667.3,1968.4 1672.7,1970.4 1677.2,1963.9 	"/>
	<rect x="1639.1" y="2012.4" class="st1" width="25.4" height="33.9"/>
	<path class="st9" d="M1708.8,1923.7c6.9,0,12.5-5.6,12.5-12.5c0-5.1-3.1-9.5-7.5-11.5c0.3-0.9,0.5-1.8,0.5-2.8
		c0-0.8-0.1-1.6-0.4-2.4c2.5-0.6,4.4-2.9,4.4-5.6s-1.9-5-4.4-5.6c0.2-0.5,0.3-1.1,0.3-1.7c0-3-2.4-5.5-5.5-5.5c-3,0-5.5,2.4-5.5,5.5
		c0,2.4,1.6,4.5,3.8,5.2c-0.3,0.7-0.4,1.4-0.4,2.1c0,0.1,0,0.3,0,0.4l0,0c-4.2,0-7.6,3.4-7.6,7.6c0,1.7,0.6,3.3,1.6,4.6
		c-2.7,2.3-4.5,5.8-4.5,9.6c0,0.4,0,0.9,0.1,1.3c0,0,0,0-0.1,0c-6,0-10.9,4.9-10.9,10.9c0,5.4,3.9,9.8,9,10.8c0,0.3,0,0.5,0,0.8
		c0,4.7,3.8,8.5,8.5,8.5s8.5-3.8,8.5-8.5c0-3.4-2-6.2-4.8-7.6c0.5-1.2,0.7-2.5,0.7-3.8C1707.7,1923.7,1708.3,1923.7,1708.8,1923.7z"
		/>
</g>
<g>
	<polygon class="st3" points="448,798.2 272.4,798.2 272.4,769.9 360.2,742.6 448,769.9 	"/>
	<polygon class="st4" points="448,695.4 272.4,695.4 272.4,667.2 360.2,639.9 448,667.2 	"/>
	<polygon class="st1" points="360.2,639.9 272.4,666.7 272.4,770.7 360.2,742.6 	"/>
	<polygon class="st5" points="448,666.7 360.2,639.9 360.2,742.6 448,770.7 	"/>
	<polygon class="st3" points="313.6,719.7 298.5,729.8 306,711.9 286.4,697.8 307.1,692.1 327,673.6 327,693.6 346.8,693.4 
		335.4,701.7 346.8,719.6 330.4,713.4 316.6,733.3 	"/>
	<polygon class="st6" points="314.4,714.4 303.1,721.9 308.8,708.8 294.2,698.3 309.3,693.9 324,680.3 324,695.2 338.9,695.1 
		330.5,701.2 339,714.4 326.9,709.9 316.6,724.6 	"/>
	<rect x="331.3" y="764.2" class="st1" width="25.4" height="33.9"/>
	<rect x="372.1" y="764.2" class="st1" width="25.4" height="20.7"/>
	<path class="st9" d="M309.7,686.6c-6.5,0-11.8-5.3-11.8-11.8c0-4.8,2.9-8.9,7-10.8c-0.3-0.8-0.5-1.7-0.5-2.6c0-0.8,0.1-1.5,0.4-2.2
		c-2.4-0.6-4.1-2.7-4.1-5.3c0-2.6,1.8-4.7,4.1-5.3c-0.2-0.5-0.3-1-0.3-1.6c0-2.8,2.3-5.1,5.1-5.1c2.8,0,5.1,2.3,5.1,5.1
		c0,2.3-1.5,4.2-3.6,4.9c0.2,0.6,0.4,1.3,0.4,2c0,0.1,0,0.3,0,0.4l0,0c4,0,7.2,3.2,7.2,7.2c0,1.6-0.6,3.1-1.5,4.3
		c2.6,2.2,4.2,5.4,4.2,9c0,0.4,0,0.8-0.1,1.2c0,0,0,0,0.1,0c5.7,0,10.3,4.6,10.3,10.3c0,5.1-3.6,9.3-8.4,10.1c0,0.3,0,0.5,0,0.8
		c0,4.4-3.6,8-8,8s-8-3.6-8-8c0-3.2,1.8-5.9,4.5-7.2c-0.4-1.1-0.7-2.3-0.7-3.6C310.7,686.6,310.2,686.6,309.7,686.6z"/>
</g>
<g>
	<polygon class="st3" points="1475.5,744.9 1299.9,744.9 1299.9,673.7 1387.7,646.3 1475.5,673.7 	"/>
	<polygon class="st4" points="1475.5,642.2 1299.9,642.2 1299.9,622.7 1387.7,595.4 1475.5,622.7 	"/>
	<polygon class="st1" points="1387.7,595.4 1299.9,622.2 1299.9,674.4 1387.7,646.3 	"/>
	<polygon class="st5" points="1475.5,622.2 1387.7,595.4 1387.7,646.3 1475.5,674.4 	"/>
	<rect x="1338.8" y="710.9" class="st1" width="25.4" height="33.9"/>
	<rect x="1376" y="712.1" class="st1" width="14.8" height="14"/>
	<path class="st9" d="M1427.6,576.3c5.1,0,9.3-4.2,9.3-9.3c0-3.8-2.3-7-5.5-8.5c0.2-0.6,0.4-1.3,0.4-2c0-0.6-0.1-1.2-0.3-1.8
		c1.9-0.5,3.3-2.1,3.3-4.2c0-2-1.4-3.7-3.3-4.2c0.1-0.4,0.2-0.8,0.2-1.3c0-2.2-1.8-4-4-4s-4,1.8-4,4c0,1.8,1.2,3.3,2.8,3.8
		c-0.2,0.5-0.3,1-0.3,1.6c0,0.1,0,0.2,0,0.3l0,0c-3.1,0-5.6,2.5-5.6,5.6c0,1.3,0.4,2.5,1.2,3.4c-2,1.7-3.3,4.3-3.3,7.1
		c0,0.3,0,0.7,0.1,1c0,0,0,0-0.1,0c-4.5,0-8.1,3.6-8.1,8.1c0,4,2.9,7.3,6.6,8c0,0.2,0,0.4,0,0.6c0,3.5,2.8,6.3,6.3,6.3
		s6.3-2.8,6.3-6.3c0-2.5-1.4-4.6-3.5-5.6c0.3-0.9,0.5-1.8,0.5-2.8C1426.8,576.3,1427.2,576.3,1427.6,576.3z"/>
	<rect x="1410" y="587.1" class="st1" width="25.4" height="48.7"/>
</g>
<polygon class="st3" points="549.3,1485.2 385.7,1485.2 385.7,1467.9 468.5,1433.6 549.3,1467.9 "/>
<polygon class="st4" points="549.3,1408.4 385.7,1408.4 385.7,1407.2 468.5,1372.9 549.3,1407.2 "/>
<polygon class="st7" points="468.5,1372.9 385.7,1406.7 385.7,1468.7 468.5,1433.6 "/>
<polygon class="st8" points="549.3,1406.7 468.5,1372.9 468.5,1433.6 549.3,1468.7 "/>
<polygon class="st8" points="420.1,1430.2 411.1,1436.2 415.6,1425.6 403.8,1417.1 416.3,1413.7 428.3,1402.6 428.3,1414.6 
	440.1,1414.4 433.2,1419.4 440,1430.2 430.2,1426.4 421.9,1438.3 "/>
<polygon class="st6" points="420.6,1427.1 413.8,1431.6 417.2,1423.7 408.5,1417.3 417.5,1414.8 426.3,1406.6 426.3,1415.4 
	435.2,1415.4 430.2,1419.1 435.3,1427.1 428,1424.3 421.9,1433.2 "/>
<path class="st9" d="M504.4,1372.2c3.6,0,6.5-2.9,6.5-6.5c0-2.7-1.6-4.9-3.9-6c0.2-0.4,0.3-0.9,0.3-1.4c0-0.4-0.1-0.9-0.2-1.2
	c1.3-0.3,2.3-1.5,2.3-2.9s-1-2.6-2.3-2.9c0.1-0.3,0.2-0.6,0.2-0.9c0-1.6-1.3-2.8-2.8-2.8c-1.6,0-2.8,1.3-2.8,2.8
	c0,1.3,0.8,2.3,2,2.7c-0.1,0.3-0.2,0.7-0.2,1.1c0,0.1,0,0.1,0,0.2l0,0c-2.2,0-4,1.8-4,4c0,0.9,0.3,1.7,0.8,2.4c-1.4,1.2-2.3,3-2.3,5
	c0,0.2,0,0.5,0,0.7l0,0c-3.1,0-5.7,2.6-5.7,5.7c0,2.8,2,5.1,4.7,5.6c0,0.1,0,0.3,0,0.4c0,2.4,2,4.4,4.4,4.4s4.4-2,4.4-4.4
	c0-1.7-1-3.3-2.5-4c0.2-0.6,0.4-1.3,0.4-2C503.8,1372.2,504.1,1372.2,504.4,1372.2z"/>
<rect x="492" y="1379.7" class="st7" width="17.9" height="34.3"/>
<rect x="441.6" y="1459.4" class="st6" width="25.4" height="25.8"/>
<g>
	<g>
		<polygon class="st3" points="1740,1592.7 1576.4,1592.7 1576.4,1575.4 1659.2,1541.2 1740,1575.4 		"/>
		<polygon class="st4" points="1740,1516.1 1576.4,1516.1 1576.4,1514.7 1659.2,1480.4 1740,1514.7 		"/>
		<polygon class="st1" points="1659.2,1480.4 1576.4,1514.2 1576.4,1576.2 1659.2,1541.2 		"/>
		<polygon class="st5" points="1740,1514.2 1659.2,1480.4 1659.2,1541.2 1740,1576.2 		"/>
		<polygon class="st5" points="1610.8,1537.7 1601.8,1543.7 1606.3,1533.2 1594.5,1524.7 1607,1521.2 1619,1510.2 1619,1522.2 
			1630.8,1522.1 1623.9,1526.9 1630.7,1537.7 1620.9,1533.9 1612.6,1545.8 		"/>
		<polygon class="st6" points="1611.3,1534.7 1604.5,1539.2 1607.9,1531.2 1599.2,1524.8 1608.2,1522.3 1617,1514.2 1617,1523.1 
			1625.9,1522.9 1620.9,1526.7 1626,1534.7 1618.7,1531.8 1612.6,1540.7 		"/>
		<path class="st9" d="M1695.1,1479.7c3.6,0,6.5-2.9,6.5-6.5c0-2.7-1.6-4.9-3.9-6c0.2-0.4,0.3-0.9,0.3-1.4c0-0.4-0.1-0.9-0.2-1.2
			c1.3-0.3,2.3-1.5,2.3-2.9s-1-2.6-2.3-2.9c0.1-0.3,0.2-0.6,0.2-0.9c0-1.6-1.3-2.8-2.8-2.8c-1.6,0-2.8,1.3-2.8,2.8
			c0,1.3,0.8,2.3,2,2.7c-0.1,0.3-0.2,0.7-0.2,1.1c0,0.1,0,0.1,0,0.2l0,0c-2.2,0-4,1.8-4,4c0,0.9,0.3,1.7,0.8,2.4
			c-1.4,1.2-2.3,3-2.3,5c0,0.2,0,0.5,0,0.7l0,0c-3.1,0-5.7,2.6-5.7,5.7c0,2.8,2,5.1,4.7,5.6c0,0.1,0,0.3,0,0.4c0,2.4,2,4.4,4.4,4.4
			s4.4-2,4.4-4.4c0-1.7-1-3.3-2.5-4c0.2-0.6,0.4-1.3,0.4-2C1694.5,1479.7,1694.8,1479.7,1695.1,1479.7z"/>
		<rect x="1682.7" y="1487.2" class="st1" width="17.9" height="34.3"/>
	</g>
	<rect x="1632.3" y="1566.9" class="st1" width="25.4" height="25.8"/>
</g>
<g>
	<polygon class="st10" points="624.1,1171.2 687.1,1062.1 750,1171.2 	"/>
	<rect x="676.7" y="1160.9" class="st11" width="20.7" height="32.3"/>
</g>
<g>
	<polygon class="st10" points="336.1,1712.2 399.1,1603.1 462,1712.2 	"/>
	<rect x="388.7" y="1701.8" class="st11" width="20.7" height="32.3"/>
</g>
<g>
	<polygon class="st10" points="331.3,1955.1 379.8,1871.2 428.2,1955.1 	"/>
	<rect x="371.8" y="1947.1" class="st11" width="15.9" height="24.9"/>
</g>
<g>
	<polygon class="st10" points="649.6,1438.2 685.2,1376.6 720.7,1438.2 	"/>
	<rect x="679.3" y="1431.9" class="st11" width="11.7" height="18.2"/>
</g>
<g>
	<polygon class="st10" points="1449.5,1064.7 1485.1,1003.2 1520.6,1064.7 	"/>
	<rect x="1479.2" y="1058.6" class="st11" width="11.7" height="18.2"/>
</g>
<g>
	<polygon class="st10" points="258.7,995.4 294.2,933.8 329.8,995.4 	"/>
	<rect x="288.3" y="989.2" class="st11" width="11.7" height="18.2"/>
</g>
<g>
	<polygon class="st10" points="1554.3,-128.2 1590,-189.8 1625.5,-128.2 	"/>
	<rect x="1584.1" y="-134.4" class="st11" width="11.7" height="18.2"/>
</g>
<g>
	<polygon class="st10" points="1399.9,-639.2 1435.5,-700.8 1471,-639.2 	"/>
	<rect x="1429.6" y="-645.4" class="st11" width="11.7" height="18.2"/>
</g>
<g>
	<polygon class="st10" points="1397.2,1708.6 1449.6,1617.8 1501.9,1708.6 	"/>
	<rect x="1441" y="1699.7" class="st11" width="17.2" height="26.9"/>
</g>
<g>
	<polygon class="st10" points="1485.1,948.6 1548.1,839.6 1611,948.6 	"/>
	<rect x="1537.7" y="938.3" class="st11" width="20.7" height="32.3"/>
</g>
<path class="st2" d="M2842.7,382.8H2638c-58.6,0-106.1-47.5-106.1-106.1v-73.5c0-58.6,47.5-106.1,106.1-106.1h204.6
	c58.6,0,106.1,47.5,106.1,106.1v73.5C2948.8,335.2,2901.3,382.8,2842.7,382.8z"/>
<path class="st2" d="M2626.6,375.6c0,0,1,29.2-21.4,35.1c0,0,33.1,0.6,44.8-28L2626.6,375.6z"/>
<path class="st2" d="M2842.7-136.9H2638c-58.6,0-106.1-47.5-106.1-106.1v-73.5c0-58.6,47.5-106.1,106.1-106.1h204.6
	c58.6,0,106.1,47.5,106.1,106.1v73.5C2948.8-184.4,2901.3-136.9,2842.7-136.9z"/>
<path class="st2" d="M2634.6-139.9c0,0,0.2,25.5-20.9,33.9c0,0,50.7,8.4,61-34.7L2634.6-139.9z"/>
<path class="st2" d="M3027.2,896h-204.6c-58.6,0-106.1,47.5-106.1,106.1v73.5c0,57.4,45.6,104.1,102.5,106.1
	c-0.7,6.9-4,24.3-20.8,31c0,0,47.7,7.9,59.9-31h169.1c58.6,0,106.1-47.5,106.1-106.1v-73.5C3133.3,943.5,3085.8,896,3027.2,896z"/>
<path class="st2" d="M1849.1,150.8h-152.3c-43.6,0-79,35.4-79,79v54.7c0,42.7,33.9,77.5,76.3,78.9c-0.5,5.1-3,18.1-15.5,23.1
	c0,0,35.5,5.9,44.6-23h125.9c43.6,0,79-35.4,79-79v-54.7C1928.1,186.2,1892.7,150.8,1849.1,150.8z"/>
<path class="st2" d="M152.1,1111.6l176.3,0c50.5,0,91.4,40.9,91.4,91.4l0,63.3c0,49.4-39.2,89.7-88.3,91.4c0.6,6,3.4,21,17.9,26.7
	c0,0-41.1,6.8-51.6-26.7l-145.7,0c-50.5,0-91.4-40.9-91.4-91.4l0-63.3C60.6,1152.6,101.6,1111.6,152.1,1111.6z"/>
<path class="st12" d="M-436.1,469.1c0,0-72.3-31.8-80.3,37.6c-8,69.4,53.5,16.2,53.5,58.9s50.9,74,69.6,49c18.7-25-2.7-73,18.7-87.8
	c21.4-14.8,57.2-38.3,28.7-67.4c-28.6-29.1-46.3,20.5-60.4,18.3C-420.2,475.4-436.1,469.1-436.1,469.1z"/>
<path d="M-473.1,531.2l-17.9-41.5l5.8-16.2c1.8,0.6,3.8,0.9,5.8,0.9c10.6,0,19.1-8.6,19.1-19.1c0-10.6-8.6-19.1-19.1-19.1
	c-10.6,0-19.1,8.6-19.1,19.1c0,8.2,5.2,15.2,12.4,17.9l-5.4,15.2l-0.5-1.1l0-0.1l-37-32.1l4.6-38l-1-0.1l-4.7,38.5l37.2,32.3l0.9,2
	l-14.8,41.5l-58.9,16.1l0.3,1l58.5-16v51.1h1v-51.6l14.5-40.7l17.8,41.1h29.9v-1H-473.1z"/>
<path class="st2" d="M-490.8,461.4c0,0,14-6.6,14.9,6.7C-475.9,468.1-476.4,460.7-490.8,461.4z"/>
<rect x="119.7" y="1182.7" class="st13" width="241.1" height="98.3"/>
<text transform="matrix(1 0 0 1 119.6531 1214.9366)"><tspan x="0" y="0" class="st14 st15">Every day an average of 42 500 people </tspan><tspan x="0" y="22" class="st14 st15">have to leave their homes due to war, </tspan><tspan x="0" y="44" class="st14 st15">conflict or human rights violations.</tspan></text>
<rect x="1681.8" y="234.5" class="st13" width="182.3" height="48"/>
<text transform="matrix(1 0 0 1 1681.7795 244.6845)"><tspan x="0" y="0" class="st14 st15">50% of the world&apos;s refugees </tspan><tspan x="0" y="22" class="st14 st15">are under 18 years old.</tspan></text>
<rect x="2665.6" y="171.2" class="st13" width="182.3" height="291.8"/>
<text transform="matrix(1 0 0 1 2665.6394 184.3085)"><tspan x="0" y="0" class="st14" style="font-size:18px;">50% of the world&apos;s ref</tspan><tspan x="165.7" y="0" class="st14" style="font-size:18px;">-</tspan><tspan x="0" y="22" class="st14" style="font-size:18px;">ugees are under 18 </tspan><tspan x="0" y="44" class="st14" style="font-size:18px;">years old.</tspan></text>
</svg>
