<?xml version="1.0" encoding="utf-8"?>
<!-- Generator: Adobe Illustrator 19.1.0, SVG Export Plug-In . SVG Version: 6.00 Build 0)  -->
<!DOCTYPE svg PUBLIC "-//W3C//DTD SVG 1.1//EN" "http://www.w3.org/Graphics/SVG/1.1/DTD/svg11.dtd">
<svg version="1.1" xmlns="http://www.w3.org/2000/svg" xmlns:xlink="http://www.w3.org/1999/xlink" x="0px" y="0px"
	 viewBox="0 0 2000 1500" style="enable-background:new 0 0 2000 1500;" xml:space="preserve">
<style type="text/css">
	.st0{fill:#E88F7E;}
	.st1{fill:#232323;}
	.st2{fill:#FCFC4C;}
	.st3{fill:#C14727;}
	.st4{fill:#494848;}
	.st5{opacity:0.75;fill:#CEC58E;}
	.st6{fill:#474646;}
	.st7{fill:#FFFFFF;}
	.st8{fill:#D4DFE8;}
	.st9{fill:none;stroke:#ACC0CC;stroke-width:10;stroke-linecap:round;stroke-miterlimit:10;}
	.st10{fill:none;stroke:#E88F7E;stroke-width:15;stroke-linecap:round;stroke-miterlimit:10;}
	.st11{fill:#F4D731;}
	.st12{fill:#8E8D8D;}
	.st13{fill:#ACC0CC;}
	.st14{fill:#A3A3A3;}
	.st15{fill:#6D6C6C;}
	.st16{fill:#1A1A1A;}
	.st17{fill:#E6E6E6;}
	.st18{fill:#9B9334;}
	.st19{fill:#725225;}
	.st20{display:none;}
	.st21{display:inline;fill:#D4DFE8;}
	.st22{display:inline;}
	.st23{fill:none;stroke:#E88F7E;stroke-width:10;stroke-linecap:round;stroke-miterlimit:10;}
</style>
<g id="Layer_1">
	<path class="st0" d="M4154-469.7c0-10.4-6.3-14.8-12.2-17.6c5.9-2.8,12.2-6.8,12.2-17.2c0-1.4-0.1-3.4-0.3-3.4H4137h-8h-0.6h-3.4
		h-278.2h-2.1h-0.9h-3.8h-18c0,0,0,0.2,0,0.6c0,10.4,6.3,14.6,12.2,17.4c-5.9,2.8-12.2,7.1-12.2,17.5c0,10.4,6.3,14.7,12.2,17.6
		c-5.9,2.8-12.2,7.2-12.2,17.6c0,10.4,6.3,14.8,12.2,17.6c-5.9,2.8-12.2,7.2-12.2,17.6c0,10.4,6.3,14.8,12.2,17.6
		c-5.9,2.8-12.2,7.2-12.2,17.6c0,10.4,6.3,14.8,12.2,17.6c-5.9,2.8-12.2,7.2-12.2,17.6c0,10.4,6.3,14.8,12.2,17.6
		c-5.9,2.8-12.2,7-12.2,17.5c0,2.5,0.4,5.3,1,6.4h17h10.6c0.1,0.1,0.2,0,0.2,0h2.8h0.2h270.9h0.4h3.6c0.1,0,0.3,0.1,0.4,0h7.8h16.7
		c0.2-1.1,0.3-2.2,0.3-3.6c0-10.4-6.3-14.7-12.2-17.5c5.9-2.8,12.2-7.2,12.2-17.6c0-10.4-6.3-14.8-12.2-17.6
		c5.9-2.8,12.2-7.2,12.2-17.6c0-10.4-6.3-14.8-12.2-17.6c5.9-2.8,12.2-7.2,12.2-17.6c0-10.4-6.3-14.8-12.2-17.6
		c5.9-2.8,12.2-7.2,12.2-17.6c0-10.4-6.3-14.8-12.2-17.6C4147.7-454.9,4154-459.3,4154-469.7z"/>
	<path class="st1" d="M2992.8-1157.6h-1.5c-7,0-12.7-5.7-12.7-12.7v-67.3c0-7,5.7-12.7,12.7-12.7h1.5c7,0,12.7,5.7,12.7,12.7v67.3
		C3005.5-1163.3,2999.8-1157.6,2992.8-1157.6z"/>
	<path class="st1" d="M2652.8-1157.6h-1.5c-7,0-12.7-5.7-12.7-12.7v-67.3c0-7,5.7-12.7,12.7-12.7h1.5c7,0,12.7,5.7,12.7,12.7v67.3
		C2665.5-1163.3,2659.8-1157.6,2652.8-1157.6z"/>
	<path class="st1" d="M2992.8-688.6h-1.5c-7,0-12.7-5.7-12.7-12.7v-67.3c0-7,5.7-12.7,12.7-12.7h1.5c7,0,12.7,5.7,12.7,12.7v67.3
		C3005.5-694.3,2999.8-688.6,2992.8-688.6z"/>
	<path class="st1" d="M2652.8-688.6h-1.5c-7,0-12.7-5.7-12.7-12.7v-67.3c0-7,5.7-12.7,12.7-12.7h1.5c7,0,12.7,5.7,12.7,12.7v67.3
		C2665.5-694.3,2659.8-688.6,2652.8-688.6z"/>
	<path class="st2" d="M2724.1-398.9h-38.5c-3,0-5.4-2.4-5.4-5.4v-1.6c0-3,2.4-5.4,5.4-5.4h38.5c3,0,5.4,2.4,5.4,5.4v1.6
		C2729.4-401.2,2727-398.9,2724.1-398.9z"/>
	<path class="st2" d="M2959.1-398.9h-38.5c-3,0-5.4-2.4-5.4-5.4v-1.6c0-3,2.4-5.4,5.4-5.4h38.5c3,0,5.4,2.4,5.4,5.4v1.6
		C2964.4-401.2,2962.1-398.9,2959.1-398.9z"/>
	<path class="st1" d="M2652.8-483.3h-1.5c-7,0-12.7-5.7-12.7-12.7v-67.3c0-7,5.7-12.7,12.7-12.7h1.5c7,0,12.7,5.7,12.7,12.7v67.3
		C2665.5-488.9,2659.8-483.3,2652.8-483.3z"/>
	<path class="st1" d="M2992.8-483.3h-1.5c-7,0-12.7-5.7-12.7-12.7v-67.3c0-7,5.7-12.7,12.7-12.7h1.5c7,0,12.7,5.7,12.7,12.7v67.3
		C3005.5-488.9,2999.8-483.3,2992.8-483.3z"/>
	<path class="st3" d="M2652.2-807c-0.1-1-0.2-2-0.2-3.1V-441c0,19.9,14.2,36,31.1,36h12.5h253.7h12.5c16.9,0,30.1-16.1,30.1-36
		v-366.2c0,0.1,0,0.2,0,0.2H2652.2z"/>
	<path class="st3" d="M2961.9-1302h-278.7c-16.9,0-31.1,15.8-31.1,35.7v350.9c0-0.4,0-0.6,0-0.6h18.4h3.9h0.9h2.2h284.9h3.5h0.6h8.2
		h17.1c0.2,0,0.3,2,0.3,3.4v-353.7C2992-1286.2,2978.8-1302,2961.9-1302z"/>
	<path class="st4" d="M2974.6-916h-8.2h-0.6h-3.5h-284.9h-2.2h-0.9h-3.9H2652c0,0,0,0.2,0,0.6c0,10.4,6.5,14.6,12.5,17.4
		c-6,2.8-12.5,7.1-12.5,17.5c0,10.4,6.5,14.7,12.5,17.6c-6,2.8-12.5,7.2-12.5,17.6c0,10.4,6.5,14.8,12.5,17.6
		c-6,2.8-12.5,7.2-12.5,17.6c0,1.1,0.1,2.1,0.2,3.1H2992c0,0,0-0.1,0-0.2c0-10.4-6.5-14.8-12.5-17.6c6-2.8,12.5-7.2,12.5-17.6
		c0-10.4-6.5-14.8-12.5-17.6c6-2.8,12.5-7.2,12.5-17.6c0-10.4-6.5-14.8-12.5-17.6c6-2.8,12.5-6.8,12.5-17.2c0-1.4-0.1-3.4-0.3-3.4
		H2974.6z"/>
	<rect x="-0.3" class="st5" width="2000" height="1500"/>
	<rect x="797.8" y="-1.1" class="st6" width="403.8" height="1502.1"/>
	<g>
		<rect x="994" class="st7" width="12" height="30"/>
		<path class="st7" d="M1006,1405h-12v-58h12V1405z M1006,1280h-12v-58h12V1280z M1006,1155h-12v-58h12V1155z M1006,1030h-12v-58h12
			V1030z M1006,905h-12v-58h12V905z M1006,780h-12v-58h12V780z M1006,655h-12v-58h12V655z M1006,530h-12v-58h12V530z M1006,405h-12
			v-58h12V405z M1006,280h-12v-58h12V280z M1006,155h-12V97h12V155z"/>
		<rect x="994" y="1470" class="st7" width="12" height="30"/>
	</g>
	<g>
		<rect x="820" class="st7" width="12" height="1500"/>
		<rect x="1168" class="st7" width="12" height="1500"/>
	</g>
	<path class="st8" d="M2949-456.1c0-5.7-4.1-9.9-9.8-9.9h-233.5c-5.7,0-10.8,4.3-10.8,9.9v49.5c0,0.6,0.6,1.1,0.6,1.6h253.7
		c0.1-0.5-0.4-1.1-0.4-1.6V-456.1z"/>
	<g>
		<path class="st8" d="M2864.2-1160.3h-84.4c-10.9,0-19.8-8.9-19.8-19.8v-47.7c0-10.9,8.9-19.8,19.8-19.8h84.4
			c10.9,0,19.8,8.9,19.8,19.8v47.7C2884-1169.1,2875.1-1160.3,2864.2-1160.3z"/>
		<line class="st9" x1="2780.1" y1="-1193.4" x2="2843.3" y2="-1231"/>
		<line class="st9" x1="2798.1" y1="-1175.4" x2="2861.3" y2="-1213"/>
	</g>
	<path class="st2" d="M2121.1-418.9h-38.5c-3,0-5.4-2.4-5.4-5.4v-1.6c0-3,2.4-5.4,5.4-5.4h38.5c3,0,5.4,2.4,5.4,5.4v1.6
		C2126.4-421.2,2124-418.9,2121.1-418.9z"/>
	<path class="st2" d="M2356.1-418.9h-38.5c-3,0-5.4-2.4-5.4-5.4v-1.6c0-3,2.4-5.4,5.4-5.4h38.5c3,0,5.4,2.4,5.4,5.4v1.6
		C2361.4-421.2,2359.1-418.9,2356.1-418.9z"/>
	<path class="st1" d="M2049.8-503.3h-1.5c-7,0-12.7-5.7-12.7-12.7v-67.3c0-7,5.7-12.7,12.7-12.7h1.5c7,0,12.7,5.7,12.7,12.7v67.3
		C2062.5-508.9,2056.8-503.3,2049.8-503.3z"/>
	<path class="st1" d="M2389.8-503.3h-1.5c-7,0-12.7-5.7-12.7-12.7v-67.3c0-7,5.7-12.7,12.7-12.7h1.5c7,0,12.7,5.7,12.7,12.7v67.3
		C2402.5-508.9,2396.8-503.3,2389.8-503.3z"/>
	<path class="st1" d="M2389.8-754.3h-1.5c-7,0-12.7-5.7-12.7-12.7v-67.3c0-7,5.7-12.7,12.7-12.7h1.5c7,0,12.7,5.7,12.7,12.7v67.3
		C2402.5-759.9,2396.8-754.3,2389.8-754.3z"/>
	<path class="st1" d="M2049.8-754.3h-1.5c-7,0-12.7-5.7-12.7-12.7v-67.3c0-7,5.7-12.7,12.7-12.7h1.5c7,0,12.7,5.7,12.7,12.7v67.3
		C2062.5-759.9,2056.8-754.3,2049.8-754.3z"/>
	<path class="st3" d="M2358.9-1189h-278.7c-16.9,0-31.1,13.7-31.1,30.6v702.7c0,16.9,14.2,30.6,31.1,30.6h12.5h253.7h12.5
		c16.9,0,30.1-13.7,30.1-30.6v-702.7C2389-1175.3,2375.8-1189,2358.9-1189z"/>
	<path class="st8" d="M2346-476.1c0-5.7-4.1-9.9-9.8-9.9h-233.5c-5.7,0-10.8,4.3-10.8,9.9v49.5c0,0.6,0.6,1.1,0.6,1.6h253.7
		c0.1-0.5-0.4-1.1-0.4-1.6V-476.1z"/>
	<g>
		<path class="st8" d="M2261.2-1022.3h-84.4c-10.9,0-19.8-8.9-19.8-19.8v-47.7c0-10.9,8.9-19.8,19.8-19.8h84.4
			c10.9,0,19.8,8.9,19.8,19.8v47.7C2281-1031.1,2272.1-1022.3,2261.2-1022.3z"/>
		<line class="st9" x1="2177.1" y1="-1055.4" x2="2240.3" y2="-1093"/>
		<line class="st9" x1="2195.1" y1="-1037.4" x2="2258.3" y2="-1075"/>
	</g>
	<line class="st10" x1="2154.5" y1="-916" x2="2154.5" y2="-671"/>
	<line class="st10" x1="2278.5" y1="-916" x2="2278.5" y2="-671"/>
	<line class="st10" x1="2759.5" y1="-735" x2="2759.5" y2="-550"/>
	<line class="st10" x1="2883.5" y1="-735" x2="2883.5" y2="-550"/>
	<line class="st10" x1="2759.5" y1="-1103" x2="2759.5" y2="-984"/>
	<line class="st10" x1="2883.5" y1="-1103" x2="2883.5" y2="-984"/>
	<g>
		<path class="st1" d="M3409.8-1157.6h-1.5c-7,0-12.7-5.7-12.7-12.7v-67.3c0-7,5.7-12.7,12.7-12.7h1.5c7,0,12.7,5.7,12.7,12.7v67.3
			C3422.5-1163.3,3416.8-1157.6,3409.8-1157.6z"/>
		<path class="st1" d="M3069.8-1157.6h-1.5c-7,0-12.7-5.7-12.7-12.7v-67.3c0-7,5.7-12.7,12.7-12.7h1.5c7,0,12.7,5.7,12.7,12.7v67.3
			C3082.5-1163.3,3076.8-1157.6,3069.8-1157.6z"/>
		<path class="st1" d="M3409.8-745h-1.5c-7,0-12.7-5.7-12.7-12.7V-825c0-7,5.7-12.7,12.7-12.7h1.5c7,0,12.7,5.7,12.7,12.7v67.3
			C3422.5-750.7,3416.8-745,3409.8-745z"/>
		<path class="st1" d="M3069.8-745h-1.5c-7,0-12.7-5.7-12.7-12.7V-825c0-7,5.7-12.7,12.7-12.7h1.5c7,0,12.7,5.7,12.7,12.7v67.3
			C3082.5-750.7,3076.8-745,3069.8-745z"/>
		<path class="st11" d="M3141.1-398.9h-38.5c-3,0-5.4-2.4-5.4-5.4v-1.6c0-3,2.4-5.4,5.4-5.4h38.5c3,0,5.4,2.4,5.4,5.4v1.6
			C3146.4-401.2,3144-398.9,3141.1-398.9z"/>
		<path class="st11" d="M3376.1-398.9h-38.5c-3,0-5.4-2.4-5.4-5.4v-1.6c0-3,2.4-5.4,5.4-5.4h38.5c3,0,5.4,2.4,5.4,5.4v1.6
			C3381.4-401.2,3379.1-398.9,3376.1-398.9z"/>
		<path class="st1" d="M3069.8-483.3h-1.5c-7,0-12.7-5.7-12.7-12.7v-67.3c0-7,5.7-12.7,12.7-12.7h1.5c7,0,12.7,5.7,12.7,12.7v67.3
			C3082.5-488.9,3076.8-483.3,3069.8-483.3z"/>
		<path class="st1" d="M3409.8-483.3h-1.5c-7,0-12.7-5.7-12.7-12.7v-67.3c0-7,5.7-12.7,12.7-12.7h1.5c7,0,12.7,5.7,12.7,12.7v67.3
			C3422.5-488.9,3416.8-483.3,3409.8-483.3z"/>
		<path class="st3" d="M3069.2-865c-0.1-2-0.2-2.7-0.2-4v422.8c0,22.8,14.2,41.2,31.1,41.2h12.5h253.7h12.5
			c16.9,0,30.1-18.5,30.1-41.2v-419.5c0,0.1,0,0.7,0,0.7H3069.2z"/>
		<path class="st3" d="M3378.9-1302h-278.7c-16.9,0-31.1,15.8-31.1,35.7v295.9c0-0.4,0-0.6,0-0.6h18.4h3.9h0.9h2.2h284.9h3.5h0.6
			h8.2h17.1c0.2,0,0.3,2,0.3,3.4v-298.7C3409-1286.2,3395.8-1302,3378.9-1302z"/>
		<path class="st4" d="M3383.4-916h-0.6h-3.5h-284.9h-2.2h-0.9h-3.9h-9.5c-4.7,2.9-8.9,7.4-8.9,15.7c0,10.4,6.5,14.8,12.5,17.6
			c-6,2.8-12.5,7.2-12.5,17.6c0,1.1,0.1,2.1,0.2,3.1H3409c0,0,0-0.1,0-0.2c0-10.4-6.5-14.8-12.5-17.6c6-2.8,12.5-7.2,12.5-17.6
			c0-10.4-6.5-14.8-12.5-17.6c0.6-0.3,1.2-0.6,1.8-0.9h-6.7H3383.4z"/>
		<path class="st4" d="M3391.6-971h-8.2h-0.6h-3.5h-284.9h-2.2h-0.9h-3.9H3069c0,0,0,0.2,0,0.6c0,10.4,6.5,14.6,12.5,17.4
			c-6,2.8-12.5,7.1-12.5,17.5c0,10.4,6.5,14.7,12.5,17.6c-1.2,0.6-2.4,1.2-3.6,1.9h9.5h3.9h0.9h2.2h284.9h3.5h0.6h8.2h6.7
			c5.4-2.9,10.7-7.4,10.7-16.7c0-10.4-6.5-14.8-12.5-17.6c6-2.8,12.5-6.8,12.5-17.2c0-1.4-0.1-3.4-0.3-3.4H3391.6z"/>
		<path class="st8" d="M3366-456.1c0-5.7-4.1-9.9-9.8-9.9h-233.5c-5.7,0-10.8,4.3-10.8,9.9v49.5c0,0.6,0.6,1.1,0.6,1.6h253.7
			c0.1-0.5-0.4-1.1-0.4-1.6V-456.1z"/>
		<g>
			<path class="st8" d="M3281.2-1160.3h-84.4c-10.9,0-19.8-8.9-19.8-19.8v-47.7c0-10.9,8.9-19.8,19.8-19.8h84.4
				c10.9,0,19.8,8.9,19.8,19.8v47.7C3301-1169.1,3292.1-1160.3,3281.2-1160.3z"/>
			<line class="st9" x1="3197.1" y1="-1193.4" x2="3260.3" y2="-1231"/>
			<line class="st9" x1="3215.1" y1="-1175.4" x2="3278.3" y2="-1213"/>
		</g>
		<line class="st10" x1="3176.5" y1="-801" x2="3176.5" y2="-550"/>
		<line class="st10" x1="3300.5" y1="-801" x2="3300.5" y2="-550"/>
		<line class="st10" x1="3176.5" y1="-1103" x2="3176.5" y2="-1025"/>
		<line class="st10" x1="3300.5" y1="-1103" x2="3300.5" y2="-1025"/>
		<path class="st0" d="M3238.8-952h0.9C3239.4-952,3239.1-952,3238.8-952z"/>
		<path class="st0" d="M3523.4-952h0.6C3523.8-952,3523.6-952,3523.4-952z"/>
	</g>
	<g>
		<path class="st1" d="M2741.2,392.4h-1.5c-7,0-12.7-5.7-12.7-12.7v-67.3c0-7,5.7-12.7,12.7-12.7h1.5c7,0,12.7,5.7,12.7,12.7v67.3
			C2754,386.7,2748.3,392.4,2741.2,392.4z"/>
		<path class="st1" d="M2401.2,392.4h-1.5c-7,0-12.7-5.7-12.7-12.7v-67.3c0-7,5.7-12.7,12.7-12.7h1.5c7,0,12.7,5.7,12.7,12.7v67.3
			C2414,386.7,2408.3,392.4,2401.2,392.4z"/>
		<path class="st1" d="M2741.2,805h-1.5c-7,0-12.7-5.7-12.7-12.7V725c0-7,5.7-12.7,12.7-12.7h1.5c7,0,12.7,5.7,12.7,12.7v67.3
			C2754,799.3,2748.3,805,2741.2,805z"/>
		<path class="st1" d="M2401.2,805h-1.5c-7,0-12.7-5.7-12.7-12.7V725c0-7,5.7-12.7,12.7-12.7h1.5c7,0,12.7,5.7,12.7,12.7v67.3
			C2414,799.3,2408.3,805,2401.2,805z"/>
		<path class="st11" d="M2472.6,1154.3h-38.5c-3,0-5.4-2.4-5.4-5.4v-4.8c0-3,2.4-5.4,5.4-5.4h38.5c3,0,5.4,2.4,5.4,5.4v4.8
			C2477.9,1151.9,2475.5,1154.3,2472.6,1154.3z"/>
		<path class="st11" d="M2707.6,1154.3h-38.5c-3,0-5.4-2.4-5.4-5.4v-4.8c0-3,2.4-5.4,5.4-5.4h38.5c3,0,5.4,2.4,5.4,5.4v4.8
			C2712.9,1151.9,2710.5,1154.3,2707.6,1154.3z"/>
		<path class="st1" d="M2401.2,1066.7h-1.5c-7,0-12.7-5.7-12.7-12.7v-67.3c0-7,5.7-12.7,12.7-12.7h1.5c7,0,12.7,5.7,12.7,12.7v67.3
			C2414,1061.1,2408.3,1066.7,2401.2,1066.7z"/>
		<path class="st1" d="M2741.2,1066.7h-1.5c-7,0-12.7-5.7-12.7-12.7v-67.3c0-7,5.7-12.7,12.7-12.7h1.5c7,0,12.7,5.7,12.7,12.7v67.3
			C2754,1061.1,2748.3,1066.7,2741.2,1066.7z"/>
		<path class="st3" d="M2400.7,685c-0.1-2,0.3-2.7,0.3-4v422.8c0,22.8,13.7,41.2,30.6,41.2h12.5h253.7h12.5
			c16.9,0,30.7-18.5,30.7-41.2V684.3c0,0.1-0.5,0.7-0.5,0.7H2400.7z"/>
		<path class="st3" d="M2710.3,248h-278.7c-16.9,0-30.6,15.8-30.6,35.7v295.9c0-0.4-0.5-0.6-0.5-0.6h18.4h3.9h0.9h2.2h284.9h3.5h0.6
			h8.2h17.1c0.2,0,0.9,2,0.9,3.4V283.7C2741,263.8,2727.3,248,2710.3,248z"/>
		<path class="st12" d="M2740.5,617.3c0-10.4-6.5-14.8-12.5-17.6c6-2.8,12.5-6.8,12.5-17.2c0-1.4-0.1-3.4-0.3-3.4h-17.1h-8.2h-0.6
			h-3.5h-284.9h-2.2h-0.9h-3.9h-18.4c0,0,0,0.2,0,0.6c0,10.4,6.5,14.6,12.5,17.4c-6,2.8-12.5,7.1-12.5,17.5
			c0,10.4,6.5,14.7,12.5,17.6c-1.2,0.6-2.4,1.2-3.6,1.9c-4.7,2.9-8.9,7.4-8.9,15.7c0,10.4,6.5,14.8,12.5,17.6
			c-6,2.8-12.5,7.2-12.5,17.6c0,1.1,0.1,2.1,0.2,3.1h339.8c0,0,0-0.1,0-0.2c0-10.4-6.5-14.8-12.5-17.6c6-2.8,12.5-7.2,12.5-17.6
			c0-10.4-6.5-14.8-12.5-17.6c0.6-0.3,1.2-0.6,1.8-0.9C2735.2,631.1,2740.5,626.6,2740.5,617.3z"/>
		<path class="st8" d="M2698,1093.9c0-5.7-4.6-9.9-10.3-9.9h-233.5c-5.7,0-10.3,4.3-10.3,9.9v49.5c0,0.6,0,0.6,0.1,1.6h253.7
			c0.1-1,0.2-1.1,0.2-1.6V1093.9z"/>
		<path class="st8" d="M2612.7,389.7h-84.4c-10.9,0-19.8-8.9-19.8-19.8v-47.7c0-10.9,8.9-19.8,19.8-19.8h84.4
			c10.9,0,19.8,8.9,19.8,19.8v47.7C2632.5,380.9,2623.6,389.7,2612.7,389.7z"/>
		<path class="st13" d="M2528.6,361.6c-1.7,0-3.4-0.9-4.3-2.4c-1.4-2.4-0.6-5.4,1.7-6.9l63.3-37.7c2.4-1.4,5.4-0.6,6.9,1.7
			c1.4,2.4,0.6,5.4-1.7,6.9l-63.3,37.7C2530.3,361.4,2529.4,361.6,2528.6,361.6z"/>
		<path class="st13" d="M2546.6,379.6c-1.7,0-3.4-0.9-4.3-2.4c-1.4-2.4-0.6-5.4,1.7-6.9l63.3-37.7c2.4-1.4,5.4-0.6,6.9,1.7
			c1.4,2.4,0.6,5.4-1.7,6.9l-63.3,37.7C2548.3,379.4,2547.4,379.6,2546.6,379.6z"/>
		<path class="st0" d="M2508.5,1007.5c-4.1,0-7.5-3.4-7.5-7.5V749c0-4.1,3.4-7.5,7.5-7.5s7.5,3.4,7.5,7.5v251
			C2516,1004.1,2512.6,1007.5,2508.5,1007.5z"/>
		<path class="st0" d="M2632.5,1007.5c-4.1,0-7.5-3.4-7.5-7.5V749c0-4.1,3.4-7.5,7.5-7.5s7.5,3.4,7.5,7.5v251
			C2640,1004.1,2636.6,1007.5,2632.5,1007.5z"/>
		<path class="st0" d="M2508.5,532.5c-4.1,0-7.5-3.4-7.5-7.5v-78c0-4.1,3.4-7.5,7.5-7.5s7.5,3.4,7.5,7.5v78
			C2516,529.1,2512.6,532.5,2508.5,532.5z"/>
		<path class="st0" d="M2632.5,532.5c-4.1,0-7.5-3.4-7.5-7.5v-78c0-4.1,3.4-7.5,7.5-7.5s7.5,3.4,7.5,7.5v78
			C2640,529.1,2636.6,532.5,2632.5,532.5z"/>
		<path class="st0" d="M2570.3,598h0.9C2570.9,598,2570.6,598,2570.3,598z"/>
	</g>
	<g>
		<polygon class="st14" points="739.2,1035.9 563.6,1035.9 563.6,1007.6 651.4,980.3 739.2,1007.6 		"/>
		<polygon class="st0" points="739.2,933.2 563.6,933.2 563.6,904.9 651.4,877.6 739.2,904.9 		"/>
		<polygon class="st6" points="651.4,877.6 563.6,904.4 563.6,1008.4 651.4,980.3 		"/>
		<polygon class="st15" points="739.2,904.4 651.4,877.6 651.4,980.3 739.2,1008.4 		"/>
		<polygon class="st14" points="692.9,916.9 677.7,906.9 685.3,924.6 665.6,938.8 686.2,944.5 706,963 706,943 725.9,943.1 
			714.6,934.9 726,917 709.6,923.2 695.8,903.3 		"/>
		<polygon class="st16" points="693.6,921.1 682.4,913.6 688,926.8 673.4,937.4 688.5,941.6 703,955.3 703,940.5 718,940.6 
			709.7,934.5 718.2,921.1 706.1,925.8 695.8,911 		"/>
		<rect x="638.7" y="1001.9" class="st6" width="25.4" height="33.9"/>
	</g>
	<g>
		<polygon class="st14" points="1467,522.9 1303.4,522.9 1303.4,505.6 1386.2,471.3 1467,505.6 		"/>
		<polygon class="st6" points="1386.2,410.6 1303.4,444.4 1303.4,506.4 1386.2,471.3 		"/>
		<polygon class="st15" points="1467,444.4 1386.2,410.6 1386.2,471.3 1467,506.4 		"/>
		<polygon class="st15" points="1356.2,509.9 1349,514.7 1352.6,506.2 1343.3,499.5 1353.3,496.8 1363,488 1363,497.5 1372.2,497.5 
			1366.7,501.3 1372,509.9 1364.2,506.9 1357.6,516.3 		"/>
		<polygon class="st16" points="1356.6,507.4 1351.2,511 1353.9,504.7 1346.9,499.7 1354.1,497.7 1361,491.2 1361,498.2 
			1368.1,498.2 1364.2,501.1 1368.2,507.4 1362.5,505.2 1357.6,512.2 		"/>
		<rect x="1387.4" y="488.9" class="st6" width="25.4" height="33.9"/>
	</g>
	<g>
		<polygon class="st14" points="505,520.9 341.4,520.9 341.4,503.6 424.2,469.3 505,503.6 		"/>
		<polygon class="st0" points="505,444.2 341.4,444.2 341.4,442.9 424.2,408.6 505,442.9 		"/>
		<polygon class="st6" points="424.2,408.6 341.4,442.4 341.4,504.4 424.2,469.3 		"/>
		<polygon class="st15" points="505,442.4 424.2,408.6 424.2,469.3 505,504.4 		"/>
		<rect x="397.3" y="486.9" class="st6" width="25.4" height="33.9"/>
		<rect x="430.7" y="486.9" class="st6" width="14.8" height="14"/>
		<polygon class="st14" points="469.1,450 475.7,445.6 472.4,453.4 481.1,459.7 472.4,462.2 464,470.3 464,461.5 454.9,461.6 
			459.7,457.9 454.5,450 461.7,452.8 467.8,444 		"/>
		<polygon class="st16" points="468.7,451.9 473.7,448.5 471.2,454.4 477.7,459 471.2,460.9 465,467 465,460.4 458.2,460.4 
			461.8,457.8 457.9,451.9 463.3,453.9 467.8,447.4 		"/>
	</g>
	<g>
		<polygon class="st14" points="1630,1200.9 1466.4,1200.9 1466.4,1183.6 1549.2,1149.3 1630,1183.6 		"/>
		<polygon class="st0" points="1630,1124.2 1466.4,1124.2 1466.4,1122.9 1549.2,1088.6 1630,1122.9 		"/>
		<polygon class="st6" points="1549.2,1088.6 1466.4,1122.4 1466.4,1184.4 1549.2,1149.3 		"/>
		<polygon class="st15" points="1630,1122.4 1549.2,1088.6 1549.2,1149.3 1630,1184.4 		"/>
		<polygon class="st14" points="1513.6,1127.9 1508.2,1131.5 1510.9,1125.2 1504,1120.2 1511.1,1118.2 1518,1111.6 1518,1118.7 
			1525.1,1118.7 1521.2,1121.6 1525.2,1127.9 1519.5,1125.7 1514.6,1132.7 		"/>
		<polygon class="st16" points="1513.8,1126.1 1509.9,1128.7 1511.8,1124.1 1506.7,1120.3 1511.9,1118.8 1517,1114 1517,1119.2 
			1522.4,1119.2 1519.5,1121.4 1522.5,1126.1 1518.2,1124.4 1514.6,1129.6 		"/>
		<rect x="1522.3" y="1166.9" class="st6" width="25.4" height="33.9"/>
		<rect x="1555.7" y="1166.9" class="st6" width="14.8" height="14"/>
		<polygon class="st14" points="1581.3,1120.3 1568.3,1111.6 1574.8,1126.8 1557.9,1139 1575.8,1143.9 1593,1159.8 1593,1142.6 
			1609.8,1142.7 1600,1135.7 1609.7,1120.3 1595.7,1125.6 1583.8,1108.6 		"/>
		<polygon class="st16" points="1581.9,1123.8 1572.3,1117.4 1577.1,1128.7 1564.6,1137.8 1577.5,1141.4 1590,1153.2 1590,1140.4 
			1602.8,1140.5 1595.7,1135.3 1603,1123.9 1592.6,1127.8 1583.8,1115.1 		"/>
		<path class="st17" d="M1585.2,1119.3c-5.1,0-9.3-4.2-9.3-9.3c0-3.8,2.3-7,5.5-8.5c-0.2-0.6-0.4-1.3-0.4-2c0-0.6,0.1-1.2,0.3-1.8
			c-1.9-0.5-3.3-2.1-3.3-4.2c0-2,1.4-3.7,3.3-4.2c-0.1-0.4-0.2-0.8-0.2-1.3c0-2.2,1.8-4,4-4c2.2,0,4,1.8,4,4c0,1.8-1.2,3.3-2.8,3.8
			c0.2,0.5,0.3,1,0.3,1.6c0,0.1,0,0.2,0,0.3c0,0,0,0,0,0c3.1,0,5.6,2.5,5.6,5.6c0,1.3-0.4,2.5-1.2,3.4c2,1.7,3.3,4.3,3.3,7.1
			c0,0.3,0,0.7-0.1,1c0,0,0,0,0.1,0c4.5,0,8.1,3.6,8.1,8.1c0,4-2.9,7.3-6.6,8c0,0.2,0,0.4,0,0.6c0,3.5-2.8,6.3-6.3,6.3
			c-3.5,0-6.3-2.8-6.3-6.3c0-2.5,1.4-4.6,3.5-5.6c-0.3-0.9-0.5-1.8-0.5-2.8C1586,1119.3,1585.6,1119.3,1585.2,1119.3z"/>
	</g>
	<g>
		<polygon class="st14" points="624.2,1302.9 448.6,1302.9 448.6,1231.6 536.4,1204.3 624.2,1231.6 		"/>
		<polygon class="st0" points="624.2,1200.2 448.6,1200.2 448.6,1180.7 536.4,1153.4 624.2,1180.7 		"/>
		<polygon class="st6" points="536.4,1153.4 448.6,1180.1 448.6,1232.4 536.4,1204.3 		"/>
		<polygon class="st15" points="624.2,1180.1 536.4,1153.4 536.4,1204.3 624.2,1232.4 		"/>
		<rect x="487.5" y="1268.9" class="st6" width="25.4" height="33.9"/>
		<rect x="524.7" y="1270" class="st6" width="14.8" height="14"/>
		<path class="st17" d="M576.3,1134.3c5.1,0,9.3-4.2,9.3-9.3c0-3.8-2.3-7-5.5-8.5c0.2-0.6,0.4-1.3,0.4-2c0-0.6-0.1-1.2-0.3-1.8
			c1.9-0.5,3.3-2.1,3.3-4.2c0-2-1.4-3.7-3.3-4.2c0.1-0.4,0.2-0.8,0.2-1.3c0-2.2-1.8-4-4-4s-4,1.8-4,4c0,1.8,1.2,3.3,2.8,3.8
			c-0.2,0.5-0.3,1-0.3,1.6c0,0.1,0,0.2,0,0.3c0,0,0,0,0,0c-3.1,0-5.6,2.5-5.6,5.6c0,1.3,0.4,2.5,1.2,3.4c-2,1.7-3.3,4.3-3.3,7.1
			c0,0.3,0,0.7,0.1,1c0,0,0,0-0.1,0c-4.5,0-8.1,3.6-8.1,8.1c0,4,2.9,7.3,6.6,8c0,0.2,0,0.4,0,0.6c0,3.5,2.8,6.3,6.3,6.3
			s6.3-2.8,6.3-6.3c0-2.5-1.4-4.6-3.5-5.6c0.3-0.9,0.5-1.8,0.5-2.8C575.5,1134.3,575.9,1134.3,576.3,1134.3z"/>
		<rect x="558.7" y="1145" class="st6" width="25.4" height="48.7"/>
	</g>
	<rect x="-375.3" y="174.1" class="st17" width="103.5" height="76.9"/>
	<rect x="-243.3" y="174.1" class="st17" width="103.5" height="76.9"/>
	<rect x="-375.3" y="270.1" class="st17" width="103.5" height="76.9"/>
	<rect x="-243.3" y="270.1" class="st17" width="103.5" height="76.9"/>
	<rect x="-685.8" y="183.7" class="st17" width="103.5" height="76.9"/>
	<rect x="-553.8" y="183.7" class="st17" width="103.5" height="76.9"/>
	<rect x="-685.8" y="279.7" class="st17" width="103.5" height="76.9"/>
	<rect x="-553.8" y="279.7" class="st17" width="103.5" height="76.9"/>
	<rect x="-525.3" y="436.9" class="st17" width="103.5" height="76.9"/>
	<rect x="-393.3" y="436.9" class="st17" width="103.5" height="76.9"/>
	<rect x="-525.3" y="532.9" class="st17" width="103.5" height="76.9"/>
	<rect x="-393.3" y="532.9" class="st17" width="103.5" height="76.9"/>
	<g>
		<g>
			<polygon class="st14" points="689,281.9 525.4,281.9 525.4,264.6 608.2,230.3 689,264.6 			"/>
			<polygon class="st0" points="689,205.2 525.4,205.2 525.4,203.9 608.2,169.6 689,203.9 			"/>
			<polygon class="st6" points="608.2,169.6 525.4,203.4 525.4,265.4 608.2,230.3 			"/>
			<polygon class="st15" points="689,203.4 608.2,169.6 608.2,230.3 689,265.4 			"/>
			<polygon class="st15" points="559.8,226.9 550.8,232.9 555.3,222.3 543.5,213.8 556,210.4 568,199.3 568,211.3 579.8,211.2 
				572.9,216.1 579.7,226.9 569.9,223.1 561.6,235 			"/>
			<polygon class="st16" points="560.3,223.8 553.5,228.3 556.9,220.4 548.2,214 557.2,211.5 566,203.3 566,212.2 574.9,212.1 
				569.9,215.8 575,223.8 567.7,221 561.6,229.9 			"/>
			<path class="st17" d="M644.1,168.9c3.6,0,6.5-2.9,6.5-6.5c0-2.7-1.6-4.9-3.9-6c0.2-0.4,0.3-0.9,0.3-1.4c0-0.4-0.1-0.9-0.2-1.2
				c1.3-0.3,2.3-1.5,2.3-2.9c0-1.4-1-2.6-2.3-2.9c0.1-0.3,0.2-0.6,0.2-0.9c0-1.6-1.3-2.8-2.8-2.8c-1.6,0-2.8,1.3-2.8,2.8
				c0,1.3,0.8,2.3,2,2.7c-0.1,0.3-0.2,0.7-0.2,1.1c0,0.1,0,0.1,0,0.2c0,0,0,0,0,0c-2.2,0-4,1.8-4,4c0,0.9,0.3,1.7,0.8,2.4
				c-1.4,1.2-2.3,3-2.3,5c0,0.2,0,0.5,0,0.7c0,0,0,0,0,0c-3.1,0-5.7,2.6-5.7,5.7c0,2.8,2,5.1,4.7,5.6c0,0.1,0,0.3,0,0.4
				c0,2.4,2,4.4,4.4,4.4s4.4-2,4.4-4.4c0-1.7-1-3.3-2.5-4c0.2-0.6,0.4-1.3,0.4-2C643.5,168.9,643.8,168.9,644.1,168.9z"/>
			<rect x="631.7" y="176.4" class="st6" width="17.9" height="34.3"/>
		</g>
		<rect x="581.3" y="256.1" class="st6" width="25.4" height="25.8"/>
	</g>
	<g>
		<polygon class="st18" points="341.4,1068 404.4,958.9 467.3,1068 		"/>
		<rect x="394" y="1057.7" class="st19" width="20.7" height="32.3"/>
	</g>
	<g>
		<polygon class="st18" points="587.9,613 636.4,529.1 684.8,613 		"/>
		<rect x="628.4" y="605" class="st19" width="15.9" height="24.9"/>
	</g>
	<g>
		<polygon class="st18" points="654.9,794 690.5,732.4 726,794 		"/>
		<rect x="684.6" y="787.8" class="st19" width="11.7" height="18.2"/>
	</g>
	<g>
		<polygon class="st18" points="1355.9,687 1391.5,625.4 1427,687 		"/>
		<rect x="1385.6" y="680.8" class="st19" width="11.7" height="18.2"/>
	</g>
	<g>
		<polygon class="st18" points="1259.9,273 1295.5,211.4 1331,273 		"/>
		<rect x="1289.6" y="266.8" class="st19" width="11.7" height="18.2"/>
	</g>
	<g>
		<polygon class="st18" points="558.9,401 594.5,339.4 630,401 		"/>
		<rect x="588.6" y="394.8" class="st19" width="11.7" height="18.2"/>
	</g>
	<g>
		<polygon class="st18" points="448.9,703 484.5,641.4 520,703 		"/>
		<rect x="478.6" y="696.8" class="st19" width="11.7" height="18.2"/>
	</g>
	<g>
		<polygon class="st18" points="1455.8,911 1508.2,820.3 1560.5,911 		"/>
		<rect x="1499.6" y="902.1" class="st19" width="17.2" height="26.9"/>
	</g>
	<g>
		<polygon class="st18" points="1281.4,1045 1344.4,935.9 1407.3,1045 		"/>
		<rect x="1334" y="1034.7" class="st19" width="20.7" height="32.3"/>
	</g>
	<g>
		<polygon class="st18" points="1451.4,314 1514.4,204.9 1577.3,314 		"/>
		<rect x="1504" y="303.7" class="st19" width="20.7" height="32.3"/>
	</g>
</g>
<g id="Layer_3" class="st20">
	<path class="st21" d="M3049,422.5c0,2.8-4.1,5.5-9.8,5.5h-233.5c-5.7,0-10.8-2.6-10.8-5.5v-24.7c0-0.3,0.6-0.5,0.6-0.8h253.7
		c0.1,0.3-0.4,0.5-0.4,0.8V422.5z"/>
</g>
<g id="Layer_2" class="st20">
	<g class="st22">
		<line class="st23" x1="2984" y1="431" x2="2860" y2="431"/>
		<line class="st23" x1="2984" y1="455" x2="2860" y2="455"/>
		<line class="st23" x1="2984" y1="482" x2="2860" y2="482"/>
	</g>
</g>
</svg>
