<?xml version="1.0" encoding="utf-8"?>
<!-- Generator: Adobe Illustrator 19.1.0, SVG Export Plug-In . SVG Version: 6.00 Build 0)  -->
<!DOCTYPE svg PUBLIC "-//W3C//DTD SVG 1.1//EN" "http://www.w3.org/Graphics/SVG/1.1/DTD/svg11.dtd">
<svg version="1.1" id="Layer_1" xmlns="http://www.w3.org/2000/svg" xmlns:xlink="http://www.w3.org/1999/xlink" x="0px" y="0px"
	 viewBox="128 2823 2000 3000" style="enable-background:new 128 2823 2000 3000;" xml:space="preserve">
<style type="text/css">
	.st0{opacity:0.75;fill:#CEC58E;enable-background:new    ;}
	.st1{fill:#474646;}
	.st2{fill:#E88F7E;}
	.st3{fill:#232323;}
	.st4{fill:#FCFC4C;}
	.st5{fill:#C14727;}
	.st6{fill:#494848;}
	.st7{fill:#FFFFFF;}
	.st8{fill:#D4DFE8;}
	.st9{fill:none;stroke:#ACC0CC;stroke-width:10;stroke-linecap:round;stroke-miterlimit:10;}
	.st10{fill:none;stroke:#E88F7E;stroke-width:15;stroke-linecap:round;stroke-miterlimit:10;}
	.st11{fill:#F4D731;}
	.st12{fill:#8E8D8D;}
	.st13{fill:#ACC0CC;}
	.st14{fill:#A3A3A3;}
	.st15{fill:#6D6C6C;}
	.st16{fill:#1A1A1A;}
	.st17{fill:#E6E6E6;}
	.st18{fill:#9B9334;}
	.st19{fill:#725225;}
	.st20{display:none;}
	.st21{display:inline;fill:#D4DFE8;}
	.st22{display:inline;}
	.st23{fill:none;stroke:#E88F7E;stroke-width:10;stroke-linecap:round;stroke-miterlimit:10;}
</style>
<rect x="128" y="2824.1" class="st0" width="2000" height="3000"/>
<polygon class="st1" points="926.1,2823 926.1,4323 926.1,4325.1 926.1,5825.1 1329.9,5825.1 1329.9,4325.1 1329.9,4323 
	1329.9,2823 "/>
<g>
	<rect x="1122.3" y="2824.1" class="st7" width="12" height="30"/>
	<rect x="1122.3" y="3921.1" class="st7" width="12" height="58"/>
	<rect x="1122.3" y="3796.1" class="st7" width="12" height="58"/>
	<rect x="1122.3" y="4046.1" class="st7" width="12" height="58"/>
	<rect x="1122.3" y="3671.1" class="st7" width="12" height="58"/>
	<rect x="1122.3" y="4171.1" class="st7" width="12" height="58"/>
	<rect x="1122.3" y="2921.1" class="st7" width="12" height="58"/>
	<rect x="1122.3" y="3546.1" class="st7" width="12" height="58"/>
	<rect x="1122.3" y="3046.1" class="st7" width="12" height="58"/>
	<rect x="1122.3" y="3171.1" class="st7" width="12" height="58"/>
	<rect x="1122.3" y="3421.1" class="st7" width="12" height="58"/>
	<rect x="1122.3" y="3296.1" class="st7" width="12" height="58"/>
	<polygon class="st7" points="1122.3,4324.1 1122.3,4324.1 1122.3,4354.1 1134.3,4354.1 1134.3,4324.1 1134.3,4324.1 1134.3,4294.1 
		1122.3,4294.1 	"/>
	<rect x="1122.3" y="5171.1" class="st7" width="12" height="58"/>
	<rect x="1122.3" y="5296.1" class="st7" width="12" height="58"/>
	<rect x="1122.3" y="5671.1" class="st7" width="12" height="58"/>
	<rect x="1122.3" y="5421.1" class="st7" width="12" height="58"/>
	<rect x="1122.3" y="5546.1" class="st7" width="12" height="58"/>
	<rect x="1122.3" y="4796.1" class="st7" width="12" height="58"/>
	<rect x="1122.3" y="4546.1" class="st7" width="12" height="58"/>
	<rect x="1122.3" y="5046.1" class="st7" width="12" height="58"/>
	<rect x="1122.3" y="4421.1" class="st7" width="12" height="58"/>
	<rect x="1122.3" y="4671.1" class="st7" width="12" height="58"/>
	<rect x="1122.3" y="4921.1" class="st7" width="12" height="58"/>
	<rect x="1122.3" y="5794.1" class="st7" width="12" height="30"/>
</g>
<g>
	<polygon class="st7" points="948.3,4324.1 948.3,4324.1 948.3,5824.1 960.3,5824.1 960.3,4324.1 960.3,4324.1 960.3,2824.1 
		948.3,2824.1 	"/>
	<polygon class="st7" points="1296.3,2824.1 1296.3,4324.1 1296.3,4324.1 1296.3,5824.1 1308.3,5824.1 1308.3,4324.1 1308.3,4324.1 
		1308.3,2824.1 	"/>
</g>
<g>
	<polygon class="st14" points="867.5,3860 691.9,3860 691.9,3831.7 779.7,3804.4 867.5,3831.7 	"/>
	<polygon class="st2" points="867.5,3757.3 691.9,3757.3 691.9,3729 779.7,3701.7 867.5,3729 	"/>
	<polygon class="st1" points="779.7,3701.7 691.9,3728.5 691.9,3832.5 779.7,3804.4 	"/>
	<polygon class="st15" points="867.5,3728.5 779.7,3701.7 779.7,3804.4 867.5,3832.5 	"/>
	<polygon class="st14" points="821.2,3741 806,3731 813.6,3748.7 793.9,3762.9 814.5,3768.6 834.3,3787.1 834.3,3767.1 
		854.2,3767.2 842.9,3759 854.3,3741.1 837.9,3747.3 824.1,3727.4 	"/>
	<polygon class="st16" points="821.9,3745.2 810.7,3737.7 816.3,3750.9 801.7,3761.5 816.8,3765.7 831.3,3779.4 831.3,3764.6 
		846.3,3764.7 838,3758.6 846.5,3745.2 834.4,3749.9 824.1,3735.1 	"/>
	<rect x="767" y="3826" class="st1" width="25.4" height="33.9"/>
</g>
<g>
	<polygon class="st14" points="1595.3,3347 1431.7,3347 1431.7,3329.7 1514.5,3295.4 1595.3,3329.7 	"/>
	<polygon class="st1" points="1514.5,3234.7 1431.7,3268.5 1431.7,3330.5 1514.5,3295.4 	"/>
	<polygon class="st15" points="1595.3,3268.5 1514.5,3234.7 1514.5,3295.4 1595.3,3330.5 	"/>
	<polygon class="st15" points="1484.5,3334 1477.3,3338.8 1480.9,3330.3 1471.6,3323.6 1481.6,3320.9 1491.3,3312.1 1491.3,3321.6 
		1500.5,3321.6 1495,3325.4 1500.3,3334 1492.5,3331 1485.9,3340.4 	"/>
	<polygon class="st16" points="1484.9,3331.5 1479.5,3335.1 1482.2,3328.8 1475.2,3323.8 1482.4,3321.8 1489.3,3315.3 
		1489.3,3322.3 1496.4,3322.3 1492.5,3325.2 1496.5,3331.5 1490.8,3329.3 1485.9,3336.3 	"/>
	<rect x="1515.7" y="3313" class="st1" width="25.4" height="33.9"/>
</g>
<g>
	<polygon class="st14" points="633.3,3345 469.7,3345 469.7,3327.7 552.5,3293.4 633.3,3327.7 	"/>
	<polygon class="st2" points="633.3,3268.3 469.7,3268.3 469.7,3267 552.5,3232.7 633.3,3267 	"/>
	<polygon class="st1" points="552.5,3232.7 469.7,3266.5 469.7,3328.5 552.5,3293.4 	"/>
	<polygon class="st15" points="633.3,3266.5 552.5,3232.7 552.5,3293.4 633.3,3328.5 	"/>
	<rect x="525.6" y="3311" class="st1" width="25.4" height="33.9"/>
	<rect x="559" y="3311" class="st1" width="14.8" height="14"/>
	<polygon class="st14" points="597.4,3274.1 604,3269.7 600.7,3277.5 609.4,3283.8 600.7,3286.3 592.3,3294.4 592.3,3285.6 
		583.2,3285.7 588,3282 582.8,3274.1 590,3276.9 596.1,3268.1 	"/>
	<polygon class="st16" points="597,3276 602,3272.6 599.5,3278.5 606,3283.1 599.5,3285 593.3,3291.1 593.3,3284.5 586.5,3284.5 
		590.1,3281.9 586.2,3276 591.6,3278 596.1,3271.5 	"/>
</g>
<g>
	<polygon class="st14" points="1758.3,4025 1594.7,4025 1594.7,4007.7 1677.5,3973.4 1758.3,4007.7 	"/>
	<polygon class="st2" points="1758.3,3948.3 1594.7,3948.3 1594.7,3947 1677.5,3912.7 1758.3,3947 	"/>
	<polygon class="st1" points="1677.5,3912.7 1594.7,3946.5 1594.7,4008.5 1677.5,3973.4 	"/>
	<polygon class="st15" points="1758.3,3946.5 1677.5,3912.7 1677.5,3973.4 1758.3,4008.5 	"/>
	<polygon class="st14" points="1641.9,3952 1636.5,3955.6 1639.2,3949.3 1632.3,3944.3 1639.4,3942.3 1646.3,3935.7 1646.3,3942.8 
		1653.4,3942.8 1649.5,3945.7 1653.5,3952 1647.8,3949.8 1642.9,3956.8 	"/>
	<polygon class="st16" points="1642.1,3950.2 1638.2,3952.8 1640.1,3948.2 1635,3944.4 1640.2,3942.9 1645.3,3938.1 1645.3,3943.3 
		1650.7,3943.3 1647.8,3945.5 1650.8,3950.2 1646.5,3948.5 1642.9,3953.7 	"/>
	<rect x="1650.6" y="3991" class="st1" width="25.4" height="33.9"/>
	<rect x="1684" y="3991" class="st1" width="14.8" height="14"/>
	<polygon class="st14" points="1709.6,3944.4 1696.6,3935.7 1703.1,3950.9 1686.2,3963.1 1704.1,3968 1721.3,3983.9 1721.3,3966.7 
		1738.1,3966.8 1728.3,3959.8 1738,3944.4 1724,3949.7 1712.1,3932.7 	"/>
	<polygon class="st16" points="1710.2,3947.9 1700.6,3941.5 1705.4,3952.8 1692.9,3961.9 1705.8,3965.5 1718.3,3977.3 
		1718.3,3964.5 1731.1,3964.6 1724,3959.4 1731.3,3948 1720.9,3951.9 1712.1,3939.2 	"/>
	<path class="st17" d="M1713.5,3943.4c-5.1,0-9.3-4.2-9.3-9.3c0-3.8,2.3-7,5.5-8.5c-0.2-0.6-0.4-1.3-0.4-2c0-0.6,0.1-1.2,0.3-1.8
		c-1.9-0.5-3.3-2.1-3.3-4.2c0-2,1.4-3.7,3.3-4.2c-0.1-0.4-0.2-0.8-0.2-1.3c0-2.2,1.8-4,4-4s4,1.8,4,4c0,1.8-1.2,3.3-2.8,3.8
		c0.2,0.5,0.3,1,0.3,1.6c0,0.1,0,0.2,0,0.3l0,0c3.1,0,5.6,2.5,5.6,5.6c0,1.3-0.4,2.5-1.2,3.4c2,1.7,3.3,4.3,3.3,7.1
		c0,0.3,0,0.7-0.1,1c0,0,0,0,0.1,0c4.5,0,8.1,3.6,8.1,8.1c0,4-2.9,7.3-6.6,8c0,0.2,0,0.4,0,0.6c0,3.5-2.8,6.3-6.3,6.3
		s-6.3-2.8-6.3-6.3c0-2.5,1.4-4.6,3.5-5.6c-0.3-0.9-0.5-1.8-0.5-2.8C1714.3,3943.4,1713.9,3943.4,1713.5,3943.4z"/>
</g>
<g>
	<polygon class="st14" points="752.5,4127 576.9,4127 576.9,4055.7 664.7,4028.4 752.5,4055.7 	"/>
	<polygon class="st2" points="752.5,4024.3 576.9,4024.3 576.9,4004.8 664.7,3977.5 752.5,4004.8 	"/>
	<polygon class="st1" points="664.7,3977.5 576.9,4004.2 576.9,4056.5 664.7,4028.4 	"/>
	<polygon class="st15" points="752.5,4004.2 664.7,3977.5 664.7,4028.4 752.5,4056.5 	"/>
	<rect x="615.8" y="4093" class="st1" width="25.4" height="33.9"/>
	<rect x="653" y="4094.1" class="st1" width="14.8" height="14"/>
	<path class="st17" d="M704.6,3958.4c5.1,0,9.3-4.2,9.3-9.3c0-3.8-2.3-7-5.5-8.5c0.2-0.6,0.4-1.3,0.4-2c0-0.6-0.1-1.2-0.3-1.8
		c1.9-0.5,3.3-2.1,3.3-4.2c0-2-1.4-3.7-3.3-4.2c0.1-0.4,0.2-0.8,0.2-1.3c0-2.2-1.8-4-4-4c-2.2,0-4,1.8-4,4c0,1.8,1.2,3.3,2.8,3.8
		c-0.2,0.5-0.3,1-0.3,1.6c0,0.1,0,0.2,0,0.3l0,0c-3.1,0-5.6,2.5-5.6,5.6c0,1.3,0.4,2.5,1.2,3.4c-2,1.7-3.3,4.3-3.3,7.1
		c0,0.3,0,0.7,0.1,1c0,0,0,0-0.1,0c-4.5,0-8.1,3.6-8.1,8.1c0,4,2.9,7.3,6.6,8c0,0.2,0,0.4,0,0.6c0,3.5,2.8,6.3,6.3,6.3
		s6.3-2.8,6.3-6.3c0-2.5-1.4-4.6-3.5-5.6c0.3-0.9,0.5-1.8,0.5-2.8C703.8,3958.4,704.2,3958.4,704.6,3958.4z"/>
	<rect x="687" y="3969.1" class="st1" width="25.4" height="48.7"/>
</g>
<g>
	<g>
		<polygon class="st14" points="817.3,3106 653.7,3106 653.7,3088.7 736.5,3054.4 817.3,3088.7 		"/>
		<polygon class="st2" points="817.3,3029.3 653.7,3029.3 653.7,3028 736.5,2993.7 817.3,3028 		"/>
		<polygon class="st1" points="736.5,2993.7 653.7,3027.5 653.7,3089.5 736.5,3054.4 		"/>
		<polygon class="st15" points="817.3,3027.5 736.5,2993.7 736.5,3054.4 817.3,3089.5 		"/>
		<polygon class="st15" points="688.1,3051 679.1,3057 683.6,3046.4 671.8,3037.9 684.3,3034.5 696.3,3023.4 696.3,3035.4 
			708.1,3035.3 701.2,3040.2 708,3051 698.2,3047.2 689.9,3059.1 		"/>
		<polygon class="st16" points="688.6,3047.9 681.8,3052.4 685.2,3044.5 676.5,3038.1 685.5,3035.6 694.3,3027.4 694.3,3036.3 
			703.2,3036.2 698.2,3039.9 703.3,3047.9 696,3045.1 689.9,3054 		"/>
		<path class="st17" d="M772.4,2993c3.6,0,6.5-2.9,6.5-6.5c0-2.7-1.6-4.9-3.9-6c0.2-0.4,0.3-0.9,0.3-1.4c0-0.4-0.1-0.9-0.2-1.2
			c1.3-0.3,2.3-1.5,2.3-2.9c0-1.4-1-2.6-2.3-2.9c0.1-0.3,0.2-0.6,0.2-0.9c0-1.6-1.3-2.8-2.8-2.8c-1.6,0-2.8,1.3-2.8,2.8
			c0,1.3,0.8,2.3,2,2.7c-0.1,0.3-0.2,0.7-0.2,1.1c0,0.1,0,0.1,0,0.2l0,0c-2.2,0-4,1.8-4,4c0,0.9,0.3,1.7,0.8,2.4
			c-1.4,1.2-2.3,3-2.3,5c0,0.2,0,0.5,0,0.7l0,0c-3.1,0-5.7,2.6-5.7,5.7c0,2.8,2,5.1,4.7,5.6c0,0.1,0,0.3,0,0.4c0,2.4,2,4.4,4.4,4.4
			s4.4-2,4.4-4.4c0-1.7-1-3.3-2.5-4c0.2-0.6,0.4-1.3,0.4-2C771.8,2993,772.1,2993,772.4,2993z"/>
		<rect x="760" y="3000.5" class="st1" width="17.9" height="34.3"/>
	</g>
	<rect x="709.6" y="3080.2" class="st1" width="25.4" height="25.8"/>
</g>
<g>
	<polygon class="st18" points="469.7,3892.1 532.7,3783 595.6,3892.1 	"/>
	<rect x="522.3" y="3881.8" class="st19" width="20.7" height="32.3"/>
</g>
<g>
	<polygon class="st18" points="468.9,2964.7 531.9,2855.6 594.8,2964.7 	"/>
	<rect x="521.5" y="2954.4" class="st19" width="20.7" height="32.3"/>
</g>
<g>
	<polygon class="st18" points="716.2,3437.1 764.7,3353.2 813.1,3437.1 	"/>
	<rect x="756.7" y="3429.1" class="st19" width="15.9" height="24.9"/>
</g>
<g>
	<polygon class="st18" points="783.2,3618.1 818.8,3556.5 854.3,3618.1 	"/>
	<rect x="812.9" y="3611.9" class="st19" width="11.7" height="18.2"/>
</g>
<g>
	<polygon class="st18" points="1484.2,3511.1 1519.8,3449.5 1555.3,3511.1 	"/>
	<rect x="1513.9" y="3504.9" class="st19" width="11.7" height="18.2"/>
</g>
<g>
	<polygon class="st18" points="1388.2,3097.1 1423.8,3035.5 1459.3,3097.1 	"/>
	<rect x="1417.9" y="3090.9" class="st19" width="11.7" height="18.2"/>
</g>
<g>
	<polygon class="st18" points="687.2,3225.1 722.8,3163.5 758.3,3225.1 	"/>
	<rect x="716.9" y="3218.9" class="st19" width="11.7" height="18.2"/>
</g>
<g>
	<polygon class="st18" points="577.2,3527.1 612.8,3465.5 648.3,3527.1 	"/>
	<rect x="606.9" y="3520.9" class="st19" width="11.7" height="18.2"/>
</g>
<g>
	<polygon class="st18" points="1584.1,3735.1 1636.5,3644.4 1688.8,3735.1 	"/>
	<rect x="1627.9" y="3726.2" class="st19" width="17.2" height="26.9"/>
</g>
<g>
	<polygon class="st18" points="1409.7,3869.1 1472.7,3760 1535.6,3869.1 	"/>
	<rect x="1462.3" y="3858.8" class="st19" width="20.7" height="32.3"/>
</g>
<g>
	<polygon class="st18" points="1579.7,3138.1 1642.7,3029 1705.6,3138.1 	"/>
	<rect x="1632.3" y="3127.8" class="st19" width="20.7" height="32.3"/>
</g>
<g>
	<polygon class="st14" points="833.5,5433.2 657.9,5433.2 657.9,5405 745.7,5377.6 833.5,5405 	"/>
	<polygon class="st2" points="833.5,5330.6 657.9,5330.6 657.9,5302.2 745.7,5275 833.5,5302.2 	"/>
	<polygon class="st1" points="745.7,5275 657.9,5301.8 657.9,5405.8 745.7,5377.6 	"/>
	<polygon class="st15" points="833.5,5301.8 745.7,5275 745.7,5377.6 833.5,5405.8 	"/>
	<polygon class="st14" points="787.2,5314.2 772,5304.2 779.6,5322 759.9,5336.1 780.5,5341.9 800.3,5360.4 800.3,5340.4 
		820.2,5340.5 808.9,5332.2 820.3,5314.4 803.9,5320.6 790.1,5300.6 	"/>
	<polygon class="st16" points="787.9,5318.5 776.7,5311 782.3,5324.1 767.7,5334.8 782.8,5339 797.3,5352.6 797.3,5337.9 
		812.3,5338 804,5331.9 812.5,5318.5 800.4,5323.1 790.1,5308.4 	"/>
	<rect x="733" y="5399.2" class="st1" width="25.4" height="33.9"/>
</g>
<g>
	<polygon class="st14" points="717.7,4693.1 554.1,4693.1 554.1,4675.9 636.9,4641.5 717.7,4675.9 	"/>
	<polygon class="st1" points="636.9,4580.9 554.1,4614.6 554.1,4676.6 636.9,4641.5 	"/>
	<polygon class="st15" points="717.7,4614.6 636.9,4580.9 636.9,4641.5 717.7,4676.6 	"/>
	<polygon class="st15" points="606.9,4680.1 599.7,4685 603.3,4676.5 594,4669.8 604,4667 613.7,4658.2 613.7,4667.8 622.9,4667.8 
		617.4,4671.5 622.7,4680.1 614.9,4677.1 608.3,4686.5 	"/>
	<polygon class="st16" points="607.3,4677.6 601.9,4681.2 604.6,4675 597.6,4670 604.8,4668 611.7,4661.5 611.7,4668.5 
		618.8,4668.5 614.9,4671.4 618.9,4677.6 613.2,4675.5 608.3,4682.5 	"/>
	<rect x="638.1" y="4659.1" class="st1" width="25.4" height="33.9"/>
</g>
<g>
	<polygon class="st14" points="1604.3,4930.5 1440.7,4930.5 1440.7,4913.1 1523.5,4878.9 1604.3,4913.1 	"/>
	<polygon class="st1" points="1523.5,4818.1 1440.7,4852 1440.7,4914 1523.5,4878.9 	"/>
	<polygon class="st15" points="1604.3,4852 1523.5,4818.1 1523.5,4878.9 1604.3,4914 	"/>
	<polygon class="st15" points="1493.5,4917.5 1486.3,4922.2 1489.9,4913.8 1480.6,4907 1490.6,4904.4 1500.3,4895.5 1500.3,4905 
		1509.5,4905 1504,4908.9 1509.3,4917.5 1501.5,4914.5 1494.9,4923.9 	"/>
	<polygon class="st16" points="1493.9,4915 1488.5,4918.5 1491.2,4912.2 1484.2,4907.2 1491.4,4905.2 1498.3,4898.8 1498.3,4905.8 
		1505.4,4905.8 1501.5,4908.6 1505.5,4915 1499.8,4912.8 1494.9,4919.8 	"/>
	<rect x="1524.7" y="4896.5" class="st1" width="25.4" height="33.9"/>
</g>
<g>
	<polygon class="st14" points="800.3,4486.8 636.7,4486.8 636.7,4469.5 719.5,4435.2 800.3,4469.5 	"/>
	<polygon class="st2" points="800.3,4410.1 636.7,4410.1 636.7,4408.8 719.5,4374.5 800.3,4408.8 	"/>
	<polygon class="st1" points="719.5,4374.5 636.7,4408.3 636.7,4470.3 719.5,4435.2 	"/>
	<polygon class="st15" points="800.3,4408.3 719.5,4374.5 719.5,4435.2 800.3,4470.3 	"/>
	<rect x="692.6" y="4452.8" class="st1" width="25.4" height="33.9"/>
	<rect x="726" y="4452.8" class="st1" width="14.8" height="14"/>
	<polygon class="st14" points="764.4,4415.9 771,4411.5 767.7,4419.3 776.4,4425.6 767.7,4428.1 759.3,4436.2 759.3,4427.4 
		750.2,4427.5 755,4423.8 749.8,4415.9 757,4418.7 763.1,4409.9 	"/>
	<polygon class="st16" points="764,4417.8 769,4414.4 766.5,4420.3 773,4424.9 766.5,4426.8 760.3,4432.9 760.3,4426.3 
		753.5,4426.3 757.1,4423.7 753.2,4417.8 758.6,4419.8 763.1,4413.3 	"/>
</g>
<g>
	<polygon class="st14" points="781.5,5703.4 617.9,5703.4 617.9,5686.1 700.7,5651.8 781.5,5686.1 	"/>
	<polygon class="st2" points="781.5,5626.7 617.9,5626.7 617.9,5625.4 700.7,5591.1 781.5,5625.4 	"/>
	<polygon class="st1" points="700.7,5591.1 617.9,5624.9 617.9,5686.9 700.7,5651.8 	"/>
	<polygon class="st15" points="781.5,5624.9 700.7,5591.1 700.7,5651.8 781.5,5686.9 	"/>
	<polygon class="st14" points="665.1,5630.4 659.7,5634 662.4,5627.7 655.5,5622.7 662.6,5620.7 669.5,5614.1 669.5,5621.2 
		676.6,5621.2 672.7,5624.1 676.7,5630.4 671,5628.2 666.1,5635.2 	"/>
	<polygon class="st16" points="665.3,5628.6 661.4,5631.2 663.3,5626.6 658.2,5622.8 663.4,5621.3 668.5,5616.5 668.5,5621.7 
		673.9,5621.7 671,5623.9 674,5628.6 669.7,5626.9 666.1,5632.1 	"/>
	<rect x="673.8" y="5669.4" class="st1" width="25.4" height="33.9"/>
	<rect x="707.2" y="5669.4" class="st1" width="14.8" height="14"/>
	<polygon class="st14" points="732.8,5622.8 719.8,5614.1 726.3,5629.3 709.4,5641.5 727.3,5646.4 744.5,5662.3 744.5,5645.1 
		761.3,5645.2 751.5,5638.2 761.2,5622.8 747.2,5628.1 735.3,5611.1 	"/>
	<polygon class="st16" points="733.4,5626.3 723.8,5619.9 728.6,5631.2 716.1,5640.3 729,5643.9 741.5,5655.7 741.5,5642.9 
		754.3,5643 747.2,5637.8 754.5,5626.4 744.1,5630.3 735.3,5617.6 	"/>
	<path class="st17" d="M736.7,5621.8c-5.1,0-9.3-4.2-9.3-9.3c0-3.8,2.3-7,5.5-8.5c-0.2-0.6-0.4-1.3-0.4-2c0-0.6,0.1-1.2,0.3-1.8
		c-1.9-0.5-3.3-2.1-3.3-4.2c0-2,1.4-3.7,3.3-4.2c-0.1-0.4-0.2-0.8-0.2-1.3c0-2.2,1.8-4,4-4s4,1.8,4,4c0,1.8-1.2,3.3-2.8,3.8
		c0.2,0.5,0.3,1,0.3,1.6c0,0.1,0,0.2,0,0.3l0,0c3.1,0,5.6,2.5,5.6,5.6c0,1.3-0.4,2.5-1.2,3.4c2,1.7,3.3,4.3,3.3,7.1
		c0,0.3,0,0.7-0.1,1c0,0,0,0,0.1,0c4.5,0,8.1,3.6,8.1,8.1c0,4-2.9,7.3-6.6,8c0,0.2,0,0.4,0,0.6c0,3.5-2.8,6.3-6.3,6.3
		s-6.3-2.8-6.3-6.3c0-2.5,1.4-4.6,3.5-5.6c-0.3-0.9-0.5-1.8-0.5-2.8C737.5,5621.8,737.1,5621.8,736.7,5621.8z"/>
</g>
<g>
	<polygon class="st14" points="1868.5,4749.1 1704.9,4749.1 1704.9,4731.9 1787.7,4697.5 1868.5,4731.9 	"/>
	<polygon class="st2" points="1868.5,4672.5 1704.9,4672.5 1704.9,4671.1 1787.7,4636.9 1868.5,4671.1 	"/>
	<polygon class="st1" points="1787.7,4636.9 1704.9,4670.6 1704.9,4732.6 1787.7,4697.5 	"/>
	<polygon class="st15" points="1868.5,4670.6 1787.7,4636.9 1787.7,4697.5 1868.5,4732.6 	"/>
	<polygon class="st14" points="1752.1,4676.1 1746.7,4679.8 1749.4,4673.5 1742.5,4668.5 1749.6,4666.5 1756.5,4659.9 1756.5,4667 
		1763.6,4667 1759.7,4669.9 1763.7,4676.1 1758,4674 1753.1,4681 	"/>
	<polygon class="st16" points="1752.3,4674.4 1748.4,4677 1750.3,4672.4 1745.2,4668.5 1750.4,4667 1755.5,4662.2 1755.5,4667.5 
		1760.9,4667.5 1758,4669.6 1761,4674.4 1756.7,4672.6 1753.1,4677.9 	"/>
	<rect x="1760.8" y="4715.1" class="st1" width="25.4" height="33.9"/>
	<rect x="1794.2" y="4715.1" class="st1" width="14.8" height="14"/>
	<polygon class="st14" points="1819.8,4668.5 1806.8,4659.9 1813.3,4675 1796.4,4687.2 1814.3,4692.1 1831.5,4708 1831.5,4690.9 
		1848.3,4691 1838.5,4684 1848.2,4668.5 1834.2,4673.9 1822.3,4656.9 	"/>
	<polygon class="st16" points="1820.4,4672 1810.8,4665.6 1815.6,4677 1803.1,4686 1816,4689.6 1828.5,4701.5 1828.5,4688.6 
		1841.3,4688.8 1834.2,4683.5 1841.5,4672.1 1831.1,4676 1822.3,4663.4 	"/>
	<path class="st17" d="M1823.7,4667.5c-5.1,0-9.3-4.2-9.3-9.3c0-3.8,2.3-7,5.5-8.5c-0.2-0.6-0.4-1.3-0.4-2c0-0.6,0.1-1.2,0.3-1.8
		c-1.9-0.5-3.3-2.1-3.3-4.2c0-2,1.4-3.7,3.3-4.2c-0.1-0.4-0.2-0.8-0.2-1.3c0-2.2,1.8-4,4-4s4,1.8,4,4c0,1.8-1.2,3.3-2.8,3.8
		c0.2,0.5,0.3,1,0.3,1.6c0,0.1,0,0.2,0,0.3l0,0c3.1,0,5.6,2.5,5.6,5.6c0,1.3-0.4,2.5-1.2,3.4c2,1.7,3.3,4.3,3.3,7.1
		c0,0.3,0,0.7-0.1,1c0,0,0,0,0.1,0c4.5,0,8.1,3.6,8.1,8.1c0,4-2.9,7.3-6.6,8c0,0.2,0,0.4,0,0.6c0,3.5-2.8,6.3-6.3,6.3
		s-6.3-2.8-6.3-6.3c0-2.5,1.4-4.6,3.5-5.6c-0.3-0.9-0.5-1.8-0.5-2.8C1824.5,4667.5,1824.1,4667.5,1823.7,4667.5z"/>
</g>
<g>
	<polygon class="st14" points="1867.6,5620.5 1692,5620.5 1692,5592.2 1779.8,5564.9 1867.6,5592.2 	"/>
	<polygon class="st2" points="1867.6,5517.8 1692,5517.8 1692,5489.5 1779.8,5462.2 1867.6,5489.5 	"/>
	<polygon class="st1" points="1779.8,5462.2 1692,5489 1692,5593 1779.8,5564.9 	"/>
	<polygon class="st15" points="1867.6,5489 1779.8,5462.2 1779.8,5564.9 1867.6,5593 	"/>
	<polygon class="st14" points="1821.3,5501.5 1806.1,5491.5 1813.7,5509.2 1794,5523.4 1814.6,5529.1 1834.4,5547.6 1834.4,5527.6 
		1854.3,5527.7 1843,5519.5 1854.4,5501.6 1838,5507.8 1824.2,5487.9 	"/>
	<polygon class="st16" points="1822,5505.7 1810.8,5498.2 1816.4,5511.4 1801.8,5522 1816.9,5526.2 1831.4,5539.9 1831.4,5525.1 
		1846.4,5525.2 1838.1,5519.1 1846.6,5505.7 1834.5,5510.4 1824.2,5495.6 	"/>
	<polygon class="st14" points="1806.5,5540.6 1813.1,5536.2 1809.8,5544 1818.5,5550.3 1809.8,5552.8 1801.4,5560.9 1801.4,5552.1 
		1792.3,5552.2 1797.1,5548.5 1791.9,5540.6 1799.1,5543.4 1805.2,5534.6 	"/>
	<polygon class="st16" points="1806.1,5542.5 1811.1,5539.1 1808.6,5545 1815.1,5549.6 1808.6,5551.5 1802.4,5557.6 1802.4,5551 
		1795.6,5551 1799.2,5548.4 1795.3,5542.5 1800.7,5544.5 1805.2,5538 	"/>
	<rect x="1767.1" y="5586.5" class="st1" width="25.4" height="33.9"/>
	<path class="st17" d="M1836.8,5497.7c6.9,0,12.5-5.6,12.5-12.5c0-5.1-3.1-9.5-7.5-11.5c0.3-0.9,0.5-1.8,0.5-2.8
		c0-0.8-0.1-1.6-0.4-2.4c2.5-0.6,4.4-2.9,4.4-5.6c0-2.7-1.9-5-4.4-5.6c0.2-0.5,0.3-1.1,0.3-1.7c0-3-2.4-5.5-5.5-5.5
		c-3,0-5.5,2.4-5.5,5.5c0,2.4,1.6,4.5,3.8,5.2c-0.3,0.7-0.4,1.4-0.4,2.1c0,0.1,0,0.3,0,0.4l0,0c-4.2,0-7.6,3.4-7.6,7.6
		c0,1.7,0.6,3.3,1.6,4.6c-2.7,2.3-4.5,5.8-4.5,9.6c0,0.4,0,0.9,0.1,1.3c0,0,0,0-0.1,0c-6,0-10.9,4.9-10.9,10.9c0,5.4,3.9,9.8,9,10.8
		c0,0.3,0,0.5,0,0.8c0,4.7,3.8,8.5,8.5,8.5s8.5-3.8,8.5-8.5c0-3.4-2-6.2-4.8-7.6c0.5-1.2,0.7-2.5,0.7-3.8
		C1835.7,5497.7,1836.3,5497.7,1836.8,5497.7z"/>
</g>
<g>
	<polygon class="st14" points="576,4372.2 400.4,4372.2 400.4,4344 488.2,4316.6 576,4344 	"/>
	<polygon class="st2" points="576,4269.5 400.4,4269.5 400.4,4241.2 488.2,4214 576,4241.2 	"/>
	<polygon class="st1" points="488.2,4214 400.4,4240.8 400.4,4344.8 488.2,4316.6 	"/>
	<polygon class="st15" points="576,4240.8 488.2,4214 488.2,4316.6 576,4344.8 	"/>
	<polygon class="st14" points="441.6,4293.8 426.5,4303.9 434,4286 414.4,4271.9 435.1,4266.1 455,4247.6 455,4267.6 474.8,4267.5 
		463.4,4275.8 474.8,4293.6 458.4,4287.5 444.6,4307.4 	"/>
	<polygon class="st16" points="442.4,4288.5 431.1,4296 436.8,4282.9 422.2,4272.4 437.3,4268 452,4254.4 452,4269.2 466.9,4269.1 
		458.5,4275.2 467,4288.5 454.9,4284 444.6,4298.6 	"/>
	<rect x="459.3" y="4338.2" class="st1" width="25.4" height="33.9"/>
	<rect x="500.1" y="4338.2" class="st1" width="25.4" height="20.7"/>
	<path class="st17" d="M437.7,4260.6c-6.5,0-11.8-5.3-11.8-11.8c0-4.8,2.9-8.9,7-10.8c-0.3-0.8-0.5-1.7-0.5-2.6
		c0-0.8,0.1-1.5,0.4-2.2c-2.4-0.6-4.1-2.7-4.1-5.3c0-2.6,1.8-4.7,4.1-5.3c-0.2-0.5-0.3-1-0.3-1.6c0-2.8,2.3-5.1,5.1-5.1
		c2.8,0,5.1,2.3,5.1,5.1c0,2.3-1.5,4.2-3.6,4.9c0.2,0.6,0.4,1.3,0.4,2c0,0.1,0,0.3,0,0.4l0,0c4,0,7.2,3.2,7.2,7.2
		c0,1.6-0.6,3.1-1.5,4.3c2.6,2.2,4.2,5.4,4.2,9c0,0.4,0,0.8-0.1,1.2c0,0,0,0,0.1,0c5.7,0,10.3,4.6,10.3,10.3c0,5.1-3.6,9.3-8.4,10.1
		c0,0.3,0,0.5,0,0.8c0,4.4-3.6,8-8,8s-8-3.6-8-8c0-3.2,1.8-5.9,4.5-7.2c-0.4-1.1-0.7-2.3-0.7-3.6
		C438.7,4260.6,438.2,4260.6,437.7,4260.6z"/>
</g>
<g>
	<polygon class="st14" points="1603.5,4319 1427.9,4319 1427.9,4247.7 1515.7,4220.4 1603.5,4247.7 	"/>
	<polygon class="st2" points="1603.5,4216.3 1427.9,4216.3 1427.9,4196.8 1515.7,4169.5 1603.5,4196.8 	"/>
	<polygon class="st1" points="1515.7,4169.5 1427.9,4196.2 1427.9,4248.5 1515.7,4220.4 	"/>
	<polygon class="st15" points="1603.5,4196.2 1515.7,4169.5 1515.7,4220.4 1603.5,4248.5 	"/>
	<rect x="1466.8" y="4285" class="st1" width="25.4" height="33.9"/>
	<rect x="1504" y="4286.1" class="st1" width="14.8" height="14"/>
	<path class="st17" d="M1555.6,4150.4c5.1,0,9.3-4.2,9.3-9.3c0-3.8-2.3-7-5.5-8.5c0.2-0.6,0.4-1.3,0.4-2c0-0.6-0.1-1.2-0.3-1.8
		c1.9-0.5,3.3-2.1,3.3-4.2c0-2-1.4-3.7-3.3-4.2c0.1-0.4,0.2-0.8,0.2-1.3c0-2.2-1.8-4-4-4s-4,1.8-4,4c0,1.8,1.2,3.3,2.8,3.8
		c-0.2,0.5-0.3,1-0.3,1.6c0,0.1,0,0.2,0,0.3l0,0c-3.1,0-5.6,2.5-5.6,5.6c0,1.3,0.4,2.5,1.2,3.4c-2,1.7-3.3,4.3-3.3,7.1
		c0,0.3,0,0.7,0.1,1c0,0,0,0-0.1,0c-4.5,0-8.1,3.6-8.1,8.1c0,4,2.9,7.3,6.6,8c0,0.2,0,0.4,0,0.6c0,3.5,2.8,6.3,6.3,6.3
		s6.3-2.8,6.3-6.3c0-2.5-1.4-4.6-3.5-5.6c0.3-0.9,0.5-1.8,0.5-2.8C1554.8,4150.4,1555.2,4150.4,1555.6,4150.4z"/>
	<rect x="1538" y="4161.1" class="st1" width="25.4" height="48.7"/>
</g>
<g>
	<g>
		<polygon class="st14" points="677.3,5059.2 513.7,5059.2 513.7,5042 596.5,5007.6 677.3,5042 		"/>
		<polygon class="st2" points="677.3,4982.5 513.7,4982.5 513.7,4981.2 596.5,4947 677.3,4981.2 		"/>
		<polygon class="st1" points="596.5,4947 513.7,4980.8 513.7,5042.8 596.5,5007.6 		"/>
		<polygon class="st15" points="677.3,4980.8 596.5,4947 596.5,5007.6 677.3,5042.8 		"/>
		<polygon class="st15" points="548.1,5004.2 539.1,5010.2 543.6,4999.6 531.8,4991.1 544.3,4987.8 556.3,4976.6 556.3,4988.6 
			568.1,4988.5 561.2,4993.5 568,5004.2 558.2,5000.5 549.9,5012.4 		"/>
		<polygon class="st16" points="548.6,5001.1 541.8,5005.6 545.2,4997.8 536.5,4991.4 545.5,4988.9 554.3,4980.6 554.3,4989.5 
			563.2,4989.5 558.2,4993.1 563.3,5001.1 556,4998.4 549.9,5007.2 		"/>
		<path class="st17" d="M632.4,4946.2c3.6,0,6.5-2.9,6.5-6.5c0-2.7-1.6-4.9-3.9-6c0.2-0.4,0.3-0.9,0.3-1.4c0-0.4-0.1-0.9-0.2-1.2
			c1.3-0.3,2.3-1.5,2.3-2.9s-1-2.6-2.3-2.9c0.1-0.3,0.2-0.6,0.2-0.9c0-1.6-1.3-2.8-2.8-2.8c-1.6,0-2.8,1.3-2.8,2.8
			c0,1.3,0.8,2.3,2,2.7c-0.1,0.3-0.2,0.7-0.2,1.1c0,0.1,0,0.1,0,0.2l0,0c-2.2,0-4,1.8-4,4c0,0.9,0.3,1.7,0.8,2.4
			c-1.4,1.2-2.3,3-2.3,5c0,0.2,0,0.5,0,0.7l0,0c-3.1,0-5.7,2.6-5.7,5.7c0,2.8,2,5.1,4.7,5.6c0,0.1,0,0.3,0,0.4c0,2.4,2,4.4,4.4,4.4
			c2.4,0,4.4-2,4.4-4.4c0-1.7-1-3.3-2.5-4c0.2-0.6,0.4-1.3,0.4-2C631.8,4946.2,632.1,4946.2,632.4,4946.2z"/>
		<rect x="620" y="4953.8" class="st1" width="17.9" height="34.3"/>
	</g>
	<rect x="569.6" y="5033.5" class="st1" width="25.4" height="25.8"/>
</g>
<g>
	<g>
		<polygon class="st14" points="1868,5166.8 1704.4,5166.8 1704.4,5149.5 1787.2,5115.2 1868,5149.5 		"/>
		<polygon class="st2" points="1868,5090.1 1704.4,5090.1 1704.4,5088.8 1787.2,5054.5 1868,5088.8 		"/>
		<polygon class="st1" points="1787.2,5054.5 1704.4,5088.3 1704.4,5150.3 1787.2,5115.2 		"/>
		<polygon class="st15" points="1868,5088.3 1787.2,5054.5 1787.2,5115.2 1868,5150.3 		"/>
		<polygon class="st15" points="1738.8,5111.8 1729.8,5117.8 1734.3,5107.2 1722.5,5098.7 1735,5095.3 1747,5084.2 1747,5096.2 
			1758.8,5096.1 1751.9,5101 1758.7,5111.8 1748.9,5108 1740.6,5119.9 		"/>
		<polygon class="st16" points="1739.3,5108.7 1732.5,5113.2 1735.9,5105.3 1727.2,5098.9 1736.2,5096.4 1745,5088.2 1745,5097.1 
			1753.9,5097 1748.9,5100.7 1754,5108.7 1746.7,5105.9 1740.6,5114.8 		"/>
		<path class="st17" d="M1823.1,5053.8c3.6,0,6.5-2.9,6.5-6.5c0-2.7-1.6-4.9-3.9-6c0.2-0.4,0.3-0.9,0.3-1.4c0-0.4-0.1-0.9-0.2-1.2
			c1.3-0.3,2.3-1.5,2.3-2.9c0-1.4-1-2.6-2.3-2.9c0.1-0.3,0.2-0.6,0.2-0.9c0-1.6-1.3-2.8-2.8-2.8c-1.6,0-2.8,1.3-2.8,2.8
			c0,1.3,0.8,2.3,2,2.7c-0.1,0.3-0.2,0.7-0.2,1.1c0,0.1,0,0.1,0,0.2l0,0c-2.2,0-4,1.8-4,4c0,0.9,0.3,1.7,0.8,2.4
			c-1.4,1.2-2.3,3-2.3,5c0,0.2,0,0.5,0,0.7l0,0c-3.1,0-5.7,2.6-5.7,5.7c0,2.8,2,5.1,4.7,5.6c0,0.1,0,0.3,0,0.4c0,2.4,2,4.4,4.4,4.4
			s4.4-2,4.4-4.4c0-1.7-1-3.3-2.5-4c0.2-0.6,0.4-1.3,0.4-2C1822.5,5053.8,1822.8,5053.8,1823.1,5053.8z"/>
		<rect x="1810.7" y="5061.3" class="st1" width="17.9" height="34.3"/>
	</g>
	<rect x="1760.3" y="5141" class="st1" width="25.4" height="25.8"/>
</g>
<g>
	<polygon class="st18" points="752.1,4745.2 815.1,4636.1 878,4745.2 	"/>
	<rect x="804.7" y="4735" class="st19" width="20.7" height="32.3"/>
</g>
<g>
	<polygon class="st18" points="464.1,5286.2 527.1,5177.1 590,5286.2 	"/>
	<rect x="516.7" y="5275.9" class="st19" width="20.7" height="32.3"/>
</g>
<g>
	<polygon class="st18" points="459.3,5529.1 507.8,5445.2 556.2,5529.1 	"/>
	<rect x="499.8" y="5521.1" class="st19" width="15.9" height="24.9"/>
</g>
<g>
	<polygon class="st18" points="777.6,5012.2 813.2,4950.6 848.7,5012.2 	"/>
	<rect x="807.3" y="5006" class="st19" width="11.7" height="18.2"/>
</g>
<g>
	<polygon class="st18" points="1577.5,4638.8 1613.1,4577.2 1648.6,4638.8 	"/>
	<rect x="1607.2" y="4632.6" class="st19" width="11.7" height="18.2"/>
</g>
<g>
	<polygon class="st18" points="501.6,4836.2 537.2,4774.6 572.7,4836.2 	"/>
	<rect x="531.3" y="4830" class="st19" width="11.7" height="18.2"/>
</g>
<g>
	<polygon class="st18" points="1682.3,3445.9 1718,3384.3 1753.5,3445.9 	"/>
	<rect x="1712.1" y="3439.7" class="st19" width="11.7" height="18.2"/>
</g>
<g>
	<polygon class="st18" points="1527.9,2934.9 1563.5,2873.3 1599,2934.9 	"/>
	<rect x="1557.6" y="2928.7" class="st19" width="11.7" height="18.2"/>
</g>
<g>
	<polygon class="st18" points="1525.2,5282.6 1577.6,5191.9 1629.9,5282.6 	"/>
	<rect x="1569" y="5273.7" class="st19" width="17.2" height="26.9"/>
</g>
<g>
	<polygon class="st18" points="1613.1,4522.6 1676.1,4413.6 1739,4522.6 	"/>
	<rect x="1665.7" y="4512.4" class="st19" width="20.7" height="32.3"/>
</g>
</svg>
