<?xml version="1.0" encoding="utf-8"?>
<!-- Generator: Adobe Illustrator 19.1.0, SVG Export Plug-In . SVG Version: 6.00 Build 0)  -->
<!DOCTYPE svg PUBLIC "-//W3C//DTD SVG 1.1//EN" "http://www.w3.org/Graphics/SVG/1.1/DTD/svg11.dtd">
<svg version="1.1" xmlns="http://www.w3.org/2000/svg" xmlns:xlink="http://www.w3.org/1999/xlink" x="0px" y="0px"
	 viewBox="0 0 2000 1500" style="enable-background:new 0 0 2000 1500;" xml:space="preserve">
<style type="text/css">
	.st0{fill:#E88F7E;}
	.st1{fill:#232323;}
	.st2{fill:#FCFC4C;}
	.st3{fill:#C14727;}
	.st4{fill:#494848;}
	.st5{opacity:0.75;fill:#CEC58E;}
	.st6{fill:#474646;}
	.st7{fill:#FFFFFF;}
	.st8{fill:#D4DFE8;}
	.st9{fill:none;stroke:#ACC0CC;stroke-width:10;stroke-linecap:round;stroke-miterlimit:10;}
	.st10{fill:none;stroke:#E88F7E;stroke-width:15;stroke-linecap:round;stroke-miterlimit:10;}
	.st11{fill:#F4D731;}
	.st12{fill:#8E8D8D;}
	.st13{fill:#ACC0CC;}
	.st14{fill:#A3A3A3;}
	.st15{fill:#6D6C6C;}
	.st16{fill:#1A1A1A;}
	.st17{fill:#E6E6E6;}
	.st18{fill:#9B9334;}
	.st19{fill:#725225;}
	.st20{display:none;}
	.st21{display:inline;fill:#D4DFE8;}
	.st22{display:inline;}
	.st23{fill:none;stroke:#E88F7E;stroke-width:10;stroke-linecap:round;stroke-miterlimit:10;}
</style>
<g id="Layer_1">
	<rect x="-0.3" class="st5" width="2000" height="1500"/>
	<rect x="797.8" y="-1.1" class="st6" width="403.8" height="1502.1"/>
	<g>
		<rect x="994" class="st7" width="12" height="30"/>
		<path class="st7" d="M1006,1405h-12v-58h12V1405z M1006,1280h-12v-58h12V1280z M1006,1155h-12v-58h12V1155z M1006,1030h-12v-58h12
			V1030z M1006,905h-12v-58h12V905z M1006,780h-12v-58h12V780z M1006,655h-12v-58h12V655z M1006,530h-12v-58h12V530z M1006,405h-12
			v-58h12V405z M1006,280h-12v-58h12V280z M1006,155h-12V97h12V155z"/>
		<rect x="994" y="1470" class="st7" width="12" height="30"/>
	</g>
	<g>
		<rect x="820" class="st7" width="12" height="1500"/>
		<rect x="1168" class="st7" width="12" height="1500"/>
	</g>
	<g>
		<polygon class="st14" points="739.2,1035.9 563.6,1035.9 563.6,1007.6 651.4,980.3 739.2,1007.6 		"/>
		<polygon class="st0" points="739.2,933.2 563.6,933.2 563.6,904.9 651.4,877.6 739.2,904.9 		"/>
		<polygon class="st6" points="651.4,877.6 563.6,904.4 563.6,1008.4 651.4,980.3 		"/>
		<polygon class="st15" points="739.2,904.4 651.4,877.6 651.4,980.3 739.2,1008.4 		"/>
		<polygon class="st14" points="692.9,916.9 677.7,906.9 685.3,924.6 665.6,938.8 686.2,944.5 706,963 706,943 725.9,943.1 
			714.6,934.9 726,917 709.6,923.2 695.8,903.3 		"/>
		<polygon class="st16" points="693.6,921.1 682.4,913.6 688,926.8 673.4,937.4 688.5,941.6 703,955.3 703,940.5 718,940.6 
			709.7,934.5 718.2,921.1 706.1,925.8 695.8,911 		"/>
		<rect x="638.7" y="1001.9" class="st6" width="25.4" height="33.9"/>
	</g>
	<g>
		<polygon class="st14" points="595,474.9 431.4,474.9 431.4,457.6 514.2,423.3 595,457.6 		"/>
		<polygon class="st6" points="514.2,362.6 431.4,396.4 431.4,458.4 514.2,423.3 		"/>
		<polygon class="st15" points="595,396.4 514.2,362.6 514.2,423.3 595,458.4 		"/>
		<polygon class="st15" points="484.2,461.9 477,466.7 480.6,458.2 471.3,451.5 481.3,448.8 491,440 491,449.5 500.2,449.5 
			494.7,453.3 500,461.9 492.2,458.9 485.6,468.3 		"/>
		<polygon class="st16" points="484.6,459.4 479.2,463 481.9,456.7 474.9,451.7 482.1,449.7 489,443.2 489,450.2 496.1,450.2 
			492.2,453.1 496.2,459.4 490.5,457.2 485.6,464.2 		"/>
		<rect x="515.4" y="440.9" class="st6" width="25.4" height="33.9"/>
	</g>
	<g>
		<polygon class="st14" points="1411,844.9 1247.4,844.9 1247.4,827.6 1330.2,793.3 1411,827.6 		"/>
		<polygon class="st6" points="1330.2,732.6 1247.4,766.4 1247.4,828.4 1330.2,793.3 		"/>
		<polygon class="st15" points="1411,766.4 1330.2,732.6 1330.2,793.3 1411,828.4 		"/>
		<polygon class="st15" points="1300.2,831.9 1293,836.7 1296.6,828.2 1287.3,821.5 1297.3,818.8 1307,810 1307,819.5 1316.2,819.5 
			1310.7,823.3 1316,831.9 1308.2,828.9 1301.6,838.3 		"/>
		<polygon class="st16" points="1300.6,829.4 1295.2,833 1297.9,826.7 1290.9,821.7 1298.1,819.7 1305,813.2 1305,820.2 
			1312.1,820.2 1308.2,823.1 1312.2,829.4 1306.5,827.2 1301.6,834.2 		"/>
		<rect x="1331.4" y="810.9" class="st6" width="25.4" height="33.9"/>
	</g>
	<g>
		<polygon class="st14" points="718,306.9 554.4,306.9 554.4,289.6 637.2,255.3 718,289.6 		"/>
		<polygon class="st0" points="718,230.2 554.4,230.2 554.4,228.9 637.2,194.6 718,228.9 		"/>
		<polygon class="st6" points="637.2,194.6 554.4,228.4 554.4,290.4 637.2,255.3 		"/>
		<polygon class="st15" points="718,228.4 637.2,194.6 637.2,255.3 718,290.4 		"/>
		<rect x="610.3" y="272.9" class="st6" width="25.4" height="33.9"/>
		<rect x="643.7" y="272.9" class="st6" width="14.8" height="14"/>
		<polygon class="st14" points="682.1,236 688.7,231.6 685.4,239.4 694.1,245.7 685.4,248.2 677,256.3 677,247.5 667.9,247.6 
			672.7,243.9 667.5,236 674.7,238.8 680.8,230 		"/>
		<polygon class="st16" points="681.7,237.9 686.7,234.5 684.2,240.4 690.7,245 684.2,246.9 678,253 678,246.4 671.2,246.4 
			674.8,243.8 670.9,237.9 676.3,239.9 680.8,233.4 		"/>
	</g>
	<g>
		<polygon class="st14" points="610,1206.9 446.4,1206.9 446.4,1189.6 529.2,1155.3 610,1189.6 		"/>
		<polygon class="st0" points="610,1130.2 446.4,1130.2 446.4,1128.9 529.2,1094.6 610,1128.9 		"/>
		<polygon class="st6" points="529.2,1094.6 446.4,1128.4 446.4,1190.4 529.2,1155.3 		"/>
		<polygon class="st15" points="610,1128.4 529.2,1094.6 529.2,1155.3 610,1190.4 		"/>
		<polygon class="st14" points="493.6,1133.9 488.2,1137.5 490.9,1131.2 484,1126.2 491.1,1124.2 498,1117.6 498,1124.7 
			505.1,1124.7 501.2,1127.6 505.2,1133.9 499.5,1131.7 494.6,1138.7 		"/>
		<polygon class="st16" points="493.8,1132.1 489.9,1134.7 491.8,1130.1 486.7,1126.3 491.9,1124.8 497,1120 497,1125.2 
			502.4,1125.2 499.5,1127.4 502.5,1132.1 498.2,1130.4 494.6,1135.6 		"/>
		<rect x="502.3" y="1172.9" class="st6" width="25.4" height="33.9"/>
		<rect x="535.7" y="1172.9" class="st6" width="14.8" height="14"/>
		<polygon class="st14" points="561.3,1126.3 548.3,1117.6 554.8,1132.8 537.9,1145 555.8,1149.9 573,1165.8 573,1148.6 
			589.8,1148.7 580,1141.7 589.7,1126.3 575.7,1131.6 563.8,1114.6 		"/>
		<polygon class="st16" points="561.9,1129.8 552.3,1123.4 557.1,1134.7 544.6,1143.8 557.5,1147.4 570,1159.2 570,1146.4 
			582.8,1146.5 575.7,1141.3 583,1129.9 572.6,1133.8 563.8,1121.1 		"/>
		<path class="st17" d="M565.2,1125.3c-5.1,0-9.3-4.2-9.3-9.3c0-3.8,2.3-7,5.5-8.5c-0.2-0.6-0.4-1.3-0.4-2c0-0.6,0.1-1.2,0.3-1.8
			c-1.9-0.5-3.3-2.1-3.3-4.2c0-2,1.4-3.7,3.3-4.2c-0.1-0.4-0.2-0.8-0.2-1.3c0-2.2,1.8-4,4-4s4,1.8,4,4c0,1.8-1.2,3.3-2.8,3.8
			c0.2,0.5,0.3,1,0.3,1.6c0,0.1,0,0.2,0,0.3c0,0,0,0,0,0c3.1,0,5.6,2.5,5.6,5.6c0,1.3-0.4,2.5-1.2,3.4c2,1.7,3.3,4.3,3.3,7.1
			c0,0.3,0,0.7-0.1,1c0,0,0,0,0.1,0c4.5,0,8.1,3.6,8.1,8.1c0,4-2.9,7.3-6.6,8c0,0.2,0,0.4,0,0.6c0,3.5-2.8,6.3-6.3,6.3
			c-3.5,0-6.3-2.8-6.3-6.3c0-2.5,1.4-4.6,3.5-5.6c-0.3-0.9-0.5-1.8-0.5-2.8C566,1125.3,565.6,1125.3,565.2,1125.3z"/>
	</g>
	<g>
		<polygon class="st14" points="1691,711.9 1527.4,711.9 1527.4,694.6 1610.2,660.3 1691,694.6 		"/>
		<polygon class="st0" points="1691,635.2 1527.4,635.2 1527.4,633.9 1610.2,599.6 1691,633.9 		"/>
		<polygon class="st6" points="1610.2,599.6 1527.4,633.4 1527.4,695.4 1610.2,660.3 		"/>
		<polygon class="st15" points="1691,633.4 1610.2,599.6 1610.2,660.3 1691,695.4 		"/>
		<polygon class="st14" points="1574.6,638.9 1569.2,642.5 1571.9,636.2 1565,631.2 1572.1,629.2 1579,622.6 1579,629.7 
			1586.1,629.7 1582.2,632.6 1586.2,638.9 1580.5,636.7 1575.6,643.7 		"/>
		<polygon class="st16" points="1574.8,637.1 1570.9,639.7 1572.8,635.1 1567.7,631.3 1572.9,629.8 1578,625 1578,630.2 
			1583.4,630.2 1580.5,632.4 1583.5,637.1 1579.2,635.4 1575.6,640.6 		"/>
		<rect x="1583.3" y="677.9" class="st6" width="25.4" height="33.9"/>
		<rect x="1616.7" y="677.9" class="st6" width="14.8" height="14"/>
		<polygon class="st14" points="1642.3,631.3 1629.3,622.6 1635.8,637.8 1618.9,650 1636.8,654.9 1654,670.8 1654,653.6 
			1670.8,653.7 1661,646.7 1670.7,631.3 1656.7,636.6 1644.8,619.6 		"/>
		<polygon class="st16" points="1642.9,634.8 1633.3,628.4 1638.1,639.7 1625.6,648.8 1638.5,652.4 1651,664.2 1651,651.4 
			1663.8,651.5 1656.7,646.3 1664,634.9 1653.6,638.8 1644.8,626.1 		"/>
		<path class="st17" d="M1646.2,630.3c-5.1,0-9.3-4.2-9.3-9.3c0-3.8,2.3-7,5.5-8.5c-0.2-0.6-0.4-1.3-0.4-2c0-0.6,0.1-1.2,0.3-1.8
			c-1.9-0.5-3.3-2.1-3.3-4.2c0-2,1.4-3.7,3.3-4.2c-0.1-0.4-0.2-0.8-0.2-1.3c0-2.2,1.8-4,4-4c2.2,0,4,1.8,4,4c0,1.8-1.2,3.3-2.8,3.8
			c0.2,0.5,0.3,1,0.3,1.6c0,0.1,0,0.2,0,0.3c0,0,0,0,0,0c3.1,0,5.6,2.5,5.6,5.6c0,1.3-0.4,2.5-1.2,3.4c2,1.7,3.3,4.3,3.3,7.1
			c0,0.3,0,0.7-0.1,1c0,0,0,0,0.1,0c4.5,0,8.1,3.6,8.1,8.1c0,4-2.9,7.3-6.6,8c0,0.2,0,0.4,0,0.6c0,3.5-2.8,6.3-6.3,6.3
			s-6.3-2.8-6.3-6.3c0-2.5,1.4-4.6,3.5-5.6c-0.3-0.9-0.5-1.8-0.5-2.8C1647,630.3,1646.6,630.3,1646.2,630.3z"/>
	</g>
	<g>
		<polygon class="st14" points="1706.2,975.9 1530.6,975.9 1530.6,947.6 1618.4,920.3 1706.2,947.6 		"/>
		<polygon class="st0" points="1706.2,873.2 1530.6,873.2 1530.6,844.9 1618.4,817.6 1706.2,844.9 		"/>
		<polygon class="st6" points="1618.4,817.6 1530.6,844.4 1530.6,948.4 1618.4,920.3 		"/>
		<polygon class="st15" points="1706.2,844.4 1618.4,817.6 1618.4,920.3 1706.2,948.4 		"/>
		<polygon class="st14" points="1659.9,856.9 1644.7,846.9 1652.3,864.6 1632.6,878.8 1653.2,884.5 1673,903 1673,883 1692.9,883.1 
			1681.6,874.9 1693,857 1676.6,863.2 1662.8,843.3 		"/>
		<polygon class="st16" points="1660.6,861.1 1649.4,853.6 1655,866.8 1640.4,877.4 1655.5,881.6 1670,895.3 1670,880.5 1685,880.6 
			1676.7,874.5 1685.2,861.1 1673.1,865.8 1662.8,851 		"/>
		<polygon class="st14" points="1645.1,896 1651.7,891.6 1648.4,899.4 1657.1,905.7 1648.4,908.2 1640,916.3 1640,907.5 
			1630.9,907.6 1635.7,903.9 1630.5,896 1637.7,898.8 1643.8,890 		"/>
		<polygon class="st16" points="1644.7,897.9 1649.7,894.5 1647.2,900.4 1653.7,905 1647.2,906.9 1641,913 1641,906.4 1634.2,906.4 
			1637.8,903.8 1633.9,897.9 1639.3,899.9 1643.8,893.4 		"/>
		<rect x="1605.7" y="941.9" class="st6" width="25.4" height="33.9"/>
		<path class="st17" d="M1675.4,853.1c6.9,0,12.5-5.6,12.5-12.5c0-5.1-3.1-9.5-7.5-11.5c0.3-0.9,0.5-1.8,0.5-2.8
			c0-0.8-0.1-1.6-0.4-2.4c2.5-0.6,4.4-2.9,4.4-5.6c0-2.7-1.9-5-4.4-5.6c0.2-0.5,0.3-1.1,0.3-1.7c0-3-2.4-5.5-5.5-5.5
			c-3,0-5.5,2.4-5.5,5.5c0,2.4,1.6,4.5,3.8,5.2c-0.3,0.7-0.4,1.4-0.4,2.1c0,0.1,0,0.3,0,0.4c0,0,0,0,0,0c-4.2,0-7.6,3.4-7.6,7.6
			c0,1.7,0.6,3.3,1.6,4.6c-2.7,2.3-4.5,5.8-4.5,9.6c0,0.4,0,0.9,0.1,1.3c0,0,0,0-0.1,0c-6,0-10.9,4.9-10.9,10.9
			c0,5.4,3.9,9.8,9,10.8c0,0.3,0,0.5,0,0.8c0,4.7,3.8,8.5,8.5,8.5c4.7,0,8.5-3.8,8.5-8.5c0-3.4-2-6.2-4.8-7.6
			c0.5-1.2,0.7-2.5,0.7-3.8C1674.3,853.1,1674.9,853.1,1675.4,853.1z"/>
	</g>
	<g>
		<polygon class="st14" points="480,300.9 304.4,300.9 304.4,272.6 392.2,245.3 480,272.6 		"/>
		<polygon class="st0" points="480,198.2 304.4,198.2 304.4,169.9 392.2,142.6 480,169.9 		"/>
		<polygon class="st6" points="392.2,142.6 304.4,169.4 304.4,273.4 392.2,245.3 		"/>
		<polygon class="st15" points="480,169.4 392.2,142.6 392.2,245.3 480,273.4 		"/>
		<polygon class="st14" points="345.6,222.4 330.5,232.5 338,214.7 318.4,200.5 339.1,194.8 359,176.3 359,196.3 378.8,196.2 
			367.4,204.4 378.8,222.3 362.4,216.1 348.6,236 		"/>
		<polygon class="st16" points="346.4,217.2 335.1,224.7 340.8,211.5 326.2,201 341.3,196.7 356,183 356,197.9 370.9,197.8 
			362.5,203.9 371,217.2 358.9,212.6 348.6,227.3 		"/>
		<rect x="363.3" y="266.9" class="st6" width="25.4" height="33.9"/>
		<rect x="404.1" y="266.9" class="st6" width="25.4" height="20.7"/>
		<path class="st17" d="M341.7,189.3c-6.5,0-11.8-5.3-11.8-11.8c0-4.8,2.9-8.9,7-10.8c-0.3-0.8-0.5-1.7-0.5-2.6
			c0-0.8,0.1-1.5,0.4-2.2c-2.4-0.6-4.1-2.7-4.1-5.3c0-2.6,1.8-4.7,4.1-5.3c-0.2-0.5-0.3-1-0.3-1.6c0-2.8,2.3-5.1,5.1-5.1
			c2.8,0,5.1,2.3,5.1,5.1c0,2.3-1.5,4.2-3.6,4.9c0.2,0.6,0.4,1.3,0.4,2c0,0.1,0,0.3,0,0.4c0,0,0,0,0,0c4,0,7.2,3.2,7.2,7.2
			c0,1.6-0.6,3.1-1.5,4.3c2.6,2.2,4.2,5.4,4.2,9c0,0.4,0,0.8-0.1,1.2c0,0,0,0,0.1,0c5.7,0,10.3,4.6,10.3,10.3
			c0,5.1-3.6,9.3-8.4,10.1c0,0.3,0,0.5,0,0.8c0,4.4-3.6,8-8,8s-8-3.6-8-8c0-3.2,1.8-5.9,4.5-7.2c-0.4-1.1-0.7-2.3-0.7-3.6
			C342.7,189.3,342.2,189.3,341.7,189.3z"/>
	</g>
	<g>
		<polygon class="st15" points="1091.9,512.3 1078.7,483.9 1073.8,516.8 1032.1,520.1 1066.7,542.2 1065.7,581.5 1088.6,563 
			1117.4,580.8 1107.9,558.5 1140.7,542.2 1111.1,536.7 1108.5,494.9 		"/>
		<polygon class="st16" points="1089.3,519.1 1079.5,498 1075.9,522.5 1044.9,524.9 1072.3,539.7 1070.4,569.4 1085.8,556.1 
			1107.7,569.7 1100.9,553.3 1125.5,541.3 1103.5,537.2 1101.6,506.2 		"/>
	</g>
	<g>
		<polygon class="st14" points="1466.2,574.9 1290.6,574.9 1290.6,503.6 1378.4,476.3 1466.2,503.6 		"/>
		<polygon class="st0" points="1466.2,472.2 1290.6,472.2 1290.6,452.7 1378.4,425.4 1466.2,452.7 		"/>
		<polygon class="st6" points="1378.4,425.4 1290.6,452.1 1290.6,504.4 1378.4,476.3 		"/>
		<polygon class="st15" points="1466.2,452.1 1378.4,425.4 1378.4,476.3 1466.2,504.4 		"/>
		<rect x="1329.5" y="540.9" class="st6" width="25.4" height="33.9"/>
		<rect x="1366.7" y="542" class="st6" width="14.8" height="14"/>
		<path class="st17" d="M1418.3,406.3c5.1,0,9.3-4.2,9.3-9.3c0-3.8-2.3-7-5.5-8.5c0.2-0.6,0.4-1.3,0.4-2c0-0.6-0.1-1.2-0.3-1.8
			c1.9-0.5,3.3-2.1,3.3-4.2c0-2-1.4-3.7-3.3-4.2c0.1-0.4,0.2-0.8,0.2-1.3c0-2.2-1.8-4-4-4s-4,1.8-4,4c0,1.8,1.2,3.3,2.8,3.8
			c-0.2,0.5-0.3,1-0.3,1.6c0,0.1,0,0.2,0,0.3c0,0,0,0,0,0c-3.1,0-5.6,2.5-5.6,5.6c0,1.3,0.4,2.5,1.2,3.4c-2,1.7-3.3,4.3-3.3,7.1
			c0,0.3,0,0.7,0.1,1c0,0,0,0-0.1,0c-4.5,0-8.1,3.6-8.1,8.1c0,4,2.9,7.3,6.6,8c0,0.2,0,0.4,0,0.6c0,3.5,2.8,6.3,6.3,6.3
			s6.3-2.8,6.3-6.3c0-2.5-1.4-4.6-3.5-5.6c0.3-0.9,0.5-1.8,0.5-2.8C1417.5,406.3,1417.9,406.3,1418.3,406.3z"/>
		<rect x="1400.7" y="417" class="st6" width="25.4" height="48.7"/>
	</g>
	<g>
		<g>
			<polygon class="st14" points="499,918.9 335.4,918.9 335.4,901.6 418.2,867.3 499,901.6 			"/>
			<polygon class="st0" points="499,842.2 335.4,842.2 335.4,840.9 418.2,806.6 499,840.9 			"/>
			<polygon class="st6" points="418.2,806.6 335.4,840.4 335.4,902.4 418.2,867.3 			"/>
			<polygon class="st15" points="499,840.4 418.2,806.6 418.2,867.3 499,902.4 			"/>
			<polygon class="st15" points="369.8,863.9 360.8,869.9 365.3,859.3 353.5,850.8 366,847.4 378,836.3 378,848.3 389.8,848.2 
				382.9,853.1 389.7,863.9 379.9,860.1 371.6,872 			"/>
			<polygon class="st16" points="370.3,860.8 363.5,865.3 366.9,857.4 358.2,851 367.2,848.5 376,840.3 376,849.2 384.9,849.1 
				379.9,852.8 385,860.8 377.7,858 371.6,866.9 			"/>
			<path class="st17" d="M454.1,805.9c3.6,0,6.5-2.9,6.5-6.5c0-2.7-1.6-4.9-3.9-6c0.2-0.4,0.3-0.9,0.3-1.4c0-0.4-0.1-0.9-0.2-1.2
				c1.3-0.3,2.3-1.5,2.3-2.9c0-1.4-1-2.6-2.3-2.9c0.1-0.3,0.2-0.6,0.2-0.9c0-1.6-1.3-2.8-2.8-2.8c-1.6,0-2.8,1.3-2.8,2.8
				c0,1.3,0.8,2.3,2,2.7c-0.1,0.3-0.2,0.7-0.2,1.1c0,0.1,0,0.1,0,0.2c0,0,0,0,0,0c-2.2,0-4,1.8-4,4c0,0.9,0.3,1.7,0.8,2.4
				c-1.4,1.2-2.3,3-2.3,5c0,0.2,0,0.5,0,0.7c0,0,0,0,0,0c-3.1,0-5.7,2.6-5.7,5.7c0,2.8,2,5.1,4.7,5.6c0,0.1,0,0.3,0,0.4
				c0,2.4,2,4.4,4.4,4.4s4.4-2,4.4-4.4c0-1.7-1-3.3-2.5-4c0.2-0.6,0.4-1.3,0.4-2C453.5,805.9,453.8,805.9,454.1,805.9z"/>
			<rect x="441.7" y="813.4" class="st6" width="17.9" height="34.3"/>
		</g>
		<rect x="391.3" y="893.1" class="st6" width="25.4" height="25.8"/>
	</g>
	<g>
		<polygon class="st18" points="629.4,527 692.4,417.9 755.3,527 		"/>
		<rect x="682" y="516.7" class="st19" width="20.7" height="32.3"/>
	</g>
	<g>
		<polygon class="st18" points="341.4,1068 404.4,958.9 467.3,1068 		"/>
		<rect x="394" y="1057.7" class="st19" width="20.7" height="32.3"/>
	</g>
	<g>
		<polygon class="st18" points="520.9,698 569.4,614.1 617.8,698 		"/>
		<rect x="561.4" y="690" class="st19" width="15.9" height="24.9"/>
	</g>
	<g>
		<polygon class="st18" points="654.9,794 690.5,732.4 726,794 		"/>
		<rect x="684.6" y="787.8" class="st19" width="11.7" height="18.2"/>
	</g>
	<g>
		<polygon class="st18" points="1355.9,687 1391.5,625.4 1427,687 		"/>
		<rect x="1385.6" y="680.8" class="st19" width="11.7" height="18.2"/>
	</g>
	<g>
		<polygon class="st18" points="378.9,618 414.5,556.4 450,618 		"/>
		<rect x="408.6" y="611.8" class="st19" width="11.7" height="18.2"/>
	</g>
	<g>
		<polygon class="st18" points="1338.8,1010 1391.2,919.3 1443.5,1010 		"/>
		<rect x="1382.6" y="1001.1" class="st19" width="17.2" height="26.9"/>
	</g>
	<g>
		<polygon class="st18" points="1523.4,449 1586.4,339.9 1649.3,449 		"/>
		<rect x="1576" y="438.7" class="st19" width="20.7" height="32.3"/>
	</g>
</g>
<g id="Layer_3" class="st20">
</g>
<g id="Layer_2" class="st20">
</g>
</svg>
